<?xml version="1.0" standalone="no"?>
<!DOCTYPE svg PUBLIC "-//W3C//DTD SVG 1.1//EN" "http://www.w3.org/Graphics/SVG/1.1/DTD/svg11.dtd" >
<svg xmlns="http://www.w3.org/2000/svg">
<metadata>
This is a custom SVG webfont generated by Font Squirrel.
Copyright   :  2008 Microsoft Corporation All Rights Reserved
Designer    : Lucas de Groot
Foundry     : Microsoft Corporation
Foundry URL : httpwwwmicrosoftcomtypographyctfonts
</metadata>
<defs>
<font id="webfontUyJ9ZNxf" horiz-adv-x="1019" >
<font-face units-per-em="2048" ascent="1536" descent="-512" />
<missing-glyph horiz-adv-x="462" />
<glyph unicode="&#x9;" horiz-adv-x="462" />
<glyph unicode="&#xd;" horiz-adv-x="462" />
<glyph unicode=" "  horiz-adv-x="462" />
<glyph unicode="&#x09;" horiz-adv-x="462" />
<glyph unicode="&#xa0;" horiz-adv-x="462" />
<glyph unicode="!" horiz-adv-x="665" d="M266 104q0 27 4 56q4 20 17 35q12 12 32 18q14 4 51.5 4t51.5 -4q20 -6 33 -18q12 -14 16 -35q4 -29 4 -55.5t-4 -55.5q-4 -20 -16 -35q-12 -12 -33 -18t-51.5 -6t-51 6t-32.5 18q-12 14 -17 35q-4 28 -4 55zM281 1327q0 14 2 21q2 8 14 16q6 4 29 8q12 2 45 2 q20 0 45 -4q23 -4 28 -8q12 -8 15 -14q4 -12 4 -21l-19 -954q0 -10 -2 -15q-4 -6 -14 -10q-12 -4 -22 -6h-35h-35q-10 2 -23 6q-8 2 -12 10.5t-4 14.5z" />
<glyph unicode="&#x22;" horiz-adv-x="819" d="M139 1366q0 8 4 12q8 6 17 11q6 2 26 6q10 2 39 2q51 0 68 -8q18 -8 18 -23l-22 -465q0 -4 -4 -12t-11 -10l-20 -6.5t-29 -2.5q-23 0 -30 2q-12 3 -19 7q-6 4 -10 10q-4 8 -4 12zM494 1366q0 6 6 12q8 8 14 10.5t27 6.5q10 2 39 2q31 0 41 -2q20 -4 26 -6q10 -4 15 -11 q4 -8 4 -12l-23 -465q0 -4 -4 -12t-10 -10l-19 -7q-8 -2 -30 -2q-20 0 -29 2q-16 4 -21 7q-6 4 -10 10q-4 8 -4 12z" />
<glyph unicode="#" d="M37 426q0 23 2 31q3 12 6 18q4 10 10 12q8 4 15 5h135l41 331h-121q-16 0 -25 15q-10 16 -10 47q0 35 10 51q8 14 25 14h135l41 322q0 4 4 12q2 4 12 8q9 3 25 6q10 2 37 2q29 0 39 -2q14 -2 20 -6q8 -4 10.5 -8t2.5 -12l-43 -322h278l39 322q0 4 4 12q2 4 12 8q9 3 25 6 q10 2 39 2q27 0 37 -2q14 -2 20 -6q8 -4 10 -8t2 -12l-40 -322h114q14 0 24.5 -16t10.5 -47q0 -23 -2 -31q-2 -4 -8 -18q-4 -6 -10 -11q-8 -4 -15 -4h-131l-39 -331h117q12 0 22.5 -16.5t10.5 -49.5q0 -20 -2 -29q0 -4 -8 -18q-4 -10 -11 -12q-4 -2 -12 -2h-133l-43 -342 q0 -4 -4 -12.5t-10 -10.5q-12 -4 -23 -4q-4 0 -16.5 -1t-20.5 -1t-21.5 1t-17.5 1q-10 0 -22 4q-6 2 -11 10q-2 4 -2 13l41 342h-276l-43 -342q-2 -2 -2 -6.5t-2 -6.5q-4 -6 -10 -10q-8 -4 -23 -4q-4 0 -16.5 -1t-20.5 -1t-21.5 1t-17.5 1q-10 0 -22 4q-6 2 -11 10 q-2 4 -2 13l41 342h-116q-16 0 -24.5 14t-8.5 47zM352 492h277l43 331h-281z" />
<glyph unicode="$" horiz-adv-x="1036" d="M932 366.5q0 -79.5 -31 -145.5q-33 -68 -86 -112q-57 -49 -137 -76q-76 -27 -183 -33l-20 -217q0 -4 -4 -12q-2 -4 -10 -9q-6 -3 -19 -6q-8 -2 -33 -2q-20 0 -36.5 4t-22.5 6q-8 2 -10 8.5t0 14.5l22 217q-37 4 -88 16q-53 12 -73 21q-45 18 -54 22q-25 14 -33 23 q-14 14 -16 27q-4 25 -4 47q0 27 2 37q3 15 6 24q2 8 12 12q8 4 15 5q14 0 37 -15q20 -12 63 -33q37 -16 96 -32q55 -14 138 -15q141 0 214.5 55.5t73.5 151.5q0 59 -26 99q-29 43 -72 69q-39 27 -100 49l-115 41q-78 29 -115 47q-63 33 -102 68q-41 39 -70 98 q-27 55 -26 142q0 63 22 124q20 53 69.5 100.5t115.5 72.5q68 27 163 32l21 203q0 8 2 12t10 9q12 6 19 6q4 0 14 1t18 1q27 0 37 -2q16 -4 23 -6q2 -2 8 -13q2 -4 2 -12l-20 -201l61 -10q14 -2 61 -18q37 -12 52 -21q6 -2 13 -6l12 -7t7 -5q4 -4 11 -17q4 -8 6 -14 q4 -12 4 -23q0 -4 1 -12t1 -14t-1 -17.5t-1 -15.5q0 -10 -4 -23q-4 -10 -8 -12q-8 -4 -13 -4q-6 0 -35 14q-12 6 -61 27q-47 18 -84 29q-49 12 -106 12q-70 0 -115 -12q-47 -12 -78 -37q-33 -27 -43 -55q-12 -33 -12 -72q0 -61 26.5 -100t71.5 -68q41 -27 102 -49l117 -41 q39 -14 117 -47q51 -20 100 -68q47 -43 72 -96q29 -62 29 -141.5z" />
<glyph unicode="%" horiz-adv-x="1462" d="M628 975q0 -84 -16 -142q-18 -66 -51 -106q-35 -43 -90 -70q-53 -25 -125 -24q-70 0 -125 22q-47 20 -84 66q-33 43 -49 106q-16 66 -17 144q0 70 17 135q14 55 51 106q35 47 88 72q51 25 127 25q80 0 131 -27q59 -31 86 -72q35 -51 45 -106q12 -61 12 -129zM489 969 q0 61 -8 100q-10 45 -25 72q-15 28 -43 43q-29 16 -63 16q-39 0 -62 -14q-29 -18 -43 -43q-16 -29 -24 -70q-8 -39 -8 -96q0 -63 10 -115q8 -45 26 -72q18 -29 43 -37q31 -10 62 -10q43 0 65 15q27 16 41 45q16 35 23 71q6 44 6 95zM1390 328q0 -84 -16 -142 q-18 -66 -51 -106q-35 -43 -90 -70q-53 -25 -125 -24q-70 0 -125 22q-47 20 -84 66q-33 43 -49 106q-16 66 -17 144q0 70 17 135q14 55 51 106q35 47 88 72q51 25 127 25q80 0 131 -27q59 -31 86 -72q35 -51 45 -106q12 -61 12 -129zM1251 322q0 61 -8 100q-10 45 -25 72 q-15 28 -43 43q-29 16 -63 16q-39 0 -62 -14q-29 -18 -43 -43q-16 -29 -24 -70q-8 -39 -8 -96q0 -63 10 -115q8 -45 26 -72q18 -29 43 -37q31 -10 62 -10q43 0 65 15q27 16 41 45q16 35 23 71q6 44 6 95zM346 -8q-6 -10 -10 -12l-18 -9q-18 -6 -22.5 -6t-16 -1t-19.5 -1 q-18 0 -35 4q-10 2 -20 13q-4 4 -4 14q0 8 10 22l899 1289q4 6 12 14q4 4 19 8q12 4 24 4q4 0 14.5 1t18.5 1q18 0 35 -4q14 -4 20 -10q4 -4 5 -16q0 -8 -11 -23z" />
<glyph unicode="&#x26;" horiz-adv-x="1396" d="M0 1294zM109 342q0 59 14 104.5t47 94.5q31 47 84 90q63 51 125 88l-70 98q-27 43 -47 82q-16 31 -26 72q-8 31 -9 69q0 61 23 119q23 59 67 101q49 47 119 69q74 25 176 25q89 0 154 -19q57 -16 106 -55q41 -33 63.5 -84t22.5 -111q0 -51 -20 -106t-59 -96 q-41 -43 -109 -92q-55 -39 -158 -95q63 -76 74 -86l84 -90l88 -88l90 -84q16 20 34.5 61.5t29.5 73.5q12 41 18 78q6 41 6 82v37q0 8 4 16.5t11 10.5q9 3 24 6q10 2 39 2h39q6 0 25 -6q10 -4 14 -11q4 -8 4 -20v-25q0 -61 -8 -110q-6 -33 -27 -105q-14 -47 -41 -98 q-33 -61 -53 -88l78 -59q31 -23 57 -39q31 -18 39 -23q10 -4 25 -4h18q12 0 16.5 -2t8.5 -16q2 -8 2 -37v-41q0 -14 -4 -22.5t-8.5 -12.5t-22.5 -8q-20 -4 -41 -4t-45.5 6t-54.5 24q-61 37 -76 47q-25 16 -98 76q-47 -37 -89 -61q-53 -31 -100 -51q-37 -14 -110 -31 q-59 -12 -123 -12q-66 0 -121 12q-70 16 -105 31q-51 23 -86 51q-33 27 -63 71q-25 35 -41 89q-14 45 -14 106zM287 358q0 -53 18 -96q18 -45 51 -74q35 -33 84 -49q47 -16 119 -16q45 0 80 8q45 10 74 23q45 18 67 34l60 43l-103 95q-78 74 -100 98l-92 96q-76 88 -82 94 q-45 -29 -84 -63q-29 -27 -53 -62q-16 -25 -29 -63q-10 -35 -10 -68zM403 1055q0 -28 7 -56q4 -18 24 -59q18 -35 36.5 -65.5t53.5 -77.5q59 33 123 75q45 31 80 66q29 29 43 65.5t14 67.5q0 25 -10 55q-6 18 -35 48q-18 18 -57 32q-35 12 -84 13q-47 0 -90 -15 q-31 -10 -59 -35q-20 -18 -35 -53q-11 -26 -11 -61z" />
<glyph unicode="'" horiz-adv-x="450" d="M139 1366q0 8 4 12q8 6 17 11q6 2 26 6q10 2 39 2q8 0 22.5 -1t18.5 -1q8 0 27 -6q14 -4 16 -11q2 -4 2 -12l-20 -465q0 -4 -4 -12q-4 -6 -11 -10q-4 -2 -20 -7q-8 -2 -30.5 -2t-30.5 2q-12 3 -19 7q-6 4 -10 10q-4 8 -4 12z" />
<glyph unicode="(" horiz-adv-x="620" d="M133 537q0 104 17 223q16 113 43 219q25 94 69 213q40 104 92 209l6 6q3 3 13 6q12 4 20 4q4 0 16.5 1t20.5 1q16 0 37 -4q18 -4 22 -6q8 -6 9 -14q0 -10 -2 -17q-94 -199 -142 -413q-47 -217 -47 -424q0 -209 47 -426q45 -205 140 -414q4 -8 4 -20q0 -8 -6 -15 q-4 -6 -21 -8q-10 -2 -41 -2h-31q-10 0 -22 4q-6 2 -15 6q-6 4 -10 10q-51 92 -94 207q-47 123 -69.5 211t-41.5 219q-14 103 -14 224z" />
<glyph unicode=")" horiz-adv-x="620" d="M123 -319q0 12 4 20q96 209 139 412q47 217 47 428q0 207 -47 424q-49 223 -139 413q-4 12 -4 17q0 8 8 14q4 2 23 6q20 4 36 4q8 0 19.5 -1t15.5 -1q10 0 23 -4q9 -3 12 -6l6 -6q102 -201 162 -422q59 -219 59 -442q0 -121 -14 -224q-16 -113 -43 -219 q-27 -104 -68 -211q-43 -115 -94 -207q-4 -6 -10 -10q-8 -4 -14 -6q-12 -4 -23 -4h-31q-31 0 -40 2q-14 2 -20.5 8.5t-6.5 14.5z" />
<glyph unicode="*" d="M158 911q0 18 14 25l242 106l-242 107q-14 6 -14 25q0 10 24 55q22 40 37 49q16 10 29 0l211 -156l-29 262q-2 14 14 25q10 6 61.5 6t61.5 -6q16 -10 15 -25l-29 -262l213 156q12 8 27 0q15 -9 36 -49q25 -43 25 -55q0 -20 -12 -25l-242 -107l242 -106q12 -4 12 -25 q0 -12 -25 -57q-20 -37 -36 -47q-14 -8 -27 0l-213 154l29 -263q2 -12 -15 -22q-14 -8 -61 -8t-62 8q-16 10 -14 22l29 263l-211 -154q-12 -10 -28.5 0t-37.5 47q-24 45 -24 57z" />
<glyph unicode="+" d="M70 575.5q0 16.5 4 33t8 22.5q8 10 10 12q8 4 14 4h330v365q0 6 4 14t13 10l8 3q8 3 14 5q10 2 35 2.5t35 -2.5q6 -2 14 -5l8 -3q8 -2 12.5 -10t4.5 -14v-365h329q6 0 15 -4q6 -3 12 -12q4 -6 8 -23q2 -8 2 -33q0 -16 -4 -32.5t-8 -22.5q-8 -10 -10 -12q-8 -4 -17 -4 h-327v-365q0 -4 -4.5 -12t-12.5 -10q-12 -4 -22 -6t-35 -2t-35 2t-22 6q-8 2 -12.5 10t-4.5 12v365h-327q-8 0 -17 4q-2 2 -10 12q-4 6 -8 22.5t-4 33z" />
<glyph unicode="," horiz-adv-x="509" d="M43 -274q0 8 2 14l133 274v129q0 28 6 43.5t19 24.5q10 6 28 10q12 2 45 2q31 0 43 -2q18 -4 28.5 -10t17.5 -25q6 -15 6 -43q0 -41 -2 -57q-2 -25 -10.5 -49.5t-18.5 -44.5q-20 -37 -29 -47l-137 -207l-12 -12q-6 -4 -15 -9q-18 -6 -22 -6t-15.5 -1t-17.5 -1t-15 1 t-13.5 1t-16.5 6q-4 3 -4 9z" />
<glyph unicode="-" horiz-adv-x="626" d="M70 506q0 37 8 51q10 16 26 16h418q6 0 15 -4q10 -6 12 -10q2 -6 6 -22q2 -8 2 -31q0 -41 -8 -55.5t-27 -14.5h-418q-18 0 -26 14.5t-8 55.5z" />
<glyph unicode="." horiz-adv-x="516" d="M152 106q0 72 22.5 94.5t85.5 22.5q59 0 82 -22q25 -25 25 -92q0 -70 -25 -95q-23 -23 -86 -22q-59 0 -81.5 22t-22.5 92z" />
<glyph unicode="/" horiz-adv-x="790" d="M2 -252q-2 8 4 23l606 1659q4 14 11 20q10 10 16 12q18 6 25 6q4 0 15 1t19 1q20 0 41 -4q16 -4 27 -10q6 -4 10 -14t-4 -25l-604 -1659q-4 -14 -10 -20q-6 -8 -17 -10q-9 -3 -24 -7q-10 -2 -35 -2q-23 0 -43 5q-18 4 -25 8q-8 6 -12 16z" />
<glyph unicode="0" horiz-adv-x="1036" d="M72 643q0 150 24 272q27 129 78 213q53 86 141 136q90 49 217 49q123 0 207 -43q80 -41 133 -129q53 -86 74 -207q20 -117 21 -285q0 -158 -23 -270q-27 -129 -78 -213q-55 -88 -143 -137q-86 -47 -217 -47q-121 0 -205 43t-135 127q-49 82 -72 208q-22 129 -22 283z M248 655q0 -152 14 -245q15 -101 49 -166q35 -66 82 -92q51 -29 123 -29q59 0 98 16q41 18 74 54q25 27 49 79q20 43 33 105q14 66 16 123q4 90 5 139q0 94 -7 172q-6 63 -20 137q-10 53 -35 101q-23 47 -51 71q-29 27 -70 39q-39 12 -86 12q-86 0 -137 -38 q-53 -41 -84 -111q-31 -72 -43 -164q-10 -80 -10 -203z" />
<glyph unicode="1" horiz-adv-x="1036" d="M174 1024q0 6 1 16.5t1 14.5q0 6 4 18q4 8 8 14q8 8 15 13l299 190q2 2 10 6q2 2 7 3t7 1q6 2 21 3h31q29 0 38 -3q4 0 12.5 -1t12.5 -3q8 -2 12 -10t4 -10v-1139h234q6 0 14 -4q10 -4 13 -12q2 -6 6 -22.5t4 -31t-4 -31t-9 -22.5q-6 -8 -10 -10q-8 -4 -14 -4h-676 q-4 0 -12 4t-12.5 10t-8.5 22.5t-4 31t4 30.5q2 4 5 12.5t3 10.5q2 8 10.5 12t14.5 4h270v985l-249 -149q-18 -9 -31 -12q-12 -2 -18.5 4t-10.5 22q-2 10 -2 37z" />
<glyph unicode="2" horiz-adv-x="1036" d="M115 76v35q0 10 8 26l6 11.5l6 11.5q6 12 19 24l252 267q96 102 139 163q55 78 80 134q33 72 39 108q8 43 8 92q0 45 -15 82q-18 47 -39 68q-29 29 -67 47q-35 16 -92 16q-66 0 -109 -16q-63 -25 -86 -37q-43 -25 -61 -39q-23 -16 -35 -16q-6 0 -14 4q-4 2 -9 12 q-3 9 -6 25q-2 10 -2 36q0 6 1 13.5t1 11.5q0 8 4 21q2 6 7 14q4 10 16 18q27 20 41 29q18 12 74 35q29 12 98 28q51 12 113 13q96 0 163 -27q74 -29 117 -72q49 -49 70 -106q23 -63 22 -131q0 -72 -10 -123q-14 -70 -47 -133q-45 -88 -102 -160q-72 -92 -179 -201 l-204 -215h563q8 0 16 -4q4 -2 12 -14q4 -8 9 -21q2 -8 2 -32q0 -20 -2 -31q-3 -15 -7 -25t-12 -14t-16 -4h-717q-10 0 -23 4q-14 4 -18 10q-10 16 -12 25q-2 10 -2 37z" />
<glyph unicode="3" horiz-adv-x="1036" d="M102 160q0 31 9 51q4 12 18 12q10 0 37 -14l67 -35q53 -23 97 -35q59 -16 125 -16q72 0 114 16q51 18 84 49q33 29 52 74q18 43 18 92q0 53 -23 99q-25 47 -63 75q-45 33 -102 50q-61 18 -138 18h-123q-10 0 -14 2q-10 4 -14 12t-8 21q-4 16 -5 35q0 14 4.5 30.5 t8.5 20.5q8 8 12 10q8 4 16 4h113q72 0 119 17q51 18 88 48.5t57 77.5q18 43 19 99q0 39 -13 76q-10 31 -39 63q-23 27 -67 43q-43 16 -92 16q-57 0 -107 -18q-70 -27 -88 -37q-55 -33 -61 -37q-25 -18 -35 -18t-14 2t-8.5 10t-4.5 21q0 4 -1 16t-1 20v27q0 6 4 19l9 16 q4 8 12 16.5t39 28.5q16 12 71 35q33 14 99 28q55 12 119 13q86 0 157 -23q68 -20 115 -65q47 -43 67 -101q23 -61 23 -129q0 -59 -16 -114q-14 -49 -47 -93q-35 -45 -76 -69q-43 -27 -105 -39v-2q70 -6 123 -33q57 -29 96 -67q40 -40 62 -93q23 -55 22 -114q0 -92 -30 -162 q-31 -72 -88 -123q-55 -49 -144 -78q-82 -27 -192 -26q-59 0 -121 10q-59 10 -100 24q-51 18 -74 31q-33 18 -37 23q-6 6 -10 14l-8 16q-4 12 -5 25q0 4 -1 15.5t-1 19.5z" />
<glyph unicode="4" horiz-adv-x="1036" d="M47 373q0 6 1 18t1 17q0 10 4 26.5t8 24.5l13 24l465 787q4 4 14 12q12 8 25 10q31 6 37 6t24 1t29 1q41 0 57 -2l25 -5l14 -3q10 -2 22 -10q8 -6 9 -14v-828h145q20 0 29 -16q10 -20 10 -53t-10 -54q-10 -18 -29 -18h-145v-272q0 -4 -4 -13q-4 -6 -15 -10q-9 -3 -24 -6 q-10 -2 -41 -2t-41 2q-15 3 -25 6q-10 4 -14 10q-2 4 -2 13v272h-535q-14 0 -20 2q-8 2 -15 12q-6 8 -8 23q-4 21 -4 39zM205 438h424v711h-2z" />
<glyph unicode="5" horiz-adv-x="1036" d="M100 133q0 6 1 16.5t1 14.5t7 22q4 10 8 13q8 4 12 4q10 0 32.5 -12.5t55.5 -26.5q43 -18 88 -29q51 -12 125 -12q63 0 123 16q57 16 96 49q43 37 64 86q23 55 22 125q0 63 -18.5 110.5t-59.5 78.5q-41 33 -102 47q-66 16 -149 16q-61 0 -104.5 -6t-82.5 -6q-29 0 -41 12 q-10 10 -10 51v527q0 35 14 49q16 16 45 16h574q6 0 14 -4q4 -2 12 -14q6 -8 9 -23q2 -10 2 -32q0 -33 -11 -58q-8 -18 -26 -18h-484v-365q35 6 72 6q12 0 39 1t45 1q115 0 195 -26q84 -29 137 -76q57 -51 84 -117q29 -70 29 -153q0 -102 -35 -185q-35 -84 -99 -137 q-66 -57 -153 -84q-92 -29 -197 -28q-63 0 -112 8q-59 10 -97 20q-41 12 -69.5 24.5t-34.5 18.5t-10 15q-2 2 -3.5 7t-1.5 7q-4 12 -4 20q0 4 -1 14.5t-1 16.5z" />
<glyph unicode="6" horiz-adv-x="1036" d="M956 420q0 -86 -24 -166q-25 -76 -80 -139q-53 -59 -137 -97q-83 -37 -197 -36q-90 0 -143 18q-66 23 -109 57q-45 35 -76 93q-31 55 -49 122q-16 61 -26 152q-8 74 -9 174q0 74 11 170q8 82 30 164q18 68 64 147q37 66 98 121q55 49 144 82q84 31 192 31q2 0 76 -6 q31 -2 70 -11q29 -6 53 -16q20 -10 28 -16l11 -11q2 -2 4 -7t2 -7q4 -8 4 -18v-23v-31q0 -8 -4 -20q-2 -8 -10.5 -12.5t-14.5 -4.5q-10 0 -28 7l-48 16q-25 8 -65 14q-53 8 -88 9q-90 0 -162 -39q-63 -35 -108 -103q-43 -63 -64 -147q-18 -78 -22 -176q14 10 57 28 q45 20 72 29q41 12 81 18q57 8 93 9q102 0 176 -29q72 -29 117 -80t63 -118.5t18 -147.5zM782 403q0 66 -10 105q-14 51 -38.5 82t-71.5 49q-46 18 -111 18q-39 0 -76 -6q-35 -6 -69 -18q-53 -18 -68 -27q-41 -20 -57 -33q0 -125 16 -217q14 -80 49 -139q31 -51 78 -74 q49 -23 111 -22q68 0 110 22q47 25 78 66q29 37 45 90q14 45 14 104z" />
<glyph unicode="7" horiz-adv-x="1036" d="M98 1219q0 12 4 32q4 23 7 25q8 12 12 14q8 4 16 4h754q12 0 24.5 -4t16.5 -10t8 -25q2 -10 2 -34v-33q0 -12 -4 -29q0 -4 -4 -13t-4 -13q-2 -4 -5 -13.5t-5 -11.5l-465 -1075q-6 -12 -13 -19q-10 -10 -20 -12q-25 -6 -29 -6q-6 0 -21.5 -1t-23.5 -1q-27 0 -51 4 q-23 4 -29 8q-8 6 -8 17q0 6 8 22l490 1098h-621q-20 0 -28 20q-11 25 -11 56z" />
<glyph unicode="8" horiz-adv-x="1036" d="M954 332q0 -86 -30 -150q-31 -65 -86 -110t-140 -68q-86 -23 -190 -22q-102 0 -178 20q-80 22 -135 61q-55 41 -84 103q-29 63 -29 135q0 63 20 113q23 53 58 94q37 43 92 80t125 71q-53 27 -107 66q-45 33 -77 76q-37 47 -50 86q-16 49 -16 100q0 70 25 127 q27 63 73 105q53 45 127 69q77 25 178 25q104 0 170 -23q70 -25 117 -65q49 -43 70 -95q20 -53 20 -118q0 -49 -16 -99q-14 -41 -47 -88q-23 -33 -80 -77q-55 -43 -107 -70q70 -33 127 -72q55 -37 93 -80q41 -47 57 -90q20 -51 20 -104zM737 995q0 45 -14 76q-18 39 -41 59 q-29 25 -70 37q-43 12 -96 13q-106 0 -161.5 -49.5t-55.5 -135.5q0 -37 12 -71q10 -27 43 -64q29 -31 72 -59q57 -37 102 -60q102 53 155.5 114.5t53.5 139.5zM780 313q0 51 -16 84t-53 70q-31 31 -86 63q-47 27 -119 64q-65 -31 -111 -62q-51 -35 -78 -63q-29 -33 -45 -70 q-16 -39 -16 -82q0 -98 66 -149q70 -53 198.5 -53t194 53t65.5 145z" />
<glyph unicode="9" horiz-adv-x="1036" d="M82 885q0 86 24 162q25 78 78 137q55 61 135 94q86 35 197 35q84 0 143 -21q68 -23 109 -59q51 -45 78 -92q35 -63 51 -123q20 -72 29 -150q8 -72 8 -170q0 -74 -10 -170q-10 -90 -33 -166q-23 -74 -66 -149q-37 -66 -102 -121q-61 -51 -145 -82q-80 -29 -197 -28 q-57 0 -84 4q-43 6 -72 14q-47 12 -55 16q-25 10 -33 19q-12 12 -14 24q-4 20 -4 41q0 8 1 19.5t1 15.5q0 12 4 20.5t8 10.5t14 2q2 0 31 -8l23.5 -7.5t27.5 -9.5q39 -12 70 -16q40 -6 92 -6q96 0 168 37q70 37 113 100q45 68 65 145q20 82 25 177q-51 -31 -127 -56 q-74 -25 -170 -24q-109 0 -182 30q-78 33 -117 80q-47 57 -64 121q-20 78 -20 154zM256 897q0 -59 12 -109q12 -45 41 -81q29 -35 74 -54q46 -18 111 -18q72 0 145 22q63 20 121 60q0 129 -19 215q-20 94 -49 141q-33 53 -82 78t-110 25q-68 0 -111 -23q-45 -25 -76 -63 q-25 -33 -43 -91q-14 -45 -14 -102z" />
<glyph unicode=":" horiz-adv-x="546" d="M186 106q0 12 7 56q4 23 16 35q14 14 31 18q23 6 53 6q27 0 49 -6q20 -6 33 -18q16 -16 18 -35q4 -29 4 -55.5t-4 -55.5q-2 -18 -18.5 -34.5t-32.5 -20.5q-14 -4 -49 -4q-39 0 -53.5 4t-30.5 20q-12 12 -16 35q-7 43 -7 55zM186 800.5q0 12.5 7 55.5q4 25 16 37 q14 14 31 18q23 6 53 7q27 0 49 -7q20 -6 33 -18q14 -16 18 -37q4 -29 4 -55.5t-4 -55.5q-2 -18 -18 -34q-12 -12 -33 -19q-23 -6 -49 -6q-31 0 -53 6q-16 4 -31 19q-12 14 -16 34q-7 43 -7 55.5z" />
<glyph unicode=";" horiz-adv-x="546" d="M72 -272q0 2 4 14l131 272v129q0 28 6 43.5t18 24.5q10 6 29 10q12 2 43 2q29 0 41 -2q23 -4 31 -10q10 -6 16 -25q6 -15 6 -43q0 -25 -4 -57q-4 -37 -8 -49q-8 -25 -18 -45q-20 -37 -29 -47l-135 -205l-13 -12q-4 -4 -16 -8.5t-20.5 -6.5t-30.5 -2q-6 0 -15.5 1t-13.5 1 q-8 0 -16 4q-6 5 -6 11zM186 800.5q0 12.5 7 55.5q4 25 16 37q14 14 31 18q23 6 53 7q27 0 49 -7q20 -6 33 -18q14 -16 18 -37q4 -29 4 -55.5t-4 -55.5q-2 -18 -18 -34q-12 -12 -33 -19q-23 -6 -49 -6q-31 0 -53 6q-16 4 -31 19q-12 14 -16 34q-7 43 -7 55.5z" />
<glyph unicode="&#x3c;" d="M70 578v30q0 4 6 23l8 16q2 4 10 8l785 396q23 12 32 0q8 -10 9 -60q0 -10 -1 -25.5t-1 -21.5q0 -14 -5 -26q-4 -8 -10 -17q-2 -2 -18 -10l-645 -316l641 -311q16 -8 20 -12q8 -6 10 -16q6 -18 7 -27q0 -6 1 -21.5t1 -25.5q0 -31 -2 -41q-4 -14 -9 -21q-6 -6 -12 -6 t-18 6l-789 400q-8 6 -14 22q-6 19 -6 56z" />
<glyph unicode="=" d="M94 383q0 33 10 53q8 16 27 17h756q20 0 28 -17q10 -20 11 -53q0 -40 -13 -55q-12 -16 -26 -17h-756q-14 0 -27 17q-10 12 -10 55zM94 770q0 33 10 53q10 18 27 19h756q18 0 28 -19q10 -20 11 -53q0 -40 -13 -55q-12 -14 -26 -15h-756q-14 0 -27 15q-10 12 -10 55z" />
<glyph unicode="&#x3e;" d="M100 160q0 10 1 24.5t1 20.5q0 16 4 28q4 8 11 17q2 2 18 10l645 318l-641 309l-20 10q-10 10 -13 16q-4 16 -4 29q0 6 -1 21.5t-1 25.5q0 31 2 41q2 14 7 21q2 6 14 6q2 0 18 -8l789 -398q10 -6 16 -24.5t6 -53.5q0 -23 -2 -30q-4 -16 -6 -23l-6 -16q-4 -4 -12 -8 l-785 -396q-12 -6 -18 -6q-12 0 -14.5 6t-6.5 23q-2 10 -2 37z" />
<glyph unicode="?" horiz-adv-x="948" d="M133 1231q0 29 2 37q2 10 15 22q6 6 38.5 24.5t67.5 28.5q47 14 90 22.5t100 8.5q108 0 185 -31q80 -33 127 -81q49 -52 73 -123q23 -66 23 -148q0 -88 -25 -155q-25 -70 -69 -117q-45 -49 -109 -76q-55 -25 -139 -31l-6 -241q0 -16 -18.5 -22.5t-57.5 -6.5h-35 q-6 0 -24 6q-10 4 -13 8q-4 8 -4 15l-6 276q0 18 4 39q2 12 13 23q12 12 22 14t33 2h22q61 0 110.5 22.5t74.5 53.5q33 39 43 80q12 45 12 96q0 55 -16 104q-16 47 -47 82t-82 54q-55 20 -113 20q-51 0 -102 -14q-53 -14 -76 -27l-53 -27q-20 -12 -29 -12q-10 0 -14.5 2 t-8.5 12q-4 12 -6 22.5t-2 37.5zM330 104q0 27 4 56q2 20 16 35q12 12 33 18q14 4 51 4t51 -4q20 -6 33 -18q14 -14 17 -35q4 -29 4 -55.5t-4 -55.5q-2 -20 -17 -35q-12 -12 -33 -18q-23 -6 -51 -6t-51 6q-20 6 -33 18q-14 14 -16 35q-4 28 -4 55z" />
<glyph unicode="@" horiz-adv-x="1830" d="M0 1294zM170 381q0 51 6 119q8 78 21 145q14 74 43 156q23 63 73 155q43 78 106.5 143.5t151.5 117.5q96 55 197 79q115 29 254 29q166 0 283 -39q120 -40 196 -110q80 -74 117 -177q39 -111 39 -231q0 -59 -10 -137q-10 -80 -27 -139q-18 -70 -49 -127q-29 -55 -78 -105 q-45 -45 -104 -70q-58 -25 -136 -24q-45 0 -75 8q-35 10 -64 29q-27 18 -45 44.5t-25 65.5q-37 -37 -77.5 -67.5t-73.5 -47t-70 -26.5q-23 -6 -67.5 -6t-75.5 8q-35 10 -59 25q-23 14 -43.5 40.5t-30.5 53.5q-10 23 -17 65q-6 37 -6 78q0 25 8 99q6 51 23 114q16 66 43 117 q31 61 70 100q45 45 100 72q61 29 131 29q20 0 62 -9q27 -6 57 -22q23 -12 51 -41q35 -35 51 -57l19 88q2 14 16 20q20 8 53 8q23 0 31 -2q12 -3 18 -6q8 -4 11 -8q3 -6 0 -12l-88 -459q-16 -88 8 -129q23 -41 90 -41q41 0 73.5 20.5t57.5 55.5q25 34 43 80q14 33 29 98 q4 20 14 106q6 55 6 105q0 84 -24 164q-27 86 -80 139q-57 57 -152 94q-90 35 -239 35q-119 0 -211 -25q-78 -20 -162 -71q-72 -43 -121 -103q-51 -61 -84 -123q-33 -63 -55 -133q-14 -43 -31 -133q-14 -72 -16 -119q-2 -37 -2 -96q0 -111 24 -203q25 -90 88 -157 q66 -70 170 -105q106 -37 266 -37q82 0 134 9q61 10 102 18t70 18q25 8 36 9q6 0 11 -4q6 -6 8 -11q4 -8 4 -20v-29v-22q0 -12 -2 -17l-6 -12q-2 -4 -10 -12q-4 -4 -35 -15q-43 -14 -76 -20q-59 -10 -115 -17q-86 -8 -141 -8q-182 0 -317 45q-129 43 -211 125 q-78 78 -117 199q-37 113 -37 256zM682 451q0 -80 25 -115q27 -39 90 -39q27 0 49 8q37 14 53 25q27 18 59 47q43 39 70 67l47 261q-37 63 -78 98q-39 33 -90 33q-43 0 -76 -21q-39 -25 -59 -53q-25 -34 -43 -74q-12 -27 -29 -84q-10 -39 -14 -82q-4 -53 -4 -71z" />
<glyph unicode="A" horiz-adv-x="1183" d="M35 27q0 16 8 34l434 1203q2 8 12 18q8 8 19 10q25 6 31 6t22.5 1t28.5 1q10 0 27.5 -1t23.5 -1q10 0 35 -6q14 -4 20 -10q8 -8 11 -18l434 -1203q8 -18 8 -36q0 -16 -6 -21q-8 -4 -27 -8q-12 -2 -49 -2q-10 0 -28.5 1t-22.5 1q-14 0 -27 4q-10 4 -14 10q0 2 -3 6t-5 9 l-113 315h-537l-106 -311q-2 -8 -8 -15q-10 -10 -15 -12q-10 -4 -26 -6q-12 -2 -45 -2q-37 0 -49 2q-16 2 -24.5 10.5t-8.5 20.5zM360 477h451l-227 645z" />
<glyph unicode="B" horiz-adv-x="1112" d="M172 70v1155q0 39 21 53q23 16 43 16h294q113 0 191 -22q76 -23 123 -64q51 -45 74 -102q25 -61 24 -139q0 -53 -10 -88q-12 -43 -33 -78q-23 -39 -53 -64q-33 -27 -76 -45q55 -10 100 -37q46 -28 80 -67q33 -39 56 -96q18 -47 18 -121q0 -63 -14 -113q-15 -52 -43 -92 q-29 -43 -68 -72q-35 -27 -90 -51q-57 -25 -104 -33q-61 -10 -132 -10h-337q-20 0 -43 16q-21 15 -21 54zM342 141h250q61 0 102 15q49 18 78 41q35 29 53.5 69.5t18.5 93.5q0 59 -19 103q-20 45 -53 74q-35 29 -90 45t-133 16h-207v-457zM342 735h197q72 0 106 17 q47 23 70 47q27 29 39 69.5t12 81.5q0 47 -12.5 84t-40.5 66q-25 25 -74 41q-37 12 -119 12h-178v-418z" />
<glyph unicode="C" horiz-adv-x="1091" d="M96 631q0 160 43 286.5t117 212.5q76 88 178 134q106 47 232 47q51 0 108 -11q39 -6 98 -26q46 -15 80 -37q39 -25 49 -35q16 -16 18.5 -20t6.5 -16.5t4 -22.5v-33q0 -23 -2 -33q0 -4 -1 -12t-3 -12q-2 -8 -10 -13q-12 -6 -15 -6q-12 0 -38 21q-29 23 -64 43 q-39 25 -96 43q-55 18 -135 18q-90 0 -158 -33q-72 -35 -121 -102q-47 -66 -75.5 -164t-28.5 -221q0 -125 26 -217q27 -94 76 -158q45 -59 123 -96q68 -33 162 -33q70 0 135 20.5t98 41.5l66 43q25 18 41 18q8 0 12 -2t8 -12q4 -12 4 -23q0 -4 1 -17.5t1 -21.5q0 -6 -1 -14 t-1 -12q0 -16 -2 -23q0 -2 -2 -5t-4 -5t-2 -4q-6 -12 -12 -19q-2 -2 -43 -30q-23 -16 -80 -39q-55 -23 -109 -33q-72 -14 -135 -14q-126 0 -227 43q-106 45 -172 123q-71 83 -111 202q-39 117 -39 279z" />
<glyph unicode="D" horiz-adv-x="1259" d="M172 70v1155q0 39 21 53q23 16 43 16h292q168 0 285 -43q115 -43 195 -125q78 -82 118 -198q41 -119 41 -262q0 -166 -43 -293t-125 -209q-83 -83 -202 -123q-123 -41 -287 -41h-274q-20 0 -43 16q-21 15 -21 54zM344 143h176q123 0 209 31q84 29 143 96q58 65 86 160 q27 92 27 229q0 106 -24 195q-25 92 -82.5 157.5t-141.5 102.5q-86 37 -219 37h-174v-1008z" />
<glyph unicode="E" horiz-adv-x="999" d="M172 70v1155q0 39 21 53q23 16 43 16h614q6 0 14 -4t10 -12q2 -6 6.5 -22.5t4.5 -34.5q0 -14 -4 -30.5t-7 -23.5q-2 -8 -10 -12t-14 -4h-506v-406h434q6 0 15 -4q6 -4 10 -14q0 -2 3 -8t5 -12v-33v-33q-2 -4 -5 -11t-3 -9q-2 -6 -10.5 -10.5t-14.5 -4.5h-434v-463h512 q8 0 16 -4q4 -2 11 -12q4 -6 8 -23q2 -8 2 -32.5t-2 -32.5q-4 -16 -8 -23q-6 -10 -11 -12q-8 -4 -16 -4h-620q-20 0 -43 16q-21 15 -21 54z" />
<glyph unicode="F" horiz-adv-x="940" d="M172 27v1198q0 39 21 53q23 16 43 16h581q6 0 14 -4q6 -3 13 -12q2 -2 6 -25q2 -10 2 -32.5t-2 -32.5q-4 -18 -6 -23q-8 -12 -12.5 -14t-14.5 -2h-473v-440h449q4 0 12 -4q6 -3 12 -13q2 -2 6 -20q2 -8 2 -35q0 -25 -2 -33q-6 -20 -6 -22q-6 -9 -12 -13q-8 -4 -12 -4 h-449v-538q0 -6 -4 -15q-4 -6 -14 -10q-6 -2 -27 -6q-10 -2 -41 -2q-29 0 -41 2q-16 2 -26.5 6t-14.5 10q-4 9 -4 15z" />
<glyph unicode="G" horiz-adv-x="1290" d="M90 635q0 150 47 278q45 125 131 213q86 90 203 138q119 49 262 49q63 0 139 -15q72 -14 117 -30q63 -25 84 -37q33 -23 47.5 -35t18.5 -29q6 -18 6 -49q0 -23 -2 -33q-3 -15 -6 -24q-4 -10 -11 -14q-8 -4 -14 -5q-8 0 -39 21q-29 18 -76 41q-59 29 -112 43 q-66 18 -156 18q-106 0 -190 -39q-86 -41 -146 -108q-59 -70 -90 -164q-31 -96 -31 -207q0 -121 35 -219q35 -100 94 -162q66 -70 146 -100q88 -35 186 -35q55 0 121 16q63 16 115 43v377h-299q-18 0 -26.5 16.5t-8.5 53.5q0 25 2 33q4 16 6 22q2 8 10.5 12.5t16.5 4.5h409 q6 0 23 -4q10 -2 20 -13q8 -8 15 -22q4 -10 4 -31v-494q0 -29 -8 -45q-8 -18 -39 -34q-8 -4 -74 -31q-31 -12 -96 -29q-49 -12 -98.5 -18t-100.5 -6q-147 0 -266 47q-117 47 -201 133q-82 84 -125 205t-43 268z" />
<glyph unicode="H" horiz-adv-x="1275" d="M172 27v1241q0 6 4 14q4 6 14.5 10t26.5 6q12 2 41 2q31 0 41 -2q20 -4 27 -6q10 -4 14 -10q4 -8 4 -14v-518h590v518q0 6 4 14t12 10q6 2 27 6q10 2 43 2q29 0 39 -2q20 -4 26 -6q10 -4 15 -10q4 -8 4 -14v-1241q0 -6 -4 -15q-4 -6 -15 -10q-6 -2 -26 -6q-10 -2 -39 -2 q-33 0 -43 2q-20 4 -27 6q-8 2 -12 10t-4 15v573h-590v-573q0 -6 -4 -15q-4 -6 -14 -10q-6 -2 -27 -6q-10 -2 -41 -2q-29 0 -41 2q-16 2 -26.5 6t-14.5 10q-4 9 -4 15z" />
<glyph unicode="I" horiz-adv-x="514" d="M172 27v1241q0 6 4 14q2 6 17 10q6 2 26 6q10 2 39 2q31 0 41 -2q20 -4 27 -6q10 -4 14 -10q4 -8 4 -14v-1241q0 -6 -4 -15q-4 -6 -14 -10q-6 -2 -27 -6q-10 -2 -41 -2q-29 0 -41 2q-16 2 -26.5 6t-14.5 10q-4 9 -4 15z" />
<glyph unicode="J" horiz-adv-x="651" d="M6 106q0 8 1 20.5t1 16.5t6 23q4 10 9 12q8 4 14 4q4 0 20 -8l14.5 -7t16.5 -9q25 -12 39 -17q29 -8 55 -8q31 0 57.5 10.5t41.5 30.5q12 16 22 64q8 35 8 104v928q0 4 4 12q4 6 15 10q6 2 26 6q10 2 41 2q29 0 41 -2q16 -2 26.5 -6t14.5 -10q4 -8 4 -12v-944 q0 -82 -14 -142q-16 -66 -47 -108q-33 -43 -90 -70q-55 -25 -137 -24q-18 0 -56 4q-14 2 -51 12q-14 4 -39 16q-16 8 -22 15q-4 4 -8.5 12t-6.5 14q-4 12 -4 21q0 4 -1 14t-1 16z" />
<glyph unicode="K" horiz-adv-x="1062" d="M172 27v1241q0 6 4 14q4 6 14.5 10t26.5 6q12 2 41 2q31 0 41 -2q20 -4 27 -6q10 -4 14 -10q4 -8 4 -14v-576l459 576q8 10 12 14q12 8 20.5 10t28.5 6q10 2 41 2q33 0 43 -2l25 -8q10 -4 14 -10q2 -4 2 -12q0 -14 -6 -27q-8 -14 -25 -35l-428 -514l461 -612 q14 -20 21 -37q4 -12 4 -14q0 -6 -4 -15q-4 -10 -13 -12q-10 -4 -26 -6q-12 -2 -45 -2q-29 0 -58 4q-25 4 -32 10q-12 9 -19 19l-475 647v-647q0 -6 -4 -15q-4 -6 -14 -10q-6 -2 -27 -6q-10 -2 -41 -2q-29 0 -41 2q-16 2 -26.5 6t-14.5 10q-4 9 -4 15z" />
<glyph unicode="L" horiz-adv-x="860" d="M172 70v1198q0 6 4 14q4 6 14.5 10t26.5 6q12 2 41 2q31 0 41 -2q20 -4 27 -6q10 -4 14 -10q4 -8 4 -14v-1118h465q6 0 14 -5q6 -4 11 -14l3 -8q3 -8 5 -14q2 -10 2 -33q0 -27 -2 -35q-2 -4 -5 -12.5t-3 -10.5q-4 -10 -11 -14q-8 -4 -14 -4h-573q-20 0 -43 16 q-21 15 -21 54z" />
<glyph unicode="M" horiz-adv-x="1748" d="M172 27v1190q0 41 23 59q22 18 49 18h102q33 0 57 -6q20 -6 41 -18q18 -12 30.5 -32.5t21.5 -47.5l374 -938h7l389 934q10 27 24 51q10 18 29 33q14 12 35 18q18 6 43 6h108q12 0 29 -4q10 -2 22 -14q10 -10 16.5 -24.5t6.5 -34.5v-1190q0 -6 -4 -15q-4 -6 -14 -10 q-9 -3 -25 -6q-10 -2 -41 -2q-29 0 -39 2q-20 4 -26 6q-10 4 -15 10q-4 8 -4 15v1126h-2l-461 -1133q-4 -8 -8 -12t-16.5 -8t-24.5 -4q-4 0 -15.5 -1t-19.5 -1q-25 0 -35 2q-15 3 -24 6q-12 4 -17 8q-6 6 -8 10l-440 1133v-1126q0 -6 -4 -15q-4 -6 -14 -10q-6 -2 -27 -6 q-10 -2 -41 -2t-41 2q-15 3 -25 6q-8 2 -12 10.5t-4 14.5z" />
<glyph unicode="N" horiz-adv-x="1320" d="M172 27v1194q0 39 23 57q18 16 47 16h82q31 0 49 -6q25 -8 35 -16q20 -16 30 -31l31 -51l313 -569q12 -23 27.5 -48.5l30.5 -52.5l51 -98l49 -94l49 -95q-2 53 -2 166v164v703q0 4 4 12t13 10q6 2 26 6q10 2 39 2t39 -2q15 -3 25 -6q10 -4 14 -10q4 -8 4 -12v-1194 q0 -14 -8 -35q-4 -10 -16.5 -22.5t-22.5 -14.5q-8 -2 -27 -2h-55q-33 0 -45 4q-20 6 -37 21q-14 12 -35 38q-12 16 -39 66l-407 735l-66 119q-2 2 -59 123h-2q2 -47 2 -148q0 -25 1 -75t1 -74v-780q0 -6 -4 -15q-4 -6 -15 -10q-9 -3 -24 -6q-10 -2 -39 -2q-31 0 -41 2 q-15 3 -25 6q-8 2 -12 10.5t-4 14.5z" />
<glyph unicode="O" horiz-adv-x="1355" d="M98 639q0 152 37 279q37 123 113 212q78 90 184 136q113 47 258 47q141 0 250 -43q106 -43 176 -125q72 -84 105 -205q35 -127 34 -278q0 -157 -36.5 -283t-110.5 -215t-184 -135q-113 -47 -258.5 -47t-253.5 43q-102 41 -176 127q-68 80 -103 204q-35 127 -35 283z M281 651q0 -114 18 -209q18 -92 66 -166q45 -70 120.5 -108.5t188.5 -38.5q114 0 190 43q78 43 123 113q46 71 68 166q20 90 20 198q0 98 -20 205q-18 94 -64 164q-45 68 -123 108q-76 39 -186 39q-115 0 -188 -41q-82 -45 -125 -112q-45 -70 -68 -164q-20 -88 -20 -197z " />
<glyph unicode="P" horiz-adv-x="1056" d="M172 27v1194q0 39 21 57q18 16 47 16h276q29 0 82 -4q43 -4 90 -14q51 -12 107 -43q57 -33 94 -78q35 -45 57 -106q20 -59 21 -134q0 -100 -31 -176q-29 -74 -92 -133q-55 -51 -146 -84q-86 -31 -206 -30h-148v-465q0 -6 -4 -15q-4 -6 -14 -10q-6 -2 -27 -6 q-10 -2 -41 -2t-41 2q-20 4 -27 6q-10 4 -14 10q-4 9 -4 15zM344 633h156q80 0 129 20q57 23 86 56q37 41 53 84q18 49 18 108q0 78 -30 131q-35 59 -72 80q-47 27 -90 33q-45 6 -90 6h-160v-518z" />
<glyph unicode="Q" horiz-adv-x="1376" d="M98 639q0 152 37 279q37 123 113 212q78 90 184 136q113 47 258 47q141 0 246 -43q106 -45 176 -125q72 -84 109 -205q35 -113 34 -276q0 -90 -8 -156q-10 -76 -30 -139q-25 -78 -52 -123q-29 -53 -73 -101q70 -57 129 -94q55 -35 90 -51q31 -16 55 -23q16 -4 31 -18 q12 -12 14 -27q4 -25 4 -47q0 -27 -2 -37q-4 -18 -8 -24q-8 -10 -10 -12q-4 -2 -13 -2q-20 0 -65 16q-41 14 -103 47q-53 29 -122 78q-86 61 -129 104q-53 -33 -123 -53t-174 -20q-145 0 -254 43q-106 43 -176 125q-68 80 -103 206.5t-35 282.5zM281 651q0 -114 18 -209 q18 -92 66 -166q45 -70 120.5 -108.5t188.5 -38.5q114 0 190 43q78 43 123 113q46 71 68 166q20 90 20 200q0 96 -20 203q-18 94 -64 164q-45 68 -123 108q-76 39 -186 39q-115 0 -188 -41q-82 -45 -125 -112q-47 -72 -68 -162q-20 -88 -20 -199z" />
<glyph unicode="R" horiz-adv-x="1110" d="M172 27v1198q0 39 21 53q23 16 43 16h276q57 0 80 -2q37 -4 59 -6q72 -12 133 -41q53 -25 97 -71q39 -41 57 -99q20 -61 20 -123q0 -65 -18 -116q-18 -55 -49 -91q-34 -40 -80 -67q-49 -29 -102 -49q35 -18 57 -37q35 -31 49 -51.5t41 -69.5q18 -33 41 -86l117 -287 q12 -31 16 -49q4 -20 4 -22q0 -10 -2 -15q-4 -8 -12 -10t-29 -6q-12 -2 -49 -2q-31 0 -41 2q-20 4 -27 6q-10 4 -16 12q-4 8 -8 21l-121 305l-43 96q-20 41 -53 74q-31 31 -74 49.5t-100 18.5h-115v-551q0 -6 -4 -15q-4 -6 -14 -10q-6 -2 -27 -6q-10 -2 -41 -2t-41 2 q-20 4 -27 6q-10 4 -14 10q-4 9 -4 15zM344 717h168q63 0 116.5 16.5t84 45t47.5 69.5q16 43 16 88q0 74 -35 127q-35 55 -112 76q-31 8 -58 10q-20 2 -82 2h-145v-434z" />
<glyph unicode="S" horiz-adv-x="940" d="M72 162q0 25 2 35q3 15 6 24q4 10 8 12q8 4 14 5q16 0 41 -19q8 -6 66 -37q23 -12 96 -37q55 -18 129 -18q53 0 102.5 16.5t82 43t51.5 67.5q16 35 16 90q0 53 -24 94q-20 33 -66 68q-37 29 -94 55l-107 49q-37 16 -106 58q-61 37 -94 71q-41 45 -66 99q-27 59 -27 137 t31 143q31 63 82 107q55 45 125 65q78 23 156 23q29 0 86 -8q41 -6 82 -19q33 -10 69 -29q29 -14 39 -24q8 -8 12 -16l7 -13q2 -6 2 -20q0 -4 1 -15.5t1 -17.5t-1 -16.5t-1 -14.5q0 -12 -5 -24q-4 -10 -8 -13l-12 -6q-12 0 -35 15q-18 12 -57 32q-16 8 -82 31 q-43 14 -105 14q-57 0 -94 -14q-43 -16 -65 -39q-29 -29 -39 -55q-12 -33 -12 -72q0 -51 24.5 -92t65.5 -69.5t96 -55.5l106 -49q45 -20 109 -57q55 -33 94 -72q43 -43 67.5 -98.5t24.5 -133.5q0 -94 -32 -161q-35 -72 -93 -121q-57 -47 -141 -74q-80 -25 -174 -24 q-74 0 -119 10q-68 14 -100 26q-43 14 -72 33q-25 14 -41 31q-12 12 -18 29q-4 12 -4 51z" />
<glyph unicode="T" horiz-adv-x="997" d="M14 1221q0 12 4 32q3 15 7 25q2 8 10 12t14 4h899q6 0 15 -4q10 -4 12 -12q3 -9 6 -25q2 -10 2 -32.5t-2 -32.5t-6 -23q-4 -10 -12 -14q-4 -2 -15 -2h-362v-1122q0 -6 -4 -15q-4 -6 -15 -10q-6 -2 -26 -6q-10 -2 -41 -2q-29 0 -41 2q-20 4 -28.5 6t-12.5 10t-4 15v1122 h-365q-10 0 -14 2q-6 4 -10 14q-4 12 -7 23q-4 21 -4 33z" />
<glyph unicode="U" horiz-adv-x="1312" d="M170 465v803q0 6 4 14q4 6 14 10q9 3 25 6q10 2 43 2q29 0 41 -2q16 -2 26.5 -6t14.5 -10q4 -8 4 -14v-783q0 -92 20 -155q23 -72 64 -113q49 -49 100 -67q61 -23 131 -23q72 0 134 23q59 23 100 65q39 41 61 111q23 68 23 151v791q0 6 4 14t12 10q6 2 27 6q10 2 43 2 q29 0 39 -2q20 -4 26 -6q10 -4 15 -10q4 -8 4 -14v-791q0 -115 -35 -209t-98 -157q-61 -61 -156 -97q-90 -33 -209 -32q-106 0 -194 30q-86 29 -152 92q-63 59 -96 152q-35 94 -35 209z" />
<glyph unicode="V" horiz-adv-x="1161" d="M35 1268q0 14 8 20q12 8 29 10q14 2 55 2q10 0 24.5 -1t18.5 -1q8 0 27 -6q8 -2 12 -10l8 -16l373 -1090l360 1088q0 4 8 18q4 6 15 10q18 6 26 6q4 0 20.5 1t29.5 1q37 0 49 -2q16 -2 24 -10q4 -4 4 -20q0 -10 -10 -35l-422 -1202q-2 -10 -10 -19q-10 -10 -20 -12 q-16 -4 -31 -4q-6 0 -22.5 -1t-26.5 -1h-39q-12 0 -29 4q-4 0 -10 1t-10 3q-6 2 -15 6q-4 2 -8 10l-6 13l-424 1202q-8 19 -8 35z" />
<glyph unicode="W" horiz-adv-x="1820" d="M61 1270q0 12 9 18q12 8 26 10q12 2 51 2q12 0 29 -1t21 -1q10 0 28 -6q8 -2 13 -10q3 -6 6 -18l291 -1084l276 1082q0 4 8 18q4 8 15 12q8 2 28 6q12 2 47 2t45 -2q20 -4 27 -6q10 -4 14 -12q8 -14 9 -18l296 -1082h3l284 1084q4 12 6 16q4 10 13 12q10 4 26 6 q12 2 47 2t47.5 -2t24.5 -10q8 -6 8 -20.5t-6 -34.5l-342 -1194q-2 -12 -12 -23q-12 -12 -23 -14q-25 -6 -33 -6q-14 -2 -51 -2q-39 0 -53 2t-35 6q-12 2 -20 14q-10 16 -13 23l-270 977h-2l-250 -977q-2 -10 -10 -23q-8 -10 -21 -14q-14 -4 -32 -6q-14 -2 -54 -2 q-41 0 -55 2t-35 6q-14 2 -22 14.5t-10 22.5l-342 1194q-7 21 -7 37z" />
<glyph unicode="X" horiz-adv-x="1062" d="M66 61l354 596l-338 576q-14 25 -16 35q-4 14 6 20q12 8 26.5 10t55.5 2q10 0 26.5 -1t22.5 -1q14 0 30 -4q8 -2 17 -10q4 -6 10 -14l279 -486l274 486q8 12 10 14q8 8 15 10q12 4 26 4q6 0 21.5 1t25.5 1q37 0 50 -2q18 -2 28 -10q10 -6 6 -20q-4 -16 -14 -35l-336 -571 l350 -601q14 -25 17 -34q1 -3 0 -6q0 -10 -6 -15q-10 -8 -31 -10q-14 -2 -53 -2q-12 0 -28.5 1t-23.5 1q-16 0 -28 4q-6 2 -14.5 10t-10.5 15l-289 516l-290 -516q-8 -12 -11 -15q-6 -6 -16 -10q-12 -4 -29 -4q-6 0 -22.5 -1t-26.5 -1q-39 0 -51 2q-20 4 -27 10q-5 5 -5 14 q1 15 16 41z" />
<glyph unicode="Y" horiz-adv-x="997" d="M32 1276q0 7 5 12q6 6 26 10q12 2 54 2q37 0 49 -2t29 -6q8 -2 16 -10q2 -2 5 -8t5 -8l180 -371l50 -113l51 -116h2l47 114l49 111l180 375q4 12 8 16q6 8 17 10q10 4 26 6q12 2 43 2q41 0 56 -2q16 -2 28 -10q7 -5 7 -14v-6q-4 -16 -15 -35l-364 -729v-477q0 -6 -4 -15 q-4 -6 -14.5 -10t-26.5 -6q-12 -2 -41 -2q-33 0 -43 2q-20 4 -27 6q-10 4 -14 10q-4 8 -4 15v477l-367 729q-13 23 -13 43z" />
<glyph unicode="Z" horiz-adv-x="958" d="M59 68v36q0 4 1 11.5t1 11.5q0 12 7 25l14 28q2 4 20 35l598 936h-589q-14 0 -19 2q-6 4 -10 14q-4 12 -6 20.5t-2 33.5q0 23 2 32q3 15 6 25q2 8 10 12t19 4h718q27 0 43.5 -16t16.5 -47v-39q0 -20 -2 -29q-4 -16 -8 -24q-2 -2 -5.5 -12.5t-7.5 -16.5q-12 -20 -22 -35 l-594 -930h631q16 0 26 -18q8 -16 8 -55q0 -25 -2 -33q-4 -16 -6 -23q-2 -8 -10 -12t-16 -4h-764q-25 0 -41.5 16.5t-16.5 51.5z" />
<glyph unicode="[" horiz-adv-x="626" d="M190 -250v1579q0 20 7 33q8 16 14 22.5t20 10.5q16 4 23 4h256q8 0 12 -2t8 -13l7 -18q2 -8 2 -29q0 -31 -7 -47q-4 -12 -22 -12h-164v-1477h164q4 0 12 -4q4 -2 8 -10q3 -6 7 -18q2 -8 2 -29q0 -35 -6.5 -47t-22.5 -12h-256q-14 0 -23 2q-10 2 -20 12q-6 6 -14 22 q-7 13 -7 33z" />
<glyph unicode="\" horiz-adv-x="790" d="M10 1440q0 8 8 14q12 8 25 8h43h43q14 0 26.5 -4t14.5 -8q4 -8 6 -14l606 -1659q6 -18 6 -26.5t-8 -14.5q-6 -4 -24 -8q-10 -2 -43 -2q-8 0 -22.5 1t-18.5 1q-14 0 -27 4q-10 2 -14 8t-8 14l-605 1659q-8 25 -8 27z" />
<glyph unicode="]" horiz-adv-x="626" d="M90 -260q0 6 1 15t1 14q0 10 4 18q4 6 10 10q8 4 13 4h164v1477h-164q-16 0 -21 12q-8 20 -8 47q0 6 1 15.5t1 13.5q0 6 4 18q2 8 10 13q4 2 13 2h256q6 0 22 -4q14 -4 20.5 -10.5t14.5 -22.5q6 -12 6 -33v-1579q0 -20 -6 -33q-8 -16 -14 -22q-10 -10 -21 -12 q-8 -2 -22 -2h-256q-14 0 -21 12q-8 16 -8 47z" />
<glyph unicode="^" d="M106 594q0 14 9 31l284 647q4 12 11 16q12 8 20 10q12 3 31 7q12 2 43 2t43 -2q18 -3 31 -7q8 -2 20 -10q6 -4 10 -16l291 -647q10 -20 10 -31q0 -12 -8 -18.5t-24 -6.5q-6 0 -21.5 -1t-26.5 -1q-8 0 -22 1t-21 1q-12 0 -28 4q-8 2 -16.5 10.5t-10.5 14.5l-231 551l-2 -2 l-219 -549q-4 -8 -9 -14q-8 -8 -16 -11q-16 -4 -29 -4q-4 0 -19.5 -1t-23.5 -1q-10 0 -25.5 1t-19.5 1q-18 0 -24.5 6.5t-6.5 18.5z" />
<glyph unicode="_" d="M-6 -299q0 33 8 49q10 18 27 19h962q14 0 25 -17q8 -14 8 -51q0 -35 -8 -49q-10 -16 -25 -17h-962q-18 0 -26.5 14.5t-8.5 51.5z" />
<glyph unicode="`" horiz-adv-x="595" d="M0 950zM131 1374q0 8 6 15q8 8 25 10q25 4 47 4q29 0 39 -2q20 -4 28 -6l19 -13q8 -6 16 -16l144 -231l10 -21q2 -6 -4 -12q-4 -4 -19 -8q-8 -2 -34 -2h-33q-4 0 -23 6q-8 4 -16 10q-2 2 -5 4t-5 5t-4 5l-181 234q-10 10 -10 18z" />
<glyph unicode="a" horiz-adv-x="980" d="M92 256q0 76 31 131t90 92q58 37 141 56q92 20 189 20h125v70q0 52 -13 92q-12 41 -34 65q-27 29 -64 41q-41 12 -96 13q-63 0 -109 -15q-55 -16 -86 -33q-8 -4 -21.5 -10t-22.5 -11t-17 -9q-23 -14 -35 -15q-6 0 -14.5 4.5t-10.5 12.5q0 2 -3 9t-5 11q-2 8 -2 26.5 t4 39.5q4 14 17 28q10 10 47 31q18 10 76 31q43 16 94 25q57 10 102 10q94 0 166 -23q66 -20 111 -65q41 -41 59 -105q20 -72 20 -147v-606q0 -12 -8 -18.5t-22 -8.5q-20 -4 -41 -4t-41 4q-18 4 -23 8q-8 8 -8 19v90q-59 -66 -131 -99q-76 -35 -154 -34q-68 0 -127 18 q-57 18 -98 53q-43 37 -63 86q-23 56 -23 117zM260 262q0 -66 45 -110q41 -41 125 -41q68 0 121 32q57 35 117 101v190h-142q-78 0 -118 -10q-45 -10 -82 -35q-33 -20 -49.5 -53t-16.5 -74z" />
<glyph unicode="b" horiz-adv-x="1075" d="M154 25v1337q0 8 2 12q4 6 14 10q9 3 25 7q10 2 40.5 2t40.5 -2q15 -3 25 -7q8 -2 12 -10t4 -12v-541q45 45 78 69.5t74 45.5q35 18 72 27q33 8 75 8q98 0 168 -39t113 -105q41 -61 64 -153q20 -84 20 -187q0 -119 -24.5 -211t-76 -159.5t-120.5 -100.5q-74 -35 -166 -34 q-47 0 -80 8q-43 10 -71.5 26.5t-69.5 49.5q-23 18 -74 69v-110q0 -6 -4 -15q-2 -4 -12 -8q-6 -2 -23 -6q-8 -2 -35 -2q-25 0 -35 2t-22 6q-10 4 -12 8.5t-2 14.5zM317 293q68 -82 132 -127q61 -43 129 -43q61 0 104 31q45 33 72 79q29 51 41 111q12 61 12 125q0 61 -10 133 q-8 57 -37 115q-23 47 -70 80q-43 31 -106 30q-37 0 -64 -8q-31 -9 -61 -31q-47 -33 -68 -53q-29 -29 -74 -84v-358z" />
<glyph unicode="c" horiz-adv-x="864" d="M90 465q0 135 33 227q35 98 88 158q51 57 133 90q72 29 166 29q49 0 84 -8q47 -10 74 -21q34 -12 61 -31q31 -20 39 -28q14 -14 16 -18.5t6.5 -16.5t4.5 -23q0 -4 1 -13t1 -15q0 -39 -11 -56q-8 -14 -20 -14q-14 0 -35 16q-2 2 -49 35q-31 22 -74 37q-45 16 -100 16 q-119 0 -182.5 -90t-63.5 -266q0 -84 17 -154q14 -59 49 -108q31 -43 78 -66q43 -20 106 -20q61 0 100 16.5t74 40.5q43 31 53 39q18 16 33 17q4 0 12 -5q4 -2 9 -12q6 -18 6 -24q0 -4 1 -15.5t1 -19.5q0 -6 -1 -15.5t-1 -13.5q0 -10 -4 -22q-2 -6 -6.5 -14.5t-14.5 -18.5 q-12 -12 -43 -31q-25 -14 -67 -33q-35 -14 -82 -24q-39 -8 -90 -8q-98 0 -173 30q-78 33 -126 94q-47 59 -76 152q-27 86 -27 207z" />
<glyph unicode="d" horiz-adv-x="1075" d="M96 465q0 117 25 209q27 96 74 159.5t122 100.5q74 37 166 37q80 0 146 -35q63 -33 129 -102v524q0 4 4 12t12 10q6 2 27 6q10 2 39 3q31 0 41 -3q15 -3 24 -6q10 -4 15 -10q4 -8 4 -12v-1333q0 -6 -4 -15q-2 -6 -11 -8q-12 -4 -22 -6t-35 -2t-35 2t-22.5 6t-14.5 8 q-4 8 -4 15v118q-70 -74 -147 -118q-76 -43 -166 -43q-100 0 -170 38q-72 41 -113 102.5t-63 153.5q-21 85 -21 189zM266 481q0 -61 10 -133q8 -57 37 -115q25 -49 70 -81q41 -29 109 -29q37 0 63 8q31 9 61 31q47 33 68 53q29 29 74 84v358q-70 86 -129 127q-61 43 -131 43 q-66 0 -107 -28q-45 -33 -72 -80q-29 -51 -40 -111q-13 -61 -13 -127z" />
<glyph unicode="e" horiz-adv-x="1017" d="M92 471q0 117 31 209q31 90 86 156q57 66 137 100q82 35 178 35q104 0 181 -35q74 -34 122 -92q51 -59 72 -135q23 -80 23 -164v-31q0 -39 -20.5 -55.5t-45.5 -16.5h-590q0 -70 17 -135q14 -59 49 -102q37 -45 92 -68q57 -23 135 -22q59 0 115 10q29 6 86 25q12 4 61 22 q27 10 35 10t12 -2t8.5 -10t4.5 -20q0 -4 1 -14.5t1 -16.5v-23q0 -4 -2 -9t-2 -7q0 -6 -5 -14q-2 -4 -8 -10.5t-32 -18.5q-29 -12 -70 -25q-49 -14 -100 -22q-49 -8 -121 -8q-113 0 -195 30q-80 29 -139 92q-59 61 -86 152q-31 102 -31 215zM266 563h490v13q0 123 -58 192 q-61 74 -180 74q-53 0 -106 -25q-47 -23 -78 -59q-25 -29 -47 -90q-17 -46 -21 -105z" />
<glyph unicode="f" horiz-adv-x="624" d="M37 883q0 23 2 30q4 16 6 23q2 8 10 12q4 2 15 2h127v94q0 102 16 162q18 72 53 111q35 41 92 63q53 20 127 21q25 0 70 -8q27 -4 49 -13q14 -4 25 -14q6 -6 10 -16q6 -18 6 -23v-33q0 -23 -2 -30q0 -2 -1 -9.5t-3 -9.5q-2 -4 -6 -8q-2 -2 -10 -2q-4 0 -17 4 q-6 2 -26.5 10t-34.5 11q-29 4 -47 4q-39 0 -64 -13q-29 -14 -43 -37q-16 -27 -22 -67t-7 -98v-99h201q8 0 12 -2q8 -4 11 -12q0 -2 3 -10l5 -13q2 -8 2 -30q0 -39 -8 -54q-10 -16 -25 -16h-201v-788q0 -4 -4 -13q-4 -6 -14 -10q-9 -3 -25 -6q-10 -2 -40 -2q-29 0 -39 2 q-20 4 -27 6q-8 2 -12 10t-4 13v788h-127q-14 0 -25 16q-8 15 -8 54z" />
<glyph unicode="g" horiz-adv-x="962" d="M53 -123q0 37 8 64q10 33 25 59q16 29 41 53q35 35 55 51q-43 23 -71 64q-25 37 -25 82q0 55 27 108q25 49 61 86q-31 37 -49 84q-18 46 -19 111q0 74 27 139q23 57 72 103q47 45 110 65q68 23 142 23q2 0 75 -6q35 -2 66 -13h272q16 0 27 -16q8 -14 8 -49t-10 -51.5 t-25 -16.5h-129q35 -39 50 -78q14 -41 14 -92q0 -76 -25 -137q-23 -57 -71 -102q-45 -41 -111 -64q-61 -20 -141 -20q-59 0 -105 14q-51 16 -78 37q-12 -12 -28 -41q-12 -23 -13 -53q0 -39 33 -60q35 -23 86 -24l236 -11q68 -3 123 -18q57 -16 98 -47q43 -33 63 -74 q23 -45 23 -104q0 -57 -27 -117q-25 -55 -80 -100q-49 -39 -135 -66q-83 -25 -196 -25q-108 0 -185 19q-78 18 -127 49q-45 29 -69 78q-23 45 -23 96zM215 -106q0 -63 65.5 -98.5t184.5 -35.5q80 0 125 15q55 16 82 39q33 27 45 55q12 31 12 65q0 57 -47 89q-47 33 -127 34 l-233 9q-31 -25 -54 -48q-18 -18 -32.5 -42.5t-16.5 -41.5q-4 -28 -4 -40zM264 641q0 -84 51 -139q49 -51 142 -51q49 0 84 14q33 14 59 43q23 25 35 63q12 37 12 76q0 88 -51 144q-49 51 -143 51q-45 0 -84 -17q-31 -12 -58 -43q-20 -23 -35 -65q-12 -37 -12 -76z" />
<glyph unicode="h" horiz-adv-x="1075" d="M154 25v1337q0 8 2 12q4 6 14 10q9 3 25 7q10 2 40.5 2t40.5 -2q15 -3 25 -7q8 -2 12 -10t4 -12v-541q72 76 143.5 113t145.5 37q90 0 152 -31q63 -31 98 -82q41 -59 55 -119q16 -72 17 -166v-548q0 -4 -4 -12.5t-13 -10.5q-9 -3 -24 -6q-10 -2 -41 -2t-41 2q-15 3 -25 6 q-8 2 -12 10t-4 13v528q0 77 -12 123q-12 47 -35 82q-20 31 -60 51q-37 18 -86 18q-59 0 -122 -45q-66 -47 -132 -129v-628q0 -4 -4 -12.5t-12 -10.5q-9 -3 -25 -6q-10 -2 -40.5 -2t-40.5 2q-15 3 -25 6q-10 4 -14 10q-2 5 -2 13z" />
<glyph unicode="i" horiz-adv-x="468" d="M133 1226.5q0 57.5 23 80.5q20 20 79.5 20t79.5 -20q23 -23 23 -78t-22.5 -78t-82 -23t-80 20.5t-20.5 78zM154 25v901q0 8 2 12q4 6 14 10q9 3 25 6q10 2 40.5 2t40.5 -2q15 -3 25 -6q8 -2 12 -10t4 -12v-901q0 -4 -4 -12.5t-12 -10.5q-9 -3 -25 -6q-10 -2 -40.5 -2 t-40.5 2q-15 3 -25 6q-10 4 -14 10q-2 5 -2 13z" />
<glyph unicode="j" horiz-adv-x="489" d="M-43 -287q0 6 1 16.5t1 14.5q0 10 4 23q0 4 8 10q4 4 13 4q10 0 22 -2t41 -2q31 0 57 10q20 8 37 30.5t23 59.5t6 109v940q0 4 4 12q4 6 14 10q9 3 25 6q10 2 41 2t41 -2q15 -3 24 -6q10 -4 15 -10q4 -8 4 -12v-940q0 -96 -16 -162q-14 -59 -48 -105q-29 -41 -81 -63 q-47 -20 -121 -21q-25 0 -54 5q-27 4 -34 8q-14 6 -17 12l-3 5q-3 5 -5 9q-2 6 -2 19v20zM154 1227q0 59 20.5 79.5t81.5 20.5q59 0 79.5 -20.5t20.5 -77.5q0 -55 -22.5 -78t-79.5 -23q-59 0 -79.5 21t-20.5 78z" />
<glyph unicode="k" horiz-adv-x="929" d="M154 25v1337q0 8 2 12q4 6 14 10q9 3 25 7q10 2 40.5 2t40.5 -2q15 -3 25 -7q8 -2 12 -10t4 -12v-815l340 375q12 12 19 16q12 8 20 10q25 6 29 6q6 0 20.5 1t22.5 1t21.5 -1t19.5 -1q14 0 27 -4q14 -4 16 -10q4 -8 4 -14q0 -12 -6 -25q-4 -8 -23 -27l-325 -325l366 -475 l19 -29q6 -9 6 -18q0 -6 -4 -15q-4 -6 -14.5 -10t-26.5 -6q-12 -2 -43 -2q-10 0 -24.5 1t-20.5 1q-12 0 -29 4q-14 4 -20 10q-4 4 -13 17l-381 497v-499q0 -4 -4 -12.5t-12 -10.5q-9 -3 -25 -6q-10 -2 -40.5 -2t-40.5 2q-15 3 -25 6q-10 4 -14 10q-2 5 -2 13z" />
<glyph unicode="l" horiz-adv-x="468" d="M154 25v1337q0 8 2 12q4 6 14 10q9 3 25 7q10 2 40.5 2t40.5 -2q15 -3 25 -7q8 -2 12 -10t4 -12v-1337q0 -4 -4 -12.5t-12 -10.5q-9 -3 -25 -6q-10 -2 -40.5 -2t-40.5 2q-15 3 -25 6q-10 4 -14 10q-2 5 -2 13z" />
<glyph unicode="m" horiz-adv-x="1634" d="M154 25v901q0 8 2 12q4 8 12 10q18 6 22.5 6t16.5 1t20.5 1t20.5 -1t16 -1t23 -6q8 -2 12 -10q2 -4 2 -12v-119q72 80 148 123q72 41 145 41q49 0 100 -15q45 -12 78 -36q41 -29 59 -56q25 -33 39 -71q41 45 86 81q37 33 78 56q37 22 74 31q41 10 72 10q86 0 145 -31 q61 -33 96 -82q35 -51 52 -119q16 -72 16 -145v-569q0 -4 -4 -13q-4 -6 -15 -10q-9 -3 -24 -6q-10 -2 -39 -2q-31 0 -41 2q-20 4 -27 6q-10 4 -14 10q-2 4 -2 13v546q0 53 -10 105q-8 45 -33 82q-20 33 -55 51q-34 18 -80 18q-53 0 -114.5 -45t-127.5 -129v-628q0 -4 -4 -13 q-4 -6 -14 -10q-9 -3 -25 -6q-10 -2 -41 -2q-29 0 -39 2q-20 4 -26 6q-8 2 -12.5 10t-4.5 13v546q0 66 -10 105q-14 53 -33 82q-20 33 -55 51q-34 18 -80 18q-53 0 -114.5 -45t-127.5 -129v-628q0 -4 -4 -12.5t-12 -10.5q-9 -3 -25 -6q-10 -2 -40.5 -2t-40.5 2q-15 3 -25 6 q-10 4 -14 10q-2 5 -2 13z" />
<glyph unicode="n" horiz-adv-x="1075" d="M154 25v901q0 8 2 12q4 8 12 10q18 6 22.5 6t16.5 1t20.5 1t20.5 -1t16 -1t23 -6q8 -2 12 -10q2 -4 2 -12v-119q74 82 151.5 123t153.5 41q90 0 152 -31q63 -31 98 -82q41 -59 55 -119q16 -72 17 -166v-548q0 -4 -4 -12.5t-13 -10.5q-9 -3 -24 -6q-10 -2 -41 -2t-41 2 q-15 3 -25 6q-8 2 -12 10t-4 13v528q0 77 -12 123q-12 47 -35 82q-20 31 -60 51q-37 18 -86 18q-59 0 -122 -45q-66 -47 -132 -129v-628q0 -4 -4 -12.5t-12 -10.5q-9 -3 -25 -6q-10 -2 -40.5 -2t-40.5 2q-15 3 -25 6q-10 4 -14 10q-2 5 -2 13z" />
<glyph unicode="o" horiz-adv-x="1079" d="M90 467q0 106 29 203q28 92 86 159q59 68 143 105q86 37 201 37t194 -33q84 -35 138 -96q53 -63 82 -154q27 -86 26 -203q0 -106 -28 -202q-28 -92 -87 -160t-143 -105q-86 -37 -200.5 -36.5t-194.5 32.5q-84 35 -137 97q-55 63 -82 151q-27 86 -27 205zM262 477 q0 -61 14 -137q12 -61 46 -115q29 -47 84 -75q53 -29 133 -29q72 0 125 24q49 23 86 74q37 49 51 113q14 59 14 141q0 76 -12 139q-10 57 -45 113q-31 49 -84 77.5t-131 28.5q-76 0 -127 -24q-49 -23 -86 -74q-37 -49 -51 -112q-17 -70 -17 -144z" />
<glyph unicode="p" horiz-adv-x="1075" d="M154 -332v1258q0 10 2 14t12 8q18 6 22.5 6t15.5 1t19 1t19.5 -1t15.5 -1t23 -6q10 -4 12 -8q4 -8 4 -14v-121q29 31 78 72q35 29 76 51q47 25 79 33q45 10 86 10q94 0 166 -39q68 -37 113 -105q41 -59 64 -153q20 -82 20 -185q0 -117 -25 -213q-23 -92 -75 -159 q-47 -63 -123 -101q-70 -35 -166 -34q-45 0 -76 8q-41 10 -65 24q-37 20 -66 43q-4 4 -68 62v-451q0 -6 -4 -14t-12 -10q-9 -3 -25 -6q-10 -2 -40.5 -2.5t-40.5 2.5q-15 3 -25 6q-10 4 -14 10q-2 4 -2 14zM317 295q70 -86 129 -127q63 -45 129 -45q63 0 107 31q45 33 72 79 q29 51 41 111q12 61 12 124.5t-10 135.5q-8 57 -37 115q-25 49 -68 80q-41 29 -106 28q-37 0 -64 -8q-35 -10 -63 -31q-47 -33 -68 -53q-29 -29 -74 -84v-356z" />
<glyph unicode="q" horiz-adv-x="1075" d="M96 465q0 117 25 209q27 96 74 159.5t122 100.5q74 37 168 37q37 0 74 -10q41 -12 70 -27q43 -25 71 -47q14 -12 41 -38l35 -34v111q0 6 4 14q2 4 15 8q18 6 22 6t15.5 1t19.5 1t19.5 -1t15.5 -1t22 -6q8 -2 11 -8q4 -8 4 -14v-1258q0 -6 -4 -14q-4 -6 -15 -10 q-9 -3 -24 -6q-10 -2 -39 -3q-31 0 -41 3q-20 4 -27 6q-8 2 -12 10t-4 14v461q-45 -45 -78 -69.5t-74 -45.5q-45 -23 -71 -26q-37 -6 -76 -6q-100 0 -166 38q-74 43 -113 103q-41 61 -63 153q-21 85 -21 189zM266 481q0 -61 10 -133q8 -57 37 -115q25 -49 70 -81 q41 -29 109 -29q37 0 63 8q31 9 61 31q47 33 68 53q29 29 74 84v358q-70 86 -129 127q-61 43 -131 43q-66 0 -107 -28q-45 -33 -72 -80q-29 -51 -40 -111q-13 -61 -13 -127z" />
<glyph unicode="r" horiz-adv-x="712" d="M154 25v901q0 8 2 12q4 8 12 10q18 6 22.5 6t16.5 1t20.5 1t20.5 -1t16 -1t23 -6q8 -2 12 -10q2 -4 2 -12v-131q37 55 70 88q37 37 61 53q31 20 60 27q37 8 57 8q4 0 13 -1t16 -1q4 0 10 -1t13 -3t11 -2q20 -4 33 -9q16 -6 21 -10q2 -2 5 -6l3 -4q2 -2 2 -10q0 -2 1 -9.5 t1 -11.5t1 -16.5t1 -20.5t-1 -20t-1 -17q0 -12 -4 -24q-2 -6 -8 -12q-4 -4 -13 -5q-2 0 -18 5q-4 0 -12.5 3l-14.5 5q-4 0 -15 4t-18 6q-12 2 -38.5 2t-49.5 -8q-8 -4 -49 -35q-27 -20 -55 -59q-43 -57 -66 -95v-591q0 -4 -4 -12.5t-12 -10.5q-9 -3 -25 -6q-10 -2 -40.5 -2 t-40.5 2q-15 3 -25 6q-10 4 -14 10q-2 5 -2 13z" />
<glyph unicode="s" horiz-adv-x="800" d="M82 131q0 25 2 33q0 4 1 10t3 10q2 8 8 11q8 4 13 4q10 0 32 -13l21 -12q20 -12 33 -18q35 -18 73 -29q51 -14 101 -14q39 0 75.5 10t59.5 27q27 20 37 43q14 33 14 63q0 39 -20 66q-14 18 -52 45q-29 20 -71 36q-23 8 -44.5 16.5l-37.5 14.5q-57 25 -84 39 q-41 23 -72 53q-35 35 -51 74q-20 47 -20.5 102.5t20.5 102.5q20 45 61 84t103 59q63 23 143 23q37 0 74 -6q29 -4 63 -17q37 -12 51 -18q22 -9 31 -19q10 -10 13 -14q6 -12 6 -14t1 -8.5t1 -10.5t1 -12t1 -14.5t-1 -15.5t-1 -13q0 -8 -4 -21q-4 -10 -9 -12q-8 -4 -12 -4 q-6 0 -24 12q-10 8 -46 23q-31 14 -63 24q-31 10 -84 11q-39 0 -74 -11q-31 -10 -51 -26q-23 -18 -31 -41q-12 -33 -12 -51q0 -39 21 -66q16 -23 53 -47q29 -20 72 -37l83 -33l84 -36q45 -23 74 -52q37 -37 51 -71q20 -47 21 -101q0 -63 -27 -123q-25 -53 -71 -92 q-45 -37 -113 -55q-66 -18 -143 -18q-47 0 -91 6q-39 6 -79 20q-45 16 -58 23q-14 6 -35 22q-8 6 -16 29q-4 12 -4 49z" />
<glyph unicode="t" horiz-adv-x="684" d="M33 883q0 23 2 30q2 4 5 12.5t3 10.5q2 8 10 12q4 2 15 2h125v215q0 8 2 13q4 6 14 10q9 3 24 6q10 2 41 2t41 -2q15 -3 25 -6q8 -2 12 -10.5t4 -12.5v-215h232q10 0 14 -2q8 -4 10 -12q2 -6 6 -23q2 -8 3 -30q0 -39 -9 -54q-10 -16 -24 -16h-232v-502q0 -92 29 -139 t98 -47q16 0 41 4q18 2 31 8q4 2 12 5l13 5q12 4 18 5q8 0 10 -2.5t6 -10.5q0 -2 1 -5l2 -6t1 -7q2 -8 3 -31q0 -20 -5 -45q-2 -14 -12 -25q-12 -12 -22 -16q-18 -8 -37 -10q-8 -2 -22.5 -4t-20.5 -4q-14 -2 -47 -2q-70 0 -119 18q-51 20 -82 55q-33 39 -47 94.5t-14 137.5 v524h-127q-12 0 -22.5 16.5t-10.5 53.5z" />
<glyph unicode="u" horiz-adv-x="1075" d="M147 379v547q0 4 5 12q4 6 14 10q18 6 24 6q4 0 18.5 1t23 1t21.5 -1t17 -1q8 0 27 -6q8 -2 12 -10t4 -12v-525q0 -82 13 -127q14 -53 34 -81q25 -33 60 -52q37 -18 84 -18q59 0 123 45q66 47 131 129v629q0 4 4 12t12 10q18 6 27 6q4 0 18.5 1t22.5 1t21.5 -1t17.5 -1 q6 0 24 -6q10 -4 15 -10q4 -8 4 -12v-901q0 -4 -4.5 -12.5t-12.5 -10.5q-12 -4 -22.5 -6t-34.5 -2q-29 0 -39 2t-23 6q-8 2 -12 10q-2 4 -2 13v118q-70 -80 -151 -123q-72 -39 -154 -38q-92 0 -150 28q-66 33 -100 82q-41 57 -55 121q-17 72 -17 166z" />
<glyph unicode="v" horiz-adv-x="923" d="M35 928q0 4 4 12t12 10q12 4 25 4q4 0 17 1t22 1q10 0 25.5 -1t21.5 -1q8 0 26 -6q10 -4 15 -10l3 -5q3 -5 5 -9l254 -742l4 -12l2 12l252 742q4 12 6 14q8 8 16 10q18 6 25 6q4 0 18.5 1t24.5 1q8 0 21.5 -1t17.5 -1q10 0 22 -4q8 -2 12.5 -10t4.5 -12v-10l-1 -4 q-1 -3 -1 -5t-1 -6t-1 -6q0 -4 -4 -12l-308 -854q-2 -10 -10 -19q-10 -10 -18 -12q-16 -4 -35 -4q-6 0 -22.5 -1t-26.5 -1q-35 0 -49 2q-18 2 -32.5 6t-21 10t-10.5 19l-307 854q-2 8 -6 20q-2 6 -2 15v8z" />
<glyph unicode="w" horiz-adv-x="1462" d="M53 928q0 6 4 14q2 4 13 8q12 4 26 4q4 0 17.5 1t21.5 1q10 0 24.5 -1t20.5 -1q14 0 27 -4q8 -2 12 -10q2 -4 6 -16l217 -742l2 -10l2 10l199 742l8 16q4 8 13 10q12 4 24 4q4 0 18.5 1t22.5 1t21.5 -1t17.5 -1q12 0 25 -4q10 -4 14 -10q2 -2 3 -7t1 -7l215 -744l2 -10 l2 10l213 742l8 16q4 8 13 10q12 4 26 4q4 0 19.5 1t23.5 1t21.5 -1t17.5 -1q10 0 23 -4q8 -2 12 -10q2 -4 2 -12q0 -12 -2 -19q0 -2 -2 -10t-4 -14l-264 -854q-2 -10 -11 -19q-10 -10 -18 -12q-16 -4 -31 -4q-6 0 -23.5 -1t-27.5 -1q-37 0 -51 2q-18 2 -33 6q-10 2 -18 10 q-6 6 -11 19l-188 651l-2 10l-2 -10l-174 -651q-2 -10 -10 -19q-10 -10 -21 -12q-16 -4 -33 -4q-6 0 -23.5 -1t-27.5 -1q-37 0 -49 2q-25 4 -33 6q-10 2 -18 10q-2 4 -8 19l-265 854q-2 6 -4 14t-2 10q-2 7 -2 19z" />
<glyph unicode="x" horiz-adv-x="886" d="M41 20q0 6 10 23l281 440l-266 422q-8 14 -8.5 24.5t8.5 16.5q6 4 30 8q12 2 51 2q10 0 24.5 -1t21.5 -1q16 0 28 -4q8 -4 15 -8q8 -8 10 -12l205 -334l206 334l11 10q8 10 12 10q12 4 25 4q4 0 18 1t25 1q35 0 47 -2q18 -4 26 -8q8 -6 8 -14q0 -10 -10 -27l-262 -418 l279 -444q8 -14 8 -23q0 -10 -10 -16q-6 -4 -29 -8q-12 -2 -51 -2q-12 0 -26.5 1t-20.5 1q-16 0 -29 4q-10 4 -16 10q-4 4 -9 13l-217 356l-215 -356q-4 -8 -8 -13q-8 -6 -16 -10q-12 -4 -27 -4q-6 0 -20.5 -1t-24.5 -1q-37 0 -49 2q-18 4 -27 8q-8 6 -8 16z" />
<glyph unicode="y" horiz-adv-x="925" d="M35 926q0 12 8 18q12 8 24.5 10t49.5 2q10 0 26.5 -1t20.5 -1q8 0 26 -6q10 -4 15 -10q0 -2 3 -9t5 -11l258 -723h2l250 727q6 18 14 24t25 8q12 2 49 2q33 0 45 -2q14 -2 27 -10q10 -6 10 -18.5t-6 -30.5l-324 -895l-121 -332q-6 -15 -30 -24q-23 -8 -74 -9q-31 0 -41 3 q-12 2 -25 10q-10 6 -10 14q0 14 4 25l125 313q-6 2 -16 12q-8 8 -13 21l-319 860q-8 19 -8 33z" />
<glyph unicode="z" horiz-adv-x="808" d="M88 61v33q0 18 2 27q0 4 2 10t4 10l13 25q4 8 16 29l397 616h-385q-16 0 -26 18q-8 14 -9 54q0 23 2 30q4 16 7 23q2 8 10 12q4 2 16 2h516q12 0 18.5 -2t14.5 -10t10 -18q4 -16 4 -27v-33q0 -18 -2 -26q-2 -4 -4 -11.5t-2 -11.5q-2 -8 -10 -25q-2 -4 -9 -14t-9 -14 l-396 -619h422q6 0 15 -4q10 -6 12 -10q0 -2 3 -10.5t5 -12.5q2 -8 2 -32.5t-2 -32.5q-2 -4 -5 -11.5t-3 -9.5q-2 -8 -10.5 -12t-16.5 -4h-553q-23 0 -35 14q-14 18 -14 47z" />
<glyph unicode="{" horiz-adv-x="643" d="M86 565q0 6 1 14.5t1 12.5q0 10 4 18q4 6 10 11q8 4 15 6q76 10 110 71q37 63 37 187v162q0 96 10 167q8 63 35 109q25 41 68 63q45 23 108 23q6 0 16.5 -1t14.5 -1q6 0 31 -4q6 0 14 -4q6 -4 10 -10q3 -6 7 -19q2 -8 2 -27q0 -20 -2.5 -28l-6.5 -21q-2 -6 -10 -10 t-14 -4h-41q-25 0 -41 -8q-20 -10 -29 -33q-10 -29 -16 -68q-4 -29 -4 -133v-145q0 -78 -8 -125q-10 -57 -29 -92q-20 -39 -55 -70q-31 -29 -86 -41q53 -10 86 -39q35 -33 55 -71q18 -39 29 -93q8 -47 8 -124v-191q0 -102 4 -131q6 -39 16 -68q8 -23 27 -32q16 -10 39 -11 h43q6 0 14 -4q10 -4 12 -10q3 -6 7 -18q2 -8 2 -28.5t-2 -29.5q-3 -12 -7 -18t-10 -10q-8 -4 -12 -4l-31 -5h-33q-70 0 -110 21q-43 20 -68 65q-27 45 -35 107q-8 57 -8 170v205q0 72 -8 110q-10 45 -27 74q-20 35 -45 51q-29 20 -65 23q-12 4 -16.5 6t-8.5 10q-3 6 -6 19 q-2 8 -2 26z" />
<glyph unicode="|" horiz-adv-x="942" d="M393 -334v1737q0 4 4 12t13 10q9 3 24 7q10 2 37 2q29 0 39 -2t22 -7q8 -2 12.5 -10t4.5 -12v-1737q0 -4 -4 -12t-13 -10q-12 -4 -22 -6.5t-39 -2.5q-27 0 -37 3q-15 3 -24 6q-8 2 -12.5 10t-4.5 12z" />
<glyph unicode="}" horiz-adv-x="643" d="M117 -256q0 10 4 27q2 8 6 20q2 6 10 10t15 4h43q20 0 41 11q14 6 26 32q10 20 17 66q6 43 6 133v146q0 82 8 133q10 63 29 106q23 53 53 86q31 35 86 47q-47 8 -86 33q-31 18 -53 55q-18 29 -29 78q-8 39 -8 119v188q0 90 -6 133q-6 45 -15 66q-8 23 -28 35q-14 8 -39 8 h-39q-10 0 -19 4q-4 2 -12 10q-4 4 -8 19q-2 8 -2 30q0 18 2 27q0 4 8 19q4 6 10 10q8 4 17 4q25 4 28.5 4t15 1t17.5 1q63 0 109 -23q43 -23 67 -63q27 -45 35 -106q10 -72 10 -170v-207q0 -72 8 -103q10 -39 27 -57q20 -25 45 -35q29 -12 66 -18q6 0 14 -4q6 -4 10 -11 q6 -12 6 -18v-27v-26q0 -6 -6 -19q-4 -8 -8 -10q-8 -4 -14 -4q-41 -2 -72 -31q-25 -23 -45 -65q-18 -39 -25 -90q-6 -49 -6 -121v-160q0 -98 -10 -170q-8 -61 -35 -107q-25 -45 -67 -65q-41 -20 -109 -21h-33q-4 0 -32 5q-4 0 -13 4q-6 4 -10 10q-3 6 -6 18q-4 17 -4 29z " />
<glyph unicode="~" d="M61 825v27q0 70 19 121q16 49 53 88q29 33 82 53q47 18 102 19q43 0 84 -11q35 -8 62 -26q31 -20 49 -39q2 -2 39 -45q10 -12 17 -22.5t16 -20.5q10 -14 34 -35q20 -16 39 -25q25 -10 50 -10q29 0 57 14q23 12 39 37q14 23 20 56q8 41 8 69q0 14 16.5 20.5t49.5 6.5 q6 0 16.5 -1t14.5 -1q8 0 20 -4q8 -2 13 -11q2 -4 2 -16v-33q-2 -66 -25 -118q-20 -49 -57 -87q-31 -31 -82 -51q-41 -16 -94 -16q-45 0 -82 10q-39 10 -64 27q-18 12 -47 41q-2 2 -39 45l-35 43q-16 20 -35 35q-20 16 -38.5 24t-49.5 8q-35 0 -57 -14q-25 -14 -39 -39 q-14 -23 -20 -53.5t-6 -67.5q0 -16 -18.5 -22t-47.5 -6q-25 0 -33 2q-16 4 -20 6q-8 4 -10.5 8t-2.5 14z" />
<glyph unicode="&#xa1;" horiz-adv-x="665" d="M402.032 1078.01q0 -26.9971 -3.99902 -55.9932q-4 -19.998 -16.998 -34.9961q-11.999 -11.998 -31.9961 -17.9971q-13.998 -4 -51.4941 -4q-37.4951 0 -51.4932 4q-19.998 5.99902 -32.9961 17.9971q-11.999 13.999 -15.998 34.9961q-4 28.9961 -4 55.4932t4 55.4932 q3.99902 19.998 15.998 34.9961q11.998 11.998 32.9961 17.998q20.9971 5.99902 51.4932 5.99902t50.9941 -5.99902q20.4971 -6 32.4961 -17.998q11.998 -13.998 16.998 -34.9961q3.99902 -27.9961 3.99902 -54.9932zM387.034 -144.838q0 -13.998 -2 -20.998 q-1.99902 -7.99805 -13.998 -15.998q-5.99902 -3.99902 -28.9961 -7.99805q-11.999 -2 -44.9951 -2q-19.9971 0 -44.9941 3.99902q-22.9971 4 -27.9961 7.99902q-11.999 7.99902 -14.999 13.998q-3.99902 11.999 -3.99902 20.998l18.998 953.884q0 9.99805 1.99902 14.998 q4 5.99902 13.999 9.99902q11.998 3.99902 21.9971 5.99902h34.9951h34.9961q9.99902 -2 22.9971 -5.99902q7.99902 -2 11.999 -10.499q3.99902 -8.49902 3.99902 -14.498z" />
<glyph unicode="&#xa2;" d="M184 633q0 109 27 203q27 92 70 149q45 59 106 96q57 35 135 47v148q0 4 4 12t13 10l22 7q8 2 35 2q25 0 35 -2t22 -7q8 -2 13 -10q2 -4 2 -12v-143q31 -4 57 -13q37 -12 55 -20q23 -10 49 -27q23 -14 35.5 -26.5t16.5 -20.5q0 -2 3 -6t5 -8q4 -12 4 -23q0 -4 1 -13 t1 -15.5t-1 -14.5t-1 -12t-6 -23q-2 -6 -10 -14q-6 -6 -17 -6q-18 0 -35 16q-23 23 -47 37q-31 18 -73 37q-39 16 -105 16q-51 0 -94 -18q-45 -18 -78 -61q-35 -45 -53 -111q-18 -68 -19 -166q0 -92 19 -160q16 -59 55 -108q33 -41 82 -62q45 -18 104 -18q57 0 97 16 q41 18 71 39q20 14 50 39q23 18 33 18.5t12 -4.5l8 -16q4 -12 4 -25q0 -4 1 -15t1 -17q0 -18 -6 -49q-4 -18 -15 -29q-12 -12 -32 -27q-29 -20 -47 -28q-37 -16 -58 -23q-39 -12 -67 -16v-148q0 -8 -2 -12q-4 -8 -13 -10q-12 -4 -22 -6.5t-35 -2.5t-35 2.5t-22 6.5 q-8 2 -13 10q-2 4 -2 12v146q-170 23 -254 141q-86 123 -86 338z" />
<glyph unicode="&#xa3;" horiz-adv-x="1036" d="M948 70q0 -25 -2 -33q-4 -12 -8 -21q-6 -9 -12 -12q-8 -4 -13 -4h-794q-6 0 -15 4q-2 2 -10 12q-4 8 -8 21q-4 16 -4 33q0 23 2 30q4 16 8 23q6 9 12 12q8 4 15 4h122v455h-122q-10 0 -15 2q-2 2 -10 12q-4 8 -8 21q-4 16 -4 33q0 20 2 28q4 16 8 23q6 9 12 12q4 2 15 2 h122v121q0 125 27 211q27 88 80 143q55 59 125 82q80 27 164 27q29 0 82 -8q33 -6 75 -21q34 -12 62 -31q37 -25 41 -28q10 -10 18 -23q6 -8 8 -16q4 -12 5 -23v-31q0 -20 -2 -28q-4 -16 -7 -23q-4 -10 -8 -12q-8 -4 -12 -4q-18 0 -35 16q-8 8 -49 37q-23 16 -72 37 q-39 16 -102 16q-61 0 -103 -20q-47 -23 -71 -59q-27 -39 -43 -101q-14 -55 -15 -135v-127h328q12 0 16 -2q8 -4 11 -12q2 -6 6 -22.5t4 -28.5q0 -16 -4 -33q-4 -12 -8 -21q-8 -10 -11 -12q-4 -2 -14 -2h-328v-455h504q6 0 15 -4q6 -3 12 -12q0 -2 6 -23q2 -7 2 -30z" />
<glyph unicode="&#xa4;" d="M66 1096q-4 12 4 20q8 6 22 10q20 4 45 4q8 0 22.5 -1t18.5 -1q10 0 27 -4q12 -3 18 -6q2 -2 10 -12l107 -170q41 20 80 29q47 10 96 10q43 0 90 -10.5t76 -28.5l109 172q0 2 10 12q4 4 16 8.5t27 4.5q4 0 19.5 1t23.5 1q23 0 43 -5q18 -4 24.5 -12t1.5 -20l-14 -29 l-143 -211q40 -49 61 -117q23 -72 23 -151q0 -78 -27 -154q-25 -68 -76 -127l146 -209q12 -16 14 -28q4 -12 -4 -21q-6 -6 -23 -10q-20 -4 -45 -4h-41q-10 0 -26 4q-10 2 -17 8l-5 4q-5 4 -7 8l-106 170q-37 -20 -78 -28q-47 -10 -90 -10q-47 0 -84 6t-70 22l-106 -170 q-4 -6 -10.5 -12t-16.5 -8q-16 -4 -29 -4h-41q-33 0 -43 2q-16 4 -24 12q-6 6 -4 18q4 16 14 29l141 207q-43 47 -69 121q-25 72 -25 157.5t25 157.5q23 66 69 123l-145 213q-12 17 -14 29zM285 592q0 -63 12 -113q12 -47 41 -86q25 -33 70 -55q41 -20 104 -21q57 0 96 21 q40 22 68 55q25 31 39 82q14 53 14 100q0 55 -12 105q-14 53 -39 88q-29 39 -70 59q-45 23 -102 23q-53 0 -96 -19q-37 -16 -70 -55q-23 -29 -41 -82q-14 -43 -14 -102z" />
<glyph unicode="&#xa5;" horiz-adv-x="1036" d="M55 1268q-4 14 4 20q12 8 29 10q14 2 53 2q10 0 24.5 -1t20.5 -1q12 0 29 -4q8 -2 16.5 -10t12.5 -14l149 -269l68 -129l65 -129l66 129q20 43 65 129l150 269q4 8 8 14q8 6 16 10q12 4 27 4q6 0 20.5 1t24.5 1q39 0 51 -2q16 -2 24.5 -10t4.5 -20q-2 -10 -16 -35 l-363 -619v-55h277q14 0 22 -14.5t8 -44.5q0 -35 -10 -49q-8 -12 -20 -13h-277v-157h277q14 0 22 -14.5t8 -47.5t-10 -47q-8 -12 -20 -12h-277v-135q0 -6 -4 -15q-2 -4 -12 -8q-8 -2 -29 -6q-12 -2 -41 -2q-31 0 -41 2q-20 4 -26 6q-12 4 -15 8q-4 8 -4 15v135h-274 q-14 0 -23 12q-8 10 -8 47q0 33 8 47.5t23 14.5h274v157h-274q-14 0 -23 13q-8 10 -8 49q0 31 8 45t23 14h274v55l-360 619q-15 25 -17 35z" />
<glyph unicode="&#xa6;" d="M430 313q0 4 4 12.5t12 10.5q9 3 25 6q10 2 37 2q29 0 39 -2t22 -6q8 -2 12.5 -10.5t4.5 -12.5v-673q0 -4 -4 -12.5t-13 -10.5q-12 -4 -22 -6t-39 -2q-27 0 -37 2q-15 3 -25 6q-8 2 -12 10t-4 13v673zM430 760v661q0 6 4 14.5t12 10.5q9 3 25 6q10 2 37 2q29 0 39 -2 t22 -6q8 -2 12.5 -10.5t4.5 -14.5v-661q0 -6 -4 -14.5t-13 -10.5q-18 -6 -22 -6t-17.5 -1t-21.5 -1t-20.5 1t-16.5 1q-6 0 -25 6q-8 2 -12 10.5t-4 14.5z" />
<glyph unicode="&#xa7;" d="M119 604q0 43 12 82q12 37 35 74q18 29 55 65q33 31 72 54q-37 33 -60 86q-20 47 -20 112.5t23 110.5q27 53 67 86q45 35 102.5 53.5t131.5 18.5q39 0 75 -7q20 -4 64 -16q33 -10 51 -20q25 -14 29 -19l10 -10q2 -2 3 -7t1 -7q4 -12 4 -21v-27q0 -23 -2 -30 q0 -4 -1 -10.5t-3 -10.5q-2 -8 -8 -10q-8 -4 -12 -4q-10 0 -23 10q-14 10 -41 25q-25 12 -61.5 24.5t-85.5 12.5q-43 0 -74 -13q-27 -10 -47.5 -30.5t-28.5 -40.5q-8 -23 -8 -48q0 -33 10 -63q8 -25 33 -49q27 -27 57 -43q20 -10 84 -39l86 -35q47 -18 109 -53 q49 -27 82 -64q31 -35 51 -84q18 -47 18 -106q0 -43 -12 -82q-12 -41 -35 -76q-18 -29 -55 -65q-31 -31 -70 -54q41 -41 58 -81q20 -51 20 -105q0 -70 -27 -123q-28 -55 -73 -92q-49 -39 -113 -57q-66 -18 -143 -19q-49 0 -97 10q-57 12 -79 21q-25 8 -56 27q-25 14 -30 20 q-4 4 -9 12l-6 13q-4 12 -4 20v27q0 23 2 31t6 20q4 10 9 12q8 4 12 4q10 0 33 -14q25 -16 49 -29q45 -23 73 -30q43 -12 105 -13q41 0 72 9q37 10 59 26q25 18 37 45q12 29 12 66t-8 59q-10 27 -33 49q-16 16 -57 39q-20 10 -84 39l-88 35q-47 18 -109 53q-45 25 -79.5 64 t-53.5 84q-16 40 -16 108zM283 616q0 -31 10 -61q9 -28 31 -49q23 -23 53 -41q25 -14 76 -37l84 -35q16 -6 45 -18q6 -2 41 -23q65 28 92 80q29 53 28 107q0 66 -41 110q-37 41 -127 76l-83 35q-10 4 -28 12t-20 8q-20 8 -41 21q-57 -27 -90 -78q-30 -50 -30 -107z" />
<glyph unicode="&#xa8;" horiz-adv-x="802" d="M0 950zM131 1214q0 51 21 76q18 20 73.5 20.5t73.5 -20.5q18 -22 18 -73q0 -55 -18 -74q-20 -20 -76 -21q-53 0 -71 19q-21 20 -21 73zM485 1214q0 51 21 76q18 20 73.5 20.5t73.5 -20.5q18 -22 19 -73q0 -53 -20.5 -74t-74 -21t-71.5 19q-21 20 -21 73z" />
<glyph unicode="&#xa9;" horiz-adv-x="1708" d="M174 666q0 178 45 323q43 137 129 230q82 88 213 135t295 47q172 0 301 -47q131 -47 211 -131q86 -90 125 -215q41 -133 41 -291q0 -184 -45 -330q-43 -137 -131 -229q-86 -90 -213 -133q-125 -43 -293 -43q-172 0 -297 43q-127 43 -211 127q-82 82 -127 215 q-43 129 -43 299zM309 676q0 -144 31 -252q31 -109 98 -182q66 -72 170.5 -109t253.5 -37q152 0 258 47q102 45 164 129q63 86 90 192.5t27 240.5q0 127 -31 245q-27 106 -94 183q-61 70 -172 112q-102 39 -258 39q-139 0 -238 -39q-102 -41 -168 -115q-63 -72 -98 -190 q-33 -110 -33 -264zM500 682q0 113 28 203q27 82 78 139q43 49 119 80q66 27 149 26q39 0 76 -6q25 -4 66 -20q27 -10 55 -29q27 -16 37 -26q12 -12 14 -17q4 -8 6 -14q4 -12 5 -19v-24q0 -16 -3 -25q0 -4 -1 -9t-3 -9q-4 -12 -8 -14q-8 -4 -14 -5q-18 0 -35 15q-6 6 -43 33 q-23 16 -61 32q-35 14 -93 15q-104 0 -163 -82q-57 -78 -58 -236q0 -84 15 -139q16 -63 45 -100q31 -39 71 -58q43 -18 101 -18q53 0 88 14q31 12 63 35q6 4 43 35q16 14 33 14q8 0 10 -2q4 -4 6 -10q4 -12 4 -23q0 -4 1.5 -14t1.5 -16.5t-1.5 -13.5t-1.5 -11 q0 -14 -2 -20.5t-6 -14.5q-2 -4 -12 -14q-12 -12 -35 -27q-29 -18 -55 -28q-35 -14 -72 -23q-35 -8 -86 -8q-86 0 -155 28q-68 29 -115 84q-45 53 -70 136q-22 73 -22 186z" />
<glyph unicode="&#xaa;" horiz-adv-x="823" d="M115 407.5q0 34.5 8 49.5q8 12 27 12h493q18 0 27 -12q10 -16 10 -49t-10 -50q-8 -14 -27 -14h-493q-18 0 -26.5 14.5t-8.5 49zM117 811q0 53 20 92q23 41 62 65.5t100 37.5q68 14 133 14h90v41q0 31 -6 55q-6 23 -24 41q-15 15 -43 25q-25 8 -66 8q-37 0 -74 -10.5 t-57 -20.5q-8 -4 -21.5 -12t-19.5 -10q-16 -8 -25 -9q-16 0 -24 16.5t-8 49.5v23q0 2 6 14q2 4 10 12q4 4 37 21q23 10 82 28q49 14 117 15q82 0 124 -17q53 -20 82 -49t45 -76q14 -41 15 -100v-420q0 -6 -4 -10q-2 -2 -11 -6q-6 -3 -18 -6q-8 -2 -29 -2q-25 0 -32 2 q-16 4 -20.5 6t-8.5 6t-4 10v55h-2q-35 -41 -88.5 -65.5t-112.5 -24.5q-49 0 -92 13q-37 10 -72 39q-31 25 -47 63q-14 35 -14 86zM268 815q0 -45 29 -70q27 -25 78 -24q29 0 41 4q18 6 35 14q12 6 34 25l37 37v123h-86q-35 0 -76 -9q-35 -6 -53 -20q-20 -14 -28 -35 q-11 -25 -11 -45z" />
<glyph unicode="&#xab;" horiz-adv-x="1048" d="M117 522q0 23 14 43l217 346q4 6 12 15q4 4 15 8q12 4 22 4h35q29 0 39 -2q16 -2 23 -10q8 -8 8 -14.5t-6 -18.5l-213 -373l213 -373q6 -9 6 -18q0 -10 -6 -16q-4 -6 -21 -9q-20 -4 -41 -4q-8 0 -19.5 1t-15.5 1q-10 0 -22 4q-8 4 -15 9l-5 4q-5 4 -7 8l-221 352 q-12 21 -12 43zM485 522q0 18 17 41l213 330q2 2 5 6t5 6q4 4 14 8q12 4 25 5h35q31 0 41 -3q18 -4 22 -8q8 -8 8 -12q0 -10 -6 -18l-215 -355l219 -360q6 -10 6 -19q0 -6 -6 -12q-2 -2 -24 -6q-10 -2 -39 -2h-37q-12 0 -25 4q-6 2 -14 6q-4 2 -10 12l-219 336 q-15 21 -15 41z" />
<glyph unicode="&#xac;" d="M61 573q0 23 2 31q2 4 5.5 12.5t3.5 10.5q2 8 10 12t14 4h756q39 0 53 -14q16 -16 17 -54v-253q0 -6 -4 -15q-4 -10 -13 -12q-12 -4 -22.5 -6t-34.5 -2q-23 0 -33 2t-22 6q-10 4 -14.5 12t-4.5 15v180h-678q-6 0 -14 4q-10 4 -12 12q-2 6 -7 23q-2 7 -2 32z" />
<glyph unicode="&#xad;" horiz-adv-x="626" d="M70 506q0 37 8 51q10 16 26 16h418q6 0 15 -4q10 -6 12 -10q2 -6 6 -22q2 -8 2 -31q0 -41 -8 -55.5t-27 -14.5h-418q-18 0 -26 14.5t-8 55.5z" />
<glyph unicode="&#x2010;" horiz-adv-x="626" d="M70 506q0 37 8 51q10 16 26 16h418q6 0 15 -4q10 -6 12 -10q2 -6 6 -22q2 -8 2 -31q0 -41 -8 -55.5t-27 -14.5h-418q-18 0 -26 14.5t-8 55.5z" />
<glyph unicode="&#xae;" horiz-adv-x="1036" d="M127 1018q0 83 31 153t84 123q49 49 125 82q71 31 153 31q84 0 158 -29q71 -28 123 -80t80 -122q29 -74 28 -156q0 -83 -30 -154q-31 -72 -82 -123q-53 -53 -125 -84q-70 -31 -156 -30.5t-156 30.5q-76 33 -122 80q-52 52 -80 123q-31 78 -31 156zM217 1022 q0 -66 23 -127q20 -53 63 -100q39 -43 94 -64q57 -23 119 -22q70 0 125 24q59 27 96 66q41 45 62 96q20 53 20 119q0 68 -22 129q-20 57 -62 100q-37 41 -96 64q-53 20 -119 20q-72 0 -123 -22q-57 -25 -96 -68q-41 -45 -61 -96q-23 -58 -23 -119zM360 834v360 q0 20 12.5 32.5t33.5 12.5h114q39 0 70 -6t53 -23q20 -14 33 -36q10 -18 10 -54q0 -45 -27 -76q-20 -23 -69 -36q25 -10 45 -26.5t37 -57.5l22 -64l4 -12t3 -10t1 -7l-1 -4l-1 -4q0 -4 -8 -4q-2 0 -7 -2t-9 -2h-31h-27q-8 0 -16 4q-4 2 -10 8q-3 3 -6 13l-21 67 q-12 37 -28 54q-14 14 -50 14h-26v-141q0 -10 -10 -15q-12 -4 -39 -4q-29 0 -41 4q-11 5 -11 15zM461 1051h43q41 0 57.5 16t16.5 41q0 14 -3 20q-4 12 -12 19q-12 8 -22 10q-20 4 -35 4h-45v-110z" />
<glyph unicode="&#xaf;" horiz-adv-x="806" d="M0 950zM131 1229q0 23 2 31q3 12 6 18q4 10 11 12q4 2 16 2h477q10 0 14 -2q6 -2 11 -12q3 -6 6 -18q2 -8 2 -31q0 -20 -2 -28.5t-6 -20.5q-2 -8 -10.5 -12.5t-14.5 -4.5h-477q-8 0 -16.5 4t-10.5 13q-4 12 -6 20.5t-2 28.5z" />
<glyph unicode="&#x2c9;" horiz-adv-x="806" d="M0 950zM131 1229q0 23 2 31q3 12 6 18q4 10 11 12q4 2 16 2h477q10 0 14 -2q6 -2 11 -12q3 -6 6 -18q2 -8 2 -31q0 -20 -2 -28.5t-6 -20.5q-2 -8 -10.5 -12.5t-14.5 -4.5h-477q-8 0 -16.5 4t-10.5 13q-4 12 -6 20.5t-2 28.5z" />
<glyph unicode="&#xb0;" horiz-adv-x="692" d="M0 1294zM102 1124q0 47 20.5 94.5t51.5 75.5q34 31 80 49q45 18 96 19q53 0 96 -19q53 -23 76 -45q35 -37 51 -71q18 -43 19 -94q0 -49 -19 -93q-16 -39 -53 -75q-31 -31 -78 -50q-45 -18 -100 -18q-51 0 -96 16.5t-76 47.5q-33 33 -49 71q-19 43 -19 92zM227 1130.5 q0 -30.5 9 -53.5q6 -16 26 -41q12 -16 39 -26q18 -8 47 -9q23 0 47 11q23 10 37 26.5t25 40.5q8 18 8 49q0 29 -8 52q-6 16 -27 41q-14 16 -37 26q-18 8 -49 8q-27 0 -45 -8q-27 -10 -39 -26q-14 -16 -24 -41q-9 -19 -9 -49.5z" />
<glyph unicode="&#xb1;" d="M76 721q0 23 2 31q4 12 8 20q6 9 12 12q8 4 15 4h323v363q0 4 4 12t13 11l8 3q8 3 14 5q10 2 35 2t33 -2q4 -2 12 -5t10 -3q8 -2 12.5 -10.5t4.5 -12.5v-363h325q6 0 15 -4q6 -3 12 -12q4 -8 8 -20q2 -8 2 -31q0 -41 -10 -55q-10 -16 -27 -17h-325v-360q0 -4 -4.5 -12.5 t-12.5 -10.5q-6 -2 -22 -6q-8 -2 -33 -2t-35 2t-22 6q-8 2 -12.5 10.5t-4.5 12.5v360h-323q-16 0 -27 17q-10 14 -10 55zM84 70q0 25 2 32q2 4 5 12.5t3 10.5q2 8 12 12q8 4 15 4h782q6 0 15 -4q4 -2 10 -12q4 -6 8 -23q2 -8 2 -32.5t-2 -32.5q-2 -12 -10 -22.5t-11 -12.5 q-4 -2 -14 -2h-780q-10 0 -14.5 2t-10.5 12q-4 6 -8 23t-4 33z" />
<glyph unicode="&#xb2;" horiz-adv-x="686" d="M614 780.5q0 -27.5 -6 -42.5q-6 -16 -18 -17h-471q-12 0 -19 2q-10 4 -14 8.5t-8 18.5q-2 8 -2 27v26q0 2 6 21q2 6 10 18q2 4 8 10t9 11l153 149q59 59 80 86q18 25 47 72q14 25 23 59q6 27 6 51q0 43 -33 76q-31 31 -90 31q-33 0 -68 -10q-33 -10 -51 -21 q-8 -4 -20.5 -11t-18.5 -9q-16 -10 -24 -11q-6 0 -9 2q-6 6 -8 11q-4 8 -4 20q0 4 -1 12.5t-1 14.5q0 18 4 35q4 14 12 22q14 14 29 23q27 14 51 22q55 16 66 19q37 6 76 6q61 0 110 -17q47 -16 78 -43q33 -29 47 -67q16 -43 17 -84q0 -37 -7 -70q-4 -23 -30 -76 q-20 -43 -66 -96q-39 -47 -117 -119l-106 -102h334q14 0 20 -14q6 -16 6 -43.5z" />
<glyph unicode="&#xb3;" horiz-adv-x="684" d="M600 944q0 -59 -20 -100q-22 -43 -62 -74q-39 -31 -96 -45q-61 -16 -127 -16q-49 0 -86 6q-45 8 -66 14q-35 12 -43 17l-20 12q-2 2 -6 10l-6 13q0 2 -1 8t-1 10v31q0 25 4 35q6 14 16 14q8 0 23 -8q23 -14 41 -21q23 -8 59 -18q31 -8 74 -8q77 0 116 30q41 31 41 84 q0 29 -12 53.5t-35 38.5q-25 15 -61 25q-33 8 -84 8h-72q-8 0 -12 2q-6 4 -10 11q0 2 -1 5l-2 6t-1 7q-2 8 -2.5 26.5t2.5 24.5q0 2 1 8.5t3 8.5q2 4 10 8t10 4h70q86 0 127 33q45 35 45 92q0 43 -31 71q-29 27 -90 27q-41 0 -68 -8q-41 -12 -57 -21q-20 -10 -41 -22 q-14 -8 -23 -8q-12 0 -14 12q-6 25 -6 41q0 4 1 11t1 9q0 4 1 9.5t1 7.5q0 6 4 10l3 4q3 4 5 6q4 4 29 19q18 10 51 20q55 16 66 19q37 6 74 6q66 0 108 -15q49 -16 78 -38.5t45 -61.5q14 -35 14 -80q0 -74 -39 -121q-41 -51 -116 -65v-2q43 -4 75 -19q37 -16 60 -39 q25 -25 41 -57q12 -25 12 -70z" />
<glyph unicode="&#xb4;" horiz-adv-x="595" d="M0 950zM133 1114q0 4 8 21l146 231q6 12 12 16q16 12 20 13q16 4 28.5 6t41.5 2q20 0 45 -4q16 -2 25 -10q6 -6 6 -15q0 -10 -8 -18l-183 -234l-14 -14q-8 -8 -14 -10q-18 -6 -23 -6h-33q-27 0 -34 2q-14 4 -18.5 8t-4.5 12z" />
<glyph unicode="&#xb5;" horiz-adv-x="1124" d="M1104 76q0 -27 -4 -47q-2 -16 -10.5 -22.5t-16.5 -10.5q-6 -2 -26 -6q-6 -2 -16.5 -4t-16.5 -2q-10 -2 -37 -2q-84 0 -133 36q-53 39 -68 123q-76 -86 -143.5 -120.5t-143.5 -34.5q-61 0 -104 14q-47 16 -78 55q4 -29 4 -47q0 -14 4 -51q2 -18 2 -53v-47v-189 q0 -6 -4 -14t-12 -10q-9 -3 -25 -6q-10 -2 -40.5 -2.5t-40.5 2.5q-15 3 -25 6q-10 4 -14 10q-2 4 -2 14v1258q0 8 2 12q4 6 14 10q18 6 25 6q4 0 18 1t22.5 1t22.5 -1t18 -1q6 0 25 -6q8 -2 12 -10t4 -12v-568q0 -111 49.5 -172t143.5 -61q61 0 123 43q66 47 131 129v629 q0 4 4 12t12 10q18 6 25 6q4 0 18.5 1t22.5 1t22.5 -1t18.5 -1q6 0 24 -6q8 -2 12.5 -10t4.5 -12v-656q0 -33 4 -69q2 -27 12 -45q6 -14 25 -25q14 -8 41 -8q18 0 26 2q4 0 10.5 1t10.5 3q2 0 8 1t8 3q4 2 12 2q6 0 9 -2q4 -4 6 -8q4 -8 4 -19v-30z" />
<glyph unicode="&#xb6;" horiz-adv-x="1198" d="M106 909q0 78 29 152q27 70 84 123q51 47 137 80q82 31 205 30h404q29 0 43 -16t14 -43v-1440q0 -4 -4 -12q-2 -6 -10 -8q-12 -4 -22.5 -6t-35 -2t-35 2t-22.5 6q-8 2 -10 8q-4 8 -4 12v1370h-197v-1370q0 -4 -4 -12q-2 -2 -12 -8q-6 -2 -23 -6q-10 -2 -35 -2 q-41 0 -55 8q-16 10 -16 20v737q-96 0 -183 27q-80 25 -135 74q-59 51 -84 117q-29 73 -29 159z" />
<glyph unicode="&#xb7;" horiz-adv-x="516" d="M152 582q0 72 22.5 94t85.5 22q59 0 82 -22q25 -25 25 -92q0 -70 -25 -95q-23 -23 -86 -22q-59 0 -81.5 22.5t-22.5 92.5z" />
<glyph unicode="&#x2219;" horiz-adv-x="516" d="M152 582q0 72 22.5 94t85.5 22q59 0 82 -22q25 -25 25 -92q0 -70 -25 -95q-23 -23 -86 -22q-59 0 -81.5 22.5t-22.5 92.5z" />
<glyph unicode="&#xb8;" horiz-adv-x="628" d="M131 -293q0 29 8 41q6 10 21 10h125q27 0 49 15q18 12 18 41q0 14 -6 32q-4 12 -16 41l-51 113h145l35 -74q23 -47 30 -76q8 -27 9 -55q0 -39 -15 -67q-14 -27 -39 -50q-23 -20 -61 -32q-31 -10 -82 -11q-25 0 -65 5q-27 2 -54 10l-19 5t-13 3q-6 2 -11 10q-6 12 -6 14.5 t-1 10.5t-1 14z" />
<glyph unicode="&#xb9;" horiz-adv-x="503" d="M373 740q0 -6 -4 -11q-6 -6 -13 -8q-12 -4 -22 -4q-4 0 -15.5 -1t-19.5 -1t-18.5 1t-14.5 1q-8 0 -20 4q-4 2 -10 8q-4 4 -5 11v628l-149 -79q-20 -8 -23 -9q-10 0 -14 4q-6 6 -8 17q-2 8 -2 26q0 6 1 14.5t1 10.5q0 12 2 16q2 2 4 6.5t4 6.5l10 10l187 111q4 0 8 2 q8 4 14 4h19q4 0 12 1t14 1q8 0 18.5 -1t14.5 -1q10 0 18 -4l9 -5q2 -2 2 -10v-749z" />
<glyph unicode="&#xba;" horiz-adv-x="864" d="M100 958q0 80 21 142q23 70 63 112q47 49 105 72q70 27 147 27q80 0 142 -25q57 -23 100 -69q39 -43 61 -109q23 -68 23 -143.5t-23 -143.5q-23 -70 -63 -112q-45 -47 -105 -72q-68 -27 -141 -27q-90 0 -147 23q-59 25 -103 69q-43 47 -61 109q-19 64 -19 147zM135 407.5 q0 32.5 10 49.5q8 12 25 12h518q18 0 27 -12q10 -16 10 -49t-10 -50q-8 -14 -27 -14h-518q-16 0 -25 14q-10 17 -10 49.5zM260 963q0 -51 8 -91q8 -41 29 -73q16 -29 51 -47q33 -18 82 -19q37 0 74 15q31 12 53 40q20 27 33 70q10 35 10 100q0 47 -8 86q-8 41 -29 74 q-20 35 -51 51q-33 18 -82 19q-43 0 -76 -17q-31 -16 -53 -46.5t-31 -71.5q-10 -47 -10 -90z" />
<glyph unicode="&#xbb;" horiz-adv-x="1048" d="M172 895q0 4 8 12q4 4 23 8q10 2 43 3h35q12 0 24 -5q2 0 5 -2t5 -4t4 -2q4 -2 11 -12l219 -336q12 -16 12 -41q0 -20 -14 -41l-213 -330q-4 -6 -10 -12q-4 -6 -15 -8q-6 -2 -22 -2q-4 0 -16.5 -1t-20.5 -1q-33 0 -43 2q-18 4 -23 8q-8 8 -8 14q0 4 8 17l215 354 l-221 363q-6 10 -6 16zM545 911.5q0 6.5 8 14.5t20 10q10 2 41 2h35q10 0 23 -4q8 -4 14 -8q2 -2 10 -15l222 -352q14 -20 14 -43q0 -20 -17 -43l-217 -346q-4 -6 -10 -12q-4 -4 -14 -9q-12 -4 -23 -4q-4 0 -15 -1t-20 -1q-20 0 -41 4q-18 4 -22 9q-6 6 -6 14q0 9 6 18 l213 373l-213 375q-8 12 -8 18.5z" />
<glyph unicode="&#xbc;" horiz-adv-x="1302" d="M1228 184q0 -25 -6 -41q-6 -14 -16 -14h-76v-113q0 -6 -4 -10t-10 -6q-12 -4 -23 -4q-4 0 -14 -1t-18 -1q-6 0 -17.5 1t-15.5 1q-8 0 -21 4q-9 3 -12 6q-2 2 -2 10v113h-287q-10 0 -14 2q-8 4 -10 8q0 2 -1 5t-2 6.5t-1 7.5q-2 8 -3 30v27q0 14 3 21l6 18q0 2 10 16 l235 363q6 6 11 8q6 3 18 6q16 4 29 4q6 0 19.5 1t21.5 1q10 0 25.5 -1t21.5 -1q16 0 33 -4l16 -8q6 -4 6 -8v-398h76q10 0 16 -10q6 -12 6 -39zM993 537h-2l-201 -304h203v304zM246 -8q-6 -10 -10 -12l-18 -9q-18 -6 -22.5 -6t-16 -1t-19.5 -1q-18 0 -35 4q-10 2 -20 13 q-4 4 -4 14q0 8 10 22l899 1289q4 6 12 14q4 4 19 8q12 4 24 4q4 0 14.5 1t18.5 1q18 0 35 -4q14 -4 20 -10q4 -4 5 -16q0 -8 -11 -23zM405 663q0 -6 -4 -10q-3 -3 -12 -6q-12 -4 -23 -4q-4 0 -15 -1t-20 -1q-6 0 -17 1t-15 1q-8 0 -21 4q-9 3 -12 6q-4 4 -4 10v504 l-150 -78q-20 -8 -22 -8q-6 0 -15 4q-2 0 -6 15q-2 6 -2 26v23q0 6 4 18q2 4 5 8t3 7q2 4 11 8l186 110l4 1l4 1l4 1q4 1 6 1h19h27h32q12 0 21 -4q2 0 5 -1t5 -3t2 -8v-625z" />
<glyph unicode="&#xbd;" horiz-adv-x="1374" d="M405 663q0 -6 -4 -10q-3 -3 -12 -6q-12 -4 -23 -4q-4 0 -15 -1t-20 -1q-6 0 -17 1t-15 1q-8 0 -21 4q-9 3 -12 6q-4 4 -4 10v504l-150 -78q-20 -8 -22 -8q-6 0 -15 4q-2 0 -6 15q-2 6 -2 26v23q0 6 4 18q2 4 5 8t3 7q2 4 11 8l186 110l4 1l4 1l4 1q4 1 6 1h19h27h32 q12 0 21 -4q2 0 5 -1t5 -3t2 -8v-625zM1284 53q0 -29 -6.5 -41t-18.5 -12h-412q-16 0 -20 2q-8 4 -12 8q-2 2 -7 17q-4 16 -4 30q0 6 1 14.5t1 10.5q0 8 4.5 20.5t8.5 16.5l16 16l133 121l62 61q20 20 41 50q12 18 20 45q6 23 6 47q0 39 -26 63q-31 27 -72 27 q-37 0 -61.5 -8.5t-45.5 -18.5l-32 -16q-10 -8 -21 -8q-6 0 -8 2t-6 10t-4 18q0 4 -1 12.5t-1 14.5q0 25 2 31t10 18q4 8 27 19q20 10 45 18q23 8 59 14q34 6 68 7q55 0 98 -13q39 -10 70 -39q29 -25 41 -59q14 -39 14 -76q0 -29 -10 -63q-12 -39 -29 -66q-20 -31 -57 -72 q-35 -39 -90 -84l-97 -79h287q14 0 20 -15q7 -15 7 -43zM246 -8q-6 -10 -10 -12l-18 -9q-18 -6 -22.5 -6t-16 -1t-19.5 -1q-18 0 -35 4q-10 2 -20 13q-4 4 -4 14q0 8 10 22l899 1289q4 6 12 14q4 4 19 8q12 4 24 4q4 0 14.5 1t18.5 1q18 0 35 -4q14 -4 20 -10q4 -4 5 -16 q0 -8 -11 -23z" />
<glyph unicode="&#xbe;" horiz-adv-x="1382" d="M555 831q0 -47 -20 -82q-23 -41 -55 -61q-41 -27 -88 -41q-49 -14 -113 -14q-25 0 -66 4q-27 2 -57 10q-25 6 -45.5 16.5t-24.5 16.5q-12 16 -12 20q-2 8 -2 39q0 23 4 35q4 10 14 10q2 0 23 -8l16.5 -8t18.5 -8q20 -8 49 -15q41 -8 74 -8q37 0 59 8q25 10 39 21 q14 12 23 31q8 20 8 32q0 25 -8 41q-8 18 -29 31q-23 14 -51 20q-31 6 -74 7h-68q-8 0 -12 2q-2 2 -6 8q-2 4 -6 16q-2 6 -2 24.5t2 24.5t6 15q2 4 6 8q2 2 10 2h66q72 0 108.5 24.5t36.5 69.5q0 33 -26 60q-23 23 -82 22q-39 0 -56 -6q-33 -12 -47 -19q-6 -4 -18 -9l-17 -7 l-20 -8q-6 0 -8 2q-4 4 -6 8q-6 12 -6 14v25v18q0 2 1 7.5t1 7.5q0 4 4 8l3 4q3 4 5 6q6 6 22 15q20 10 45 18q23 8 60 14q35 6 72 7q57 0 98 -13q43 -12 67 -33q29 -23 41 -53q14 -35 15 -67q0 -27 -11 -54q-10 -25 -26 -45q-14 -16 -43 -35q-18 -12 -55 -22q29 -2 69 -18 q31 -12 51 -33q18 -18 30.5 -47t12.5 -58zM325 -8q-6 -10 -10 -12l-18 -9q-18 -6 -22.5 -6t-16 -1t-19.5 -1q-18 0 -35 4q-10 2 -20 13q-4 4 -4 14q0 8 10 22l899 1289q4 6 12 14q4 4 19 8q12 4 24 4q4 0 14.5 1t18.5 1q18 0 35 -4q14 -4 20 -10q4 -4 5 -16q0 -8 -11 -23z M1308 184q0 -25 -6 -41q-6 -14 -16 -14h-76v-113q0 -6 -4 -10t-10 -6q-12 -4 -23 -4q-4 0 -14 -1t-18 -1q-6 0 -17.5 1t-15.5 1q-8 0 -21 4q-9 3 -12 6q-2 2 -2 10v113h-287q-10 0 -14 2q-8 4 -10 8q0 2 -1 5t-2 6.5t-1 7.5q-2 8 -3 30v27q0 14 3 21l6 18q0 2 10 16l235 363 q6 6 11 8q6 3 18 6q16 4 29 4q6 0 19.5 1t21.5 1q10 0 25.5 -1t21.5 -1q16 0 33 -4l16 -8q6 -4 6 -8v-398h76q10 0 16 -10q6 -12 6 -39zM1073 537h-2l-201 -304h203v304z" />
<glyph unicode="&#xbf;" horiz-adv-x="948" d="M815.017 -48.8496q0 -28.9961 -2 -36.9961q-2 -9.99805 -14.998 -21.9971q-5.99902 -5.99902 -38.4951 -24.4971q-32.4961 -18.4971 -67.4922 -28.4961q-46.9941 -13.998 -89.9893 -22.4971q-42.9941 -8.49902 -99.9873 -8.49902q-107.987 0 -184.978 30.9961 q-79.9902 32.9961 -126.984 80.9902q-48.9941 51.9932 -72.9912 122.984q-22.9971 65.9922 -22.9971 147.982q0 87.9893 24.9971 154.98q24.9961 69.9922 68.9912 116.986q44.9941 48.9941 108.986 75.9902q54.9932 24.9971 138.983 30.9961l5.99902 240.971 q0 15.998 18.498 22.498q18.498 6.49902 57.4932 6.49902h34.9951q6 0 23.9971 -5.99902q9.99902 -4 12.999 -8q3.99902 -7.99805 3.99902 -14.998l6 -275.966q0 -17.998 -4 -38.9951q-2 -11.999 -12.998 -22.9971q-11.999 -11.999 -21.998 -13.999 q-9.99805 -1.99902 -32.9961 -1.99902h-21.9971q-60.9922 0 -110.486 -22.498q-49.4941 -22.4971 -74.4912 -53.4932q-32.9961 -38.9951 -42.9941 -79.9902q-11.999 -44.9941 -11.999 -95.9883q0 -54.9932 15.998 -103.987q15.998 -46.9941 46.9941 -81.9902 q30.9971 -34.9951 81.9902 -53.9932q54.9932 -19.9971 112.986 -19.9971q50.9941 0 101.987 13.998q52.9941 13.998 75.9912 26.9971l52.9932 26.9961q19.998 11.999 28.9961 11.999q9.99902 0 14.499 -2q4.49902 -2 8.49902 -11.999q3.99902 -11.998 5.99902 -22.4971 t2 -37.4951zM618.04 1078.01q0 -26.9971 -3.99902 -55.9932q-2 -19.998 -15.998 -34.9961q-11.999 -11.998 -32.9961 -17.9971q-13.998 -4 -50.9941 -4q-36.9951 0 -50.9932 4q-19.998 5.99902 -32.9961 17.9971q-13.999 13.999 -16.998 34.9961q-4 28.9961 -4 55.4932 t4 55.4932q2 19.998 16.998 34.9961q11.998 11.998 32.9961 17.998q22.9971 5.99902 50.9932 5.99902q27.9971 0 50.9941 -5.99902q19.9971 -6 32.9961 -17.998q13.998 -13.998 15.998 -34.9961q3.99902 -27.9961 3.99902 -54.9932z" />
<glyph unicode="&#xc0;" horiz-adv-x="1183" d="M35 27q0 16 8 34l434 1203q2 8 12 18q8 8 19 10q25 6 31 6t22.5 1t28.5 1q10 0 27.5 -1t23.5 -1q10 0 35 -6q14 -4 20 -10q8 -8 11 -18l434 -1203q8 -18 8 -36q0 -16 -6 -21q-8 -4 -27 -8q-12 -2 -49 -2q-10 0 -28.5 1t-22.5 1q-14 0 -27 4q-10 4 -14 10q0 2 -3 6t-5 9 l-113 315h-537l-106 -311q-2 -8 -8 -15q-10 -10 -15 -12q-10 -4 -26 -6q-12 -2 -45 -2q-37 0 -49 2q-16 2 -24.5 10.5t-8.5 20.5zM360 477h451l-227 645zM643 1438q10 -14 12 -19q2 -8 -4 -14q-4 -4 -18 -8q-8 -2 -37 -2q-8 0 -19.5 1t-15.5 1q-8 0 -24 4l-19 10 q-12 8 -18 14l-228 213q-8 6 -12 19q-2 10 4 16q10 10 25 13q25 4 47 4q8 0 22.5 -1t20.5 -1t31 -7q4 -2 22 -10q4 -2 23 -20zM127 1294z" />
<glyph unicode="&#xc1;" horiz-adv-x="1183" d="M35 27q0 16 8 34l434 1203q2 8 12 18q8 8 19 10q25 6 31 6t22.5 1t28.5 1q10 0 27.5 -1t23.5 -1q10 0 35 -6q14 -4 20 -10q8 -8 11 -18l434 -1203q8 -18 8 -36q0 -16 -6 -21q-8 -4 -27 -8q-12 -2 -49 -2q-10 0 -28.5 1t-22.5 1q-14 0 -27 4q-10 4 -14 10q0 2 -3 6t-5 9 l-113 315h-537l-106 -311q-2 -8 -8 -15q-10 -10 -15 -12q-10 -4 -26 -6q-12 -2 -45 -2q-37 0 -49 2q-16 2 -24.5 10.5t-8.5 20.5zM360 477h451l-227 645zM705 1651l8 8q8 10 12 12q10 6 25 10q25 6 31 6.5t20 1.5t23 1q23 0 47 -4q12 -2 22 -13q8 -8 6 -16q-3 -9 -12 -19 l-227 -213q-6 -6 -19 -14q-14 -8 -18 -10q-16 -4 -27 -4q-4 0 -15 -1t-20 -1q-29 0 -36 2q-14 4 -18.5 8t-2.5 14q2 8 10 19zM371 1294z" />
<glyph unicode="&#xc2;" horiz-adv-x="1183" d="M35 27q0 16 8 34l434 1203q2 8 12 18q8 8 19 10q25 6 31 6t22.5 1t28.5 1q10 0 27.5 -1t23.5 -1q10 0 35 -6q14 -4 20 -10q8 -8 11 -18l434 -1203q8 -18 8 -36q0 -16 -6 -21q-8 -4 -27 -8q-12 -2 -49 -2q-10 0 -28.5 1t-22.5 1q-14 0 -27 4q-10 4 -14 10q0 2 -3 6t-5 9 l-113 315h-537l-106 -311q-2 -8 -8 -15q-10 -10 -15 -12q-10 -4 -26 -6q-12 -2 -45 -2q-37 0 -49 2q-16 2 -24.5 10.5t-8.5 20.5zM360 477h451l-227 645zM604 1690q8 0 19.5 -1t15.5 -1q12 0 24 -5q16 -4 19 -8q2 -2 7 -6t9 -8l213 -227q6 -6 12 -19q4 -8 -4 -12 q-6 -4 -20 -6q-10 -2 -35 -2q-12 0 -28.5 1t-20.5 1q-12 0 -29 4q-12 3 -18 6l-11 10l-153 172l-160 -168q-4 -4 -16 -12q-8 -4 -21 -8q-16 -4 -28 -4q-6 0 -20.5 -1t-24.5 -1q-31 0 -39 2q-4 0 -19 8q-8 4 -4 10q8 16 10 19l226 227q10 10 16 14q8 6 18 8q16 4 27 5 q4 0 15.5 1t19.5 1zM139 1294z" />
<glyph unicode="&#xc3;" horiz-adv-x="1183" d="M35 27q0 16 8 34l434 1203q2 8 12 18q8 8 19 10q25 6 31 6t22.5 1t28.5 1q10 0 27.5 -1t23.5 -1q10 0 35 -6q14 -4 20 -10q8 -8 11 -18l434 -1203q8 -18 8 -36q0 -16 -6 -21q-8 -4 -27 -8q-12 -2 -49 -2q-10 0 -28.5 1t-22.5 1q-14 0 -27 4q-10 4 -14 10q0 2 -3 6t-5 9 l-113 315h-537l-106 -311q-2 -8 -8 -15q-10 -10 -15 -12q-10 -4 -26 -6q-12 -2 -45 -2q-37 0 -49 2q-16 2 -24.5 10.5t-8.5 20.5zM360 477h451l-227 645zM817 1614q0 16 14 18q20 4 50 4q31 0 47 -8q10 -6 10 -33q0 -94 -51 -145q-53 -53 -146 -53q-57 0 -92 16 q-27 12 -72 41l-61 39q-25 16 -59 16q-41 0 -60 -24q-16 -23 -16 -68q0 -4 -6 -10t-12.5 -8t-18.5 -2h-27q-37 0 -47 8t-10 31q0 51 14 86q16 39 39 61q27 27 64 39q43 14 80 14q52 0 92 -18q47 -23 71 -39l60 -39q28 -18 61 -18q35 0 55.5 20.5t20.5 71.5zM131 1294z" />
<glyph unicode="&#xc4;" horiz-adv-x="1183" d="M35 27q0 16 8 34l434 1203q2 8 12 18q8 8 19 10q25 6 31 6t22.5 1t28.5 1q10 0 27.5 -1t23.5 -1q10 0 35 -6q14 -4 20 -10q8 -8 11 -18l434 -1203q8 -18 8 -36q0 -16 -6 -21q-8 -4 -27 -8q-12 -2 -49 -2q-10 0 -28.5 1t-22.5 1q-14 0 -27 4q-10 4 -14 10q0 2 -3 6t-5 9 l-113 315h-537l-106 -311q-2 -8 -8 -15q-10 -10 -15 -12q-10 -4 -26 -6q-12 -2 -45 -2q-37 0 -49 2q-16 2 -24.5 10.5t-8.5 20.5zM360 477h451l-227 645zM488 1530q0 -57 -20.5 -77.5t-78.5 -20.5q-55 0 -75.5 20.5t-20.5 75.5t20.5 75.5t77.5 20.5q55 0 76 -20.5t21 -73.5z M901 1530q0 -57 -20.5 -77.5t-77.5 -20.5q-55 0 -75.5 20.5t-20.5 75.5t20.5 75.5t75.5 20.5q57 0 77.5 -20.5t20.5 -73.5zM162 1294z" />
<glyph unicode="&#xc5;" horiz-adv-x="1183" d="M35 27q0 16 8 34l434 1203q2 8 12 18q8 8 19 10q25 6 31 6t22.5 1t28.5 1q10 0 27.5 -1t23.5 -1q10 0 35 -6q14 -4 20 -10q8 -8 11 -18l434 -1203q8 -18 8 -36q0 -16 -6 -21q-8 -4 -27 -8q-12 -2 -49 -2q-10 0 -28.5 1t-22.5 1q-14 0 -27 4q-10 4 -14 10q0 2 -3 6t-5 9 l-113 315h-537l-106 -311q-2 -8 -8 -15q-10 -10 -15 -12q-10 -4 -26 -6q-12 -2 -45 -2q-37 0 -49 2q-16 2 -24.5 10.5t-8.5 20.5zM360 477h451l-227 645zM803 1550q0 -45 -15 -75q-18 -39 -43 -62q-27 -25 -65 -39q-37 -14 -86 -14q-45 0 -88 14q-39 14 -64 37 q-25 25 -37 57q-12 35 -12 76q0 39 14 78q12 35 41 59q27 25 66 39q37 14 88 15q94 0 147.5 -49.5t53.5 -135.5zM690 1544q0 43 -22.5 72t-69.5 29q-45 0 -70 -25q-23 -23 -22 -70q0 -45 20 -71q23 -29 74 -29q47 0 68 27q22 28 22 67zM262 1294z" />
<glyph unicode="&#xc6;" horiz-adv-x="1562" d="M-51 20q0 10 2 17q3 9 12 24l651 1196q6 12 15 19q16 10 22 12q16 4 33 4q6 0 21.5 1t25.5 1h680q8 0 16.5 -4t10.5 -12q2 -6 6 -23q2 -8 2 -34q0 -23 -2 -31q-4 -16 -6 -23q-2 -8 -10.5 -12t-16.5 -4h-506v-408h434q8 0 16.5 -4t10.5 -12q2 -6 6 -22q2 -8 2 -33t-2 -33 t-6 -21q-4 -10 -10 -14q-8 -4 -17 -4h-434v-457h514q6 0 14.5 -4t10.5 -12q2 -6 6 -23q2 -8 2 -32.5t-2 -32.5q-4 -16 -6 -23q-2 -8 -10.5 -12t-14.5 -4h-620q-20 0 -43 16q-20 14 -21 54v245h-446l-154 -286q-2 -2 -5 -8.5t-5 -8.5q-10 -10 -19 -12q-16 -4 -30 -4 q-6 0 -21.5 -1t-25.5 -1q-8 0 -19.5 1t-15.5 1q-20 0 -27 2q-12 4 -14 8q-4 8 -4 14zM354 455h381v696h-6z" />
<glyph unicode="&#xc7;" horiz-adv-x="1091" d="M96 631q0 160 43 286.5t117 212.5q76 88 178 134q106 47 232 47q51 0 108 -11q39 -6 98 -26q46 -15 80 -37q39 -25 49 -35q16 -16 18.5 -20t6.5 -16.5t4 -22.5v-33q0 -23 -2 -33q0 -4 -1 -12t-3 -12q-2 -8 -10 -13q-12 -6 -15 -6q-12 0 -38 21q-29 23 -64 43 q-39 25 -96 43q-55 18 -135 18q-90 0 -158 -33q-72 -35 -121 -102q-47 -66 -75.5 -164t-28.5 -221q0 -125 26 -217q27 -94 76 -158q45 -59 123 -96q68 -33 162 -33q72 0 131 19q55 18 100 43q43 25 67.5 43t41.5 18q8 0 12 -2t8 -12q4 -12 4 -23q0 -4 1 -17.5t1 -21.5 q0 -6 -1 -14t-1 -12q0 -16 -2 -23q0 -2 -2 -5t-4 -5t-2 -4q-6 -12 -12 -19q-2 -2 -43 -30q-27 -18 -78 -39q-46 -18 -92 -31q-31 -8 -88 -12l26 -62q23 -47 31 -76q8 -27 8 -55q0 -43 -12 -67.5t-41 -49.5q-23 -20 -61 -32q-31 -10 -80 -11q-27 0 -68 5q-27 2 -53 10 q-6 2 -16.5 4t-14.5 4q-8 2 -12 10t-4 15q0 2 -1 10t-1 14q0 31 6 41t22 10h123q31 0 51 15q18 12 19 41q0 14 -6 32q-4 12 -17 41l-47 103q-89 9 -172 49q-84 41 -149.5 114.5t-106.5 198.5q-39 117 -39 279z" />
<glyph unicode="&#xc8;" horiz-adv-x="999" d="M172 70v1155q0 39 21 53q23 16 43 16h614q6 0 14 -4t10 -12q2 -6 6.5 -22.5t4.5 -34.5q0 -14 -4 -30.5t-7 -23.5q-2 -8 -10 -12t-14 -4h-506v-406h434q6 0 15 -4q6 -4 10 -14q0 -2 3 -8t5 -12v-33v-33q-2 -4 -5 -11t-3 -9q-2 -6 -10.5 -10.5t-14.5 -4.5h-434v-463h512 q8 0 16 -4q4 -2 11 -12q4 -6 8 -23q2 -8 2 -32.5t-2 -32.5q-4 -16 -8 -23q-6 -10 -11 -12q-8 -4 -16 -4h-620q-20 0 -43 16q-21 15 -21 54zM586 1438q10 -14 12 -19q2 -8 -4 -14q-4 -4 -18 -8q-8 -2 -37 -2q-8 0 -19.5 1t-15.5 1q-8 0 -24 4l-19 10q-12 8 -18 14l-228 213 q-8 6 -12 19q-2 10 4 16q10 10 25 13q25 4 47 4q8 0 22.5 -1t20.5 -1t31 -7q4 -2 22 -10q4 -2 23 -20zM70 1294z" />
<glyph unicode="&#xc9;" horiz-adv-x="999" d="M172 70v1155q0 39 21 53q23 16 43 16h614q6 0 14 -4t10 -12q2 -6 6.5 -22.5t4.5 -34.5q0 -14 -4 -30.5t-7 -23.5q-2 -8 -10 -12t-14 -4h-506v-406h434q6 0 15 -4q6 -4 10 -14q0 -2 3 -8t5 -12v-33v-33q-2 -4 -5 -11t-3 -9q-2 -6 -10.5 -10.5t-14.5 -4.5h-434v-463h512 q8 0 16 -4q4 -2 11 -12q4 -6 8 -23q2 -8 2 -32.5t-2 -32.5q-4 -16 -8 -23q-6 -10 -11 -12q-8 -4 -16 -4h-620q-20 0 -43 16q-21 15 -21 54zM656 1651l8 8q8 10 12 12q10 6 25 10q25 6 31 6.5t20 1.5t23 1q23 0 47 -4q12 -2 22 -13q8 -8 6 -16q-3 -9 -12 -19l-227 -213 q-6 -6 -19 -14q-14 -8 -18 -10q-16 -4 -27 -4q-4 0 -15 -1t-20 -1q-29 0 -36 2q-14 4 -18.5 8t-2.5 14q2 8 10 19zM322 1294z" />
<glyph unicode="&#xca;" horiz-adv-x="999" d="M172 70v1155q0 39 21 53q23 16 43 16h614q6 0 14 -4t10 -12q2 -6 6.5 -22.5t4.5 -34.5q0 -14 -4 -30.5t-7 -23.5q-2 -8 -10 -12t-14 -4h-506v-406h434q6 0 15 -4q6 -4 10 -14q0 -2 3 -8t5 -12v-33v-33q-2 -4 -5 -11t-3 -9q-2 -6 -10.5 -10.5t-14.5 -4.5h-434v-463h512 q8 0 16 -4q4 -2 11 -12q4 -6 8 -23q2 -8 2 -32.5t-2 -32.5q-4 -16 -8 -23q-6 -10 -11 -12q-8 -4 -16 -4h-620q-20 0 -43 16q-21 15 -21 54zM535 1690q8 0 19.5 -1t15.5 -1q12 0 24 -5q16 -4 19 -8q2 -2 7 -6t9 -8l213 -227q6 -6 12 -19q4 -8 -4 -12q-6 -4 -20 -6 q-10 -2 -35 -2q-12 0 -28.5 1t-20.5 1q-12 0 -29 4q-12 3 -18 6l-11 10l-153 172l-160 -168q-4 -4 -16 -12q-8 -4 -21 -8q-16 -4 -28 -4q-6 0 -20.5 -1t-24.5 -1q-31 0 -39 2q-4 0 -19 8q-8 4 -4 10q8 16 10 19l226 227q10 10 16 14q8 6 18 8q16 4 27 5q4 0 15.5 1t19.5 1z M70 1294z" />
<glyph unicode="&#xcb;" horiz-adv-x="999" d="M172 70v1155q0 39 21 53q23 16 43 16h614q6 0 14 -4t10 -12q2 -6 6.5 -22.5t4.5 -34.5q0 -14 -4 -30.5t-7 -23.5q-2 -8 -10 -12t-14 -4h-506v-406h434q6 0 15 -4q6 -4 10 -14q0 -2 3 -8t5 -12v-33v-33q-2 -4 -5 -11t-3 -9q-2 -6 -10.5 -10.5t-14.5 -4.5h-434v-463h512 q8 0 16 -4q4 -2 11 -12q4 -6 8 -23q2 -8 2 -32.5t-2 -32.5q-4 -16 -8 -23q-6 -10 -11 -12q-8 -4 -16 -4h-620q-20 0 -43 16q-21 15 -21 54zM424 1530q0 -57 -20.5 -77.5t-78.5 -20.5q-55 0 -75.5 20.5t-20.5 75.5t20.5 75.5t77.5 20.5q55 0 76 -20.5t21 -73.5zM837 1530 q0 -57 -20.5 -77.5t-77.5 -20.5q-55 0 -75.5 20.5t-20.5 75.5t20.5 75.5t75.5 20.5q57 0 77.5 -20.5t20.5 -73.5zM98 1294z" />
<glyph unicode="&#xcc;" horiz-adv-x="514" d="M172 27v1241q0 6 4 14q2 6 17 10q6 2 26 6q10 2 39 2q31 0 41 -2q20 -4 27 -6q10 -4 14 -10q4 -8 4 -14v-1241q0 -6 -4 -15q-4 -6 -14 -10q-6 -2 -27 -6q-10 -2 -41 -2q-29 0 -41 2q-16 2 -26.5 6t-14.5 10q-4 9 -4 15zM334 1438q10 -14 12 -19q2 -8 -4 -14q-4 -4 -18 -8 q-8 -2 -37 -2q-8 0 -19.5 1t-15.5 1q-8 0 -24 4l-19 10q-12 8 -18 14l-228 213q-8 6 -12 19q-2 10 4 16q10 10 25 13q25 4 47 4q8 0 22.5 -1t20.5 -1t31 -7q4 -2 22 -10q4 -2 23 -20zM-182 1294z" />
<glyph unicode="&#xcd;" horiz-adv-x="514" d="M172 27v1241q0 6 4 14q2 6 17 10q6 2 26 6q10 2 39 2q31 0 41 -2q20 -4 27 -6q10 -4 14 -10q4 -8 4 -14v-1241q0 -6 -4 -15q-4 -6 -14 -10q-6 -2 -27 -6q-10 -2 -41 -2q-29 0 -41 2q-16 2 -26.5 6t-14.5 10q-4 9 -4 15zM375 1651l8 8q8 10 12 12q10 6 25 10q25 6 31 6.5 t20 1.5t23 1q23 0 47 -4q12 -2 22 -13q8 -8 6 -16q-3 -9 -12 -19l-227 -213q-6 -6 -19 -14q-14 -8 -18 -10q-16 -4 -27 -4q-4 0 -15 -1t-20 -1q-29 0 -36 2q-14 4 -18.5 8t-2.5 14q2 8 10 19zM41 1294z" />
<glyph unicode="&#xce;" horiz-adv-x="514" d="M172 27v1241q0 6 4 14q2 6 17 10q6 2 26 6q10 2 39 2q31 0 41 -2q20 -4 27 -6q10 -4 14 -10q4 -8 4 -14v-1241q0 -6 -4 -15q-4 -6 -14 -10q-6 -2 -27 -6q-10 -2 -41 -2q-29 0 -41 2q-16 2 -26.5 6t-14.5 10q-4 9 -4 15zM266 1690q8 0 19.5 -1t15.5 -1q12 0 24 -5 q16 -4 19 -8q2 -2 7 -6t9 -8l213 -227q6 -6 12 -19q4 -8 -4 -12q-6 -4 -20 -6q-10 -2 -35 -2q-12 0 -28.5 1t-20.5 1q-12 0 -29 4q-12 3 -18 6l-11 10l-153 172l-160 -168q-4 -4 -16 -12q-8 -4 -21 -8q-16 -4 -28 -4q-6 0 -20.5 -1t-24.5 -1q-31 0 -39 2q-4 0 -19 8 q-8 4 -4 10q8 16 10 19l226 227q10 10 16 14q8 6 18 8q16 4 27 5q4 0 15.5 1t19.5 1zM-199 1294z" />
<glyph unicode="&#xcf;" horiz-adv-x="514" d="M172 27v1241q0 6 4 14q2 6 17 10q6 2 26 6q10 2 39 2q31 0 41 -2q20 -4 27 -6q10 -4 14 -10q4 -8 4 -14v-1241q0 -6 -4 -15q-4 -6 -14 -10q-6 -2 -27 -6q-10 -2 -41 -2q-29 0 -41 2q-16 2 -26.5 6t-14.5 10q-4 9 -4 15zM150 1530q0 -57 -20.5 -77.5t-78.5 -20.5 q-55 0 -75.5 20.5t-20.5 75.5t20.5 75.5t77.5 20.5q55 0 76 -20.5t21 -73.5zM563 1530q0 -57 -20.5 -77.5t-77.5 -20.5q-55 0 -75.5 20.5t-20.5 75.5t20.5 75.5t75.5 20.5q57 0 77.5 -20.5t20.5 -73.5zM-176 1294z" />
<glyph unicode="&#xd0;" horiz-adv-x="1277" d="M27 672q0 25 2 33q4 16 6 22q2 8 12 12q8 4 14 4h129v482q0 39 21 53q23 16 43 16h293q168 0 284 -43q115 -43 195 -125q78 -82 119 -198q41 -119 41 -262q0 -166 -43 -293t-125 -209t-205 -123t-285 -41h-274q-20 0 -43 16q-20 14 -21 54v530h-129q-6 0 -14 4t-12 14 q-4 12 -6 20.5t-2 33.5zM362 143h179q123 0 209 31q84 31 141 96.5t84 159.5q29 98 29 229q0 106 -25 195q-25 92 -82 157.5t-141 102.5q-86 37 -219 37h-175v-408h236q6 0 14.5 -4t10.5 -12q2 -6 6 -22q2 -8 2 -33t-2 -33t-6 -21q-4 -10 -11 -14q-8 -4 -14 -4h-236v-457z " />
<glyph unicode="&#xd1;" horiz-adv-x="1320" d="M172 27v1194q0 39 23 57q18 16 47 16h82q31 0 49 -6q25 -8 35 -16q20 -16 30 -31l31 -51l313 -569q12 -23 27.5 -48.5l30.5 -52.5l51 -98l49 -94l49 -95q-2 53 -2 166v164v703q0 4 4 12t13 10q6 2 26 6q10 2 39 2t39 -2q15 -3 25 -6q10 -4 14 -10q4 -8 4 -12v-1194 q0 -14 -8 -35q-4 -10 -16.5 -22.5t-22.5 -14.5q-8 -2 -27 -2h-55q-33 0 -45 4q-20 6 -37 21q-14 12 -35 38q-12 16 -39 66l-407 735l-66 119q-2 2 -59 123h-2q2 -47 2 -148q0 -25 1 -75t1 -74v-780q0 -6 -4 -15q-4 -6 -15 -10q-9 -3 -24 -6q-10 -2 -39 -2q-31 0 -41 2 q-15 3 -25 6q-8 2 -12 10.5t-4 14.5zM881 1614q0 16 14 18q20 4 50 4q31 0 47 -8q10 -6 10 -33q0 -94 -51 -145q-53 -53 -146 -53q-57 0 -92 16q-27 12 -72 41l-61 39q-25 16 -59 16q-41 0 -60 -24q-16 -23 -16 -68q0 -4 -6 -10t-12.5 -8t-18.5 -2h-27q-37 0 -47 8t-10 31 q0 51 14 86q16 39 39 61q27 27 64 39q43 14 80 14q52 0 92 -18q47 -23 71 -39l60 -39q28 -18 61 -18q35 0 55.5 20.5t20.5 71.5zM195 1294z" />
<glyph unicode="&#xd2;" horiz-adv-x="1355" d="M98 639q0 152 37 279q37 123 113 212q78 90 184 136q113 47 258 47q141 0 250 -43q106 -43 176 -125q72 -84 105 -205q35 -127 34 -278q0 -157 -36.5 -283t-110.5 -215t-184 -135q-113 -47 -258.5 -47t-253.5 43q-102 41 -176 127q-68 80 -103 204q-35 127 -35 283z M281 651q0 -114 18 -209q18 -92 66 -166q45 -70 120.5 -108.5t188.5 -38.5q114 0 190 43q78 43 123 113q46 71 68 166q20 90 20 198q0 98 -20 205q-18 94 -64 164q-45 68 -123 108q-76 39 -186 39q-115 0 -188 -41q-82 -45 -125 -112q-45 -70 -68 -164q-20 -88 -20 -197z M758 1438q10 -14 12 -19q2 -8 -4 -14q-4 -4 -18 -8q-8 -2 -37 -2q-8 0 -19.5 1t-15.5 1q-8 0 -24 4l-19 10q-12 8 -18 14l-228 213q-8 6 -12 19q-2 10 4 16q10 10 25 13q25 4 47 4q8 0 22.5 -1t20.5 -1t31 -7q4 -2 22 -10q4 -2 23 -20zM242 1294z" />
<glyph unicode="&#xd3;" horiz-adv-x="1355" d="M98 639q0 152 37 279q37 123 113 212q78 90 184 136q113 47 258 47q141 0 250 -43q106 -43 176 -125q72 -84 105 -205q35 -127 34 -278q0 -157 -36.5 -283t-110.5 -215t-184 -135q-113 -47 -258.5 -47t-253.5 43q-102 41 -176 127q-68 80 -103 204q-35 127 -35 283z M281 651q0 -114 18 -209q18 -92 66 -166q45 -70 120.5 -108.5t188.5 -38.5q114 0 190 43q78 43 123 113q46 71 68 166q20 90 20 198q0 98 -20 205q-18 94 -64 164q-45 68 -123 108q-76 39 -186 39q-115 0 -188 -41q-82 -45 -125 -112q-45 -70 -68 -164q-20 -88 -20 -197z M783 1651l8 8q8 10 12 12q10 6 25 10q25 6 31 6.5t20 1.5t23 1q23 0 47 -4q12 -2 22 -13q8 -8 6 -16q-3 -9 -12 -19l-227 -213q-6 -6 -19 -14q-14 -8 -18 -10q-16 -4 -27 -4q-4 0 -15 -1t-20 -1q-29 0 -36 2q-14 4 -18.5 8t-2.5 14q2 8 10 19zM449 1294z" />
<glyph unicode="&#xd4;" horiz-adv-x="1355" d="M98 639q0 152 37 279q37 123 113 212q78 90 184 136q113 47 258 47q141 0 250 -43q106 -43 176 -125q72 -84 105 -205q35 -127 34 -278q0 -157 -36.5 -283t-110.5 -215t-184 -135q-113 -47 -258.5 -47t-253.5 43q-102 41 -176 127q-68 80 -103 204q-35 127 -35 283z M281 651q0 -114 18 -209q18 -92 66 -166q45 -70 120.5 -108.5t188.5 -38.5q114 0 190 43q78 43 123 113q46 71 68 166q20 90 20 198q0 98 -20 205q-18 94 -64 164q-45 68 -123 108q-76 39 -186 39q-115 0 -188 -41q-82 -45 -125 -112q-45 -70 -68 -164q-20 -88 -20 -197z M688 1690q8 0 19.5 -1t15.5 -1q12 0 24 -5q16 -4 19 -8q2 -2 7 -6t9 -8l213 -227q6 -6 12 -19q4 -8 -4 -12q-6 -4 -20 -6q-10 -2 -35 -2q-12 0 -28.5 1t-20.5 1q-12 0 -29 4q-12 3 -18 6l-11 10l-153 172l-160 -168q-4 -4 -16 -12q-8 -4 -21 -8q-16 -4 -28 -4q-6 0 -20.5 -1 t-24.5 -1q-31 0 -39 2q-4 0 -19 8q-8 4 -4 10q8 16 10 19l226 227q10 10 16 14q8 6 18 8q16 4 27 5q4 0 15.5 1t19.5 1zM223 1294z" />
<glyph unicode="&#xd5;" horiz-adv-x="1355" d="M98 639q0 152 37 279q37 123 113 212q78 90 184 136q113 47 258 47q141 0 250 -43q106 -43 176 -125q72 -84 105 -205q35 -127 34 -278q0 -157 -36.5 -283t-110.5 -215t-184 -135q-113 -47 -258.5 -47t-253.5 43q-102 41 -176 127q-68 80 -103 204q-35 127 -35 283z M281 651q0 -114 18 -209q18 -92 66 -166q45 -70 120.5 -108.5t188.5 -38.5q114 0 190 43q78 43 123 113q46 71 68 166q20 90 20 198q0 98 -20 205q-18 94 -64 164q-45 68 -123 108q-76 39 -186 39q-115 0 -188 -41q-82 -45 -125 -112q-45 -70 -68 -164q-20 -88 -20 -197z M901 1614q0 16 14 18q20 4 50 4q31 0 47 -8q10 -6 10 -33q0 -94 -51 -145q-53 -53 -146 -53q-57 0 -92 16q-27 12 -72 41l-61 39q-25 16 -59 16q-41 0 -60 -24q-16 -23 -16 -68q0 -4 -6 -10t-12.5 -8t-18.5 -2h-27q-37 0 -47 8t-10 31q0 51 14 86q16 39 39 61q27 27 64 39 q43 14 80 14q52 0 92 -18q47 -23 71 -39l60 -39q28 -18 61 -18q35 0 55.5 20.5t20.5 71.5zM215 1294z" />
<glyph unicode="&#xd6;" horiz-adv-x="1355" d="M98 639q0 152 37 279q37 123 113 212q78 90 184 136q113 47 258 47q141 0 250 -43q106 -43 176 -125q72 -84 105 -205q35 -127 34 -278q0 -157 -36.5 -283t-110.5 -215t-184 -135q-113 -47 -258.5 -47t-253.5 43q-102 41 -176 127q-68 80 -103 204q-35 127 -35 283z M281 651q0 -114 18 -209q18 -92 66 -166q45 -70 120.5 -108.5t188.5 -38.5q114 0 190 43q78 43 123 113q46 71 68 166q20 90 20 198q0 98 -20 205q-18 94 -64 164q-45 68 -123 108q-76 39 -186 39q-115 0 -188 -41q-82 -45 -125 -112q-45 -70 -68 -164q-20 -88 -20 -197z M572 1530q0 -57 -20.5 -77.5t-78.5 -20.5q-55 0 -75.5 20.5t-20.5 75.5t20.5 75.5t77.5 20.5q55 0 76 -20.5t21 -73.5zM985 1530q0 -57 -20.5 -77.5t-77.5 -20.5q-55 0 -75.5 20.5t-20.5 75.5t20.5 75.5t75.5 20.5q57 0 77.5 -20.5t20.5 -73.5zM246 1294z" />
<glyph unicode="&#xd7;" d="M96 250q0 8 10 22l304 303l-304 304q-4 4 -8 12q-2 4 -2 12q0 12 10.5 28.5t22.5 26.5q20 16 31 23q14 8 24 8q14 0 25 -10l303 -305l301 303q4 4 12 8q4 2 13 2q12 0 26 -8q10 -6 29 -25q12 -12 22 -28q8 -14 9 -27q0 -6 -2 -10q-4 -8 -9 -12l-303 -304l301 -301 q4 -4 8.5 -12t4.5 -12q0 -12 -10.5 -28.5t-24.5 -29.5q-16 -12 -29 -20q-16 -10 -24 -10q-4 0 -13 4l-12 6l-301 303l-303 -303q-2 -2 -8 -4l-6 -2q-4 -2 -13 -2q-12 0 -26 8q-6 2 -27 25l-23 28q-8 15 -8 27z" />
<glyph unicode="&#xd8;" horiz-adv-x="1357" d="M98 639q0 152 37 279q37 123 113 212q78 90 184 136q113 47 260 47q55 0 113 -10q59 -10 102 -27l109 221q2 4 10 12q4 4 18 9q16 4 27 4h39q18 0 39 -4q12 -2 20 -11q6 -6 7 -16q0 -8 -7 -21l-127 -258q51 -37 95 -96q40 -55 67 -123q25 -57 41 -151q14 -78 15 -180 q0 -157 -37 -283q-35 -123 -113 -215q-72 -88 -186 -135q-113 -47 -256 -47q-68 0 -115 8q-61 10 -100 26l-111 -223l-10 -10q-4 -4 -19 -8q-16 -4 -26 -4h-37q-29 0 -39 2q-12 2 -23 12q-6 6 -6 16q0 8 6 21l127 258q-55 39 -94 94q-41 57 -67 125q-29 76 -41 156 q-15 100 -15 184zM279 651q0 -131 26.5 -235.5t91.5 -175.5l445 897q-27 12 -72 22q-35 8 -88 8q-117 0 -190 -41q-82 -45 -125 -112q-47 -72 -68 -164q-20 -90 -20 -199zM518 160q37 -16 72 -24.5t88 -8.5q114 0 190 43q82 45 125 113q45 70 68 168q20 90 20 200 q0 123 -28 228q-29 106 -90 174z" />
<glyph unicode="&#xd9;" horiz-adv-x="1312" d="M170 465v803q0 6 4 14q4 6 14 10q9 3 25 6q10 2 43 2q29 0 41 -2q16 -2 26.5 -6t14.5 -10q4 -8 4 -14v-783q0 -92 20 -155q23 -72 64 -113q49 -49 100 -67q61 -23 131 -23q72 0 134 23q59 23 100 65q39 41 61 111q23 68 23 151v791q0 6 4 14t12 10q6 2 27 6q10 2 43 2 q29 0 39 -2q20 -4 26 -6q10 -4 15 -10q4 -8 4 -14v-791q0 -115 -35 -209t-98 -157q-61 -61 -156 -97q-90 -33 -209 -32q-106 0 -194 30q-86 29 -152 92q-63 59 -96 152q-35 94 -35 209zM719 1438q10 -14 12 -19q2 -8 -4 -14q-4 -4 -18 -8q-8 -2 -37 -2q-8 0 -19.5 1t-15.5 1 q-8 0 -24 4l-19 10q-12 8 -18 14l-228 213q-8 6 -12 19q-2 10 4 16q10 10 25 13q25 4 47 4q8 0 22.5 -1t20.5 -1t31 -7q4 -2 22 -10q4 -2 23 -20zM203 1294z" />
<glyph unicode="&#xda;" horiz-adv-x="1312" d="M170 465v803q0 6 4 14q4 6 14 10q9 3 25 6q10 2 43 2q29 0 41 -2q16 -2 26.5 -6t14.5 -10q4 -8 4 -14v-783q0 -92 20 -155q23 -72 64 -113q49 -49 100 -67q61 -23 131 -23q72 0 134 23q59 23 100 65q39 41 61 111q23 68 23 151v791q0 6 4 14t12 10q6 2 27 6q10 2 43 2 q29 0 39 -2q20 -4 26 -6q10 -4 15 -10q4 -8 4 -14v-791q0 -115 -35 -209t-98 -157q-61 -61 -156 -97q-90 -33 -209 -32q-106 0 -194 30q-86 29 -152 92q-63 59 -96 152q-35 94 -35 209zM762 1651l8 8q8 10 12 12q10 6 25 10q25 6 31 6.5t20 1.5t23 1q23 0 47 -4 q12 -2 22 -13q8 -8 6 -16q-3 -9 -12 -19l-227 -213q-6 -6 -19 -14q-14 -8 -18 -10q-16 -4 -27 -4q-4 0 -15 -1t-20 -1q-29 0 -36 2q-14 4 -18.5 8t-2.5 14q2 8 10 19zM428 1294z" />
<glyph unicode="&#xdb;" horiz-adv-x="1312" d="M170 465v803q0 6 4 14q4 6 14 10q9 3 25 6q10 2 43 2q29 0 41 -2q16 -2 26.5 -6t14.5 -10q4 -8 4 -14v-783q0 -92 20 -155q23 -72 64 -113q49 -49 100 -67q61 -23 131 -23q72 0 134 23q59 23 100 65q39 41 61 111q23 68 23 151v791q0 6 4 14t12 10q6 2 27 6q10 2 43 2 q29 0 39 -2q20 -4 26 -6q10 -4 15 -10q4 -8 4 -14v-791q0 -115 -35 -209t-98 -157q-61 -61 -156 -97q-90 -33 -209 -32q-106 0 -194 30q-86 29 -152 92q-63 59 -96 152q-35 94 -35 209zM662 1690q8 0 19.5 -1t15.5 -1q12 0 24 -5q16 -4 19 -8q2 -2 7 -6t9 -8l213 -227 q6 -6 12 -19q4 -8 -4 -12q-6 -4 -20 -6q-10 -2 -35 -2q-12 0 -28.5 1t-20.5 1q-12 0 -29 4q-12 3 -18 6l-11 10l-153 172l-160 -168q-4 -4 -16 -12q-8 -4 -21 -8q-16 -4 -28 -4q-6 0 -20.5 -1t-24.5 -1q-31 0 -39 2q-4 0 -19 8q-8 4 -4 10q8 16 10 19l226 227q10 10 16 14 q8 6 18 8q16 4 27 5q4 0 15.5 1t19.5 1zM197 1294z" />
<glyph unicode="&#xdc;" horiz-adv-x="1312" d="M170 465v803q0 6 4 14q4 6 14 10q9 3 25 6q10 2 43 2q29 0 41 -2q16 -2 26.5 -6t14.5 -10q4 -8 4 -14v-783q0 -92 20 -155q23 -72 64 -113q49 -49 100 -67q61 -23 131 -23q72 0 134 23q59 23 100 65q39 41 61 111q23 68 23 151v791q0 6 4 14t12 10q6 2 27 6q10 2 43 2 q29 0 39 -2q20 -4 26 -6q10 -4 15 -10q4 -8 4 -14v-791q0 -115 -35 -209t-98 -157q-61 -61 -156 -97q-90 -33 -209 -32q-106 0 -194 30q-86 29 -152 92q-63 59 -96 152q-35 94 -35 209zM545 1530q0 -57 -20.5 -77.5t-78.5 -20.5q-55 0 -75.5 20.5t-20.5 75.5t20.5 75.5 t77.5 20.5q55 0 76 -20.5t21 -73.5zM958 1530q0 -57 -20.5 -77.5t-77.5 -20.5q-55 0 -75.5 20.5t-20.5 75.5t20.5 75.5t75.5 20.5q57 0 77.5 -20.5t20.5 -73.5zM219 1294z" />
<glyph unicode="&#xdd;" horiz-adv-x="997" d="M32 1276q0 7 5 12q6 6 26 10q12 2 54 2q37 0 49 -2t29 -6q8 -2 16 -10q2 -2 5 -8t5 -8l180 -371l50 -113l51 -116h2l47 114l49 111l180 375q4 12 8 16q6 8 17 10q10 4 26 6q12 2 43 2q41 0 56 -2q16 -2 28 -10q7 -5 7 -14v-6q-4 -16 -15 -35l-364 -729v-477q0 -6 -4 -15 q-4 -6 -14.5 -10t-26.5 -6q-12 -2 -41 -2q-33 0 -43 2q-20 4 -27 6q-10 4 -14 10q-4 8 -4 15v477l-367 729q-13 23 -13 43zM647 1651l8 8q8 10 12 12q10 6 25 10q25 6 31 6.5t20 1.5t23 1q23 0 47 -4q12 -2 22 -13q8 -8 6 -16q-3 -9 -12 -19l-227 -213q-6 -6 -19 -14 q-14 -8 -18 -10q-16 -4 -27 -4q-4 0 -15 -1t-20 -1q-29 0 -36 2q-14 4 -18.5 8t-2.5 14q2 8 10 19zM313 1294z" />
<glyph unicode="&#xde;" horiz-adv-x="1056" d="M172 23v1249q0 4 4 12q4 6 14 10q6 2 27 6q10 2 41 2.5t41 -2.5q20 -4 27 -6q10 -4 14 -10q4 -8 4 -12v-197h172q55 0 82 -2q41 -4 78 -12q61 -14 121 -47q53 -31 92 -78q35 -45 57 -107q20 -59 21 -133q0 -94 -31 -174q-29 -76 -90 -133q-59 -55 -144 -86 q-80 -29 -190 -29h-168v-251q0 -6 -4 -15q-2 -4 -14 -8q-6 -2 -27 -6q-10 -2 -41 -2t-41 2q-20 4 -27 6q-12 4 -14 8q-4 9 -4 15zM344 416h182q68 0 111 18q49 20 82 58q31 33 49 83q18 49 18 107q0 94 -45 158q-41 59 -127 82q-27 10 -55 10q-10 0 -27.5 1t-25.5 1h-162 v-518z" />
<glyph unicode="&#xdf;" horiz-adv-x="1079" d="M154 29v956q0 92 24 170q25 76 74 131q47 51 123 84q74 31 168 31q88 0 157.5 -29t110.5 -69q47 -47 67.5 -102.5t20.5 -117.5q0 -63 -6 -92q-10 -45 -25 -84q-14 -37 -24 -47q-8 -8 -31 -8q-35 0 -76 -12q-35 -10 -51 -27q-20 -20 -28.5 -38.5t-8.5 -47.5q0 -47 27 -80 q28 -34 67 -61q47 -33 86 -54q51 -27 89 -61q39 -35 65 -84q27 -47 27 -119q0 -59 -22.5 -114.5t-63.5 -90.5q-51 -43 -103 -61q-59 -20 -139 -20q-39 0 -59 4q-12 2 -31 7t-23 7q-20 4 -43 16q-20 10 -26 17q-10 10 -13 22q-4 20 -4 43t2 31t7 21q2 6 10 10t10 4 q16 0 27 -8q14 -10 32 -19l47 -16q25 -8 64 -8q43 0 68 10q29 12 51 31q20 18 30.5 44.5t10.5 55.5q0 39 -14.5 65.5t-41.5 49.5q-31 27 -57 43q-16 10 -32.5 19t-32.5 20q-45 29 -66 45q-37 29 -57 55q-27 33 -41 72q-14 37 -15 94q0 53 17 92q20 47 47 74q29 29 74 51 q31 14 92 27q10 23 14 51q4 37 4 57q0 41 -10 70q-12 34 -37 61q-25 29 -59 45q-37 18 -90 19q-61 0 -103 -21q-45 -23 -67 -55q-25 -35 -37 -88q-10 -41 -11 -109v-962q0 -6 -4 -14.5t-14 -12.5q-9 -3 -25 -6q-10 -2 -40 -2q-29 0 -39 2q-20 4 -27 6q-10 4 -14 12 q-2 5 -2 15z" />
<glyph unicode="&#xe0;" horiz-adv-x="980" d="M92 256q0 76 31 131t90 92q58 37 141 56q92 20 189 20h125v70q0 52 -13 92q-12 41 -34 65q-27 29 -64 41q-41 12 -96 13q-63 0 -109 -15q-55 -16 -86 -33q-8 -4 -21.5 -10t-22.5 -11t-17 -9q-23 -14 -35 -15q-6 0 -14.5 4.5t-10.5 12.5q0 2 -3 9t-5 11q-2 8 -2 26.5 t4 39.5q4 14 17 28q10 10 47 31q18 10 76 31q43 16 94 25q57 10 102 10q94 0 166 -23q66 -20 111 -65q41 -41 59 -105q20 -72 20 -147v-606q0 -12 -8 -18.5t-22 -8.5q-20 -4 -41 -4t-41 4q-18 4 -23 8q-8 8 -8 19v90q-59 -66 -131 -99q-76 -35 -154 -34q-68 0 -127 18 q-57 18 -98 53q-43 37 -63 86q-23 56 -23 117zM260 262q0 -66 45 -110q41 -41 125 -41q68 0 121 32q57 35 117 101v190h-142q-78 0 -118 -10q-45 -10 -82 -35q-33 -20 -49.5 -53t-16.5 -74zM109 950zM240 1374q0 8 6 15q8 8 25 10q25 4 47 4q29 0 39 -2q20 -4 28 -6l19 -13 q8 -6 16 -16l144 -231l10 -21q2 -6 -4 -12q-4 -4 -19 -8q-8 -2 -34 -2h-33q-4 0 -23 6q-8 4 -16 10q-2 2 -5 4t-5 5t-4 5l-181 234q-10 10 -10 18z" />
<glyph unicode="&#xe1;" horiz-adv-x="980" d="M92 256q0 76 31 131t90 92q58 37 141 56q92 20 189 20h125v70q0 52 -13 92q-12 41 -34 65q-27 29 -64 41q-41 12 -96 13q-63 0 -109 -15q-55 -16 -86 -33q-8 -4 -21.5 -10t-22.5 -11t-17 -9q-23 -14 -35 -15q-6 0 -14.5 4.5t-10.5 12.5q0 2 -3 9t-5 11q-2 8 -2 26.5 t4 39.5q4 14 17 28q10 10 47 31q18 10 76 31q43 16 94 25q57 10 102 10q94 0 166 -23q66 -20 111 -65q41 -41 59 -105q20 -72 20 -147v-606q0 -12 -8 -18.5t-22 -8.5q-20 -4 -41 -4t-41 4q-18 4 -23 8q-8 8 -8 19v90q-59 -66 -131 -99q-76 -35 -154 -34q-68 0 -127 18 q-57 18 -98 53q-43 37 -63 86q-23 56 -23 117zM260 262q0 -66 45 -110q41 -41 125 -41q68 0 121 32q57 35 117 101v190h-142q-78 0 -118 -10q-45 -10 -82 -35q-33 -20 -49.5 -53t-16.5 -74zM283 950zM416 1114q0 4 8 21l146 231q6 12 12 16q16 12 20 13q16 4 28.5 6t41.5 2 q20 0 45 -4q16 -2 25 -10q6 -6 6 -15q0 -10 -8 -18l-183 -234l-14 -14q-8 -8 -14 -10q-18 -6 -23 -6h-33q-27 0 -34 2q-14 4 -18.5 8t-4.5 12z" />
<glyph unicode="&#xe2;" horiz-adv-x="980" d="M92 256q0 76 31 131t90 92q58 37 141 56q92 20 189 20h125v70q0 52 -13 92q-12 41 -34 65q-27 29 -64 41q-41 12 -96 13q-63 0 -109 -15q-55 -16 -86 -33q-8 -4 -21.5 -10t-22.5 -11t-17 -9q-23 -14 -35 -15q-6 0 -14.5 4.5t-10.5 12.5q0 2 -3 9t-5 11q-2 8 -2 26.5 t4 39.5q4 14 17 28q10 10 47 31q18 10 76 31q43 16 94 25q57 10 102 10q94 0 166 -23q66 -20 111 -65q41 -41 59 -105q20 -72 20 -147v-606q0 -12 -8 -18.5t-22 -8.5q-20 -4 -41 -4t-41 4q-18 4 -23 8q-8 8 -8 19v90q-59 -66 -131 -99q-76 -35 -154 -34q-68 0 -127 18 q-57 18 -98 53q-43 37 -63 86q-23 56 -23 117zM260 262q0 -66 45 -110q41 -41 125 -41q68 0 121 32q57 35 117 101v190h-142q-78 0 -118 -10q-45 -10 -82 -35q-33 -20 -49.5 -53t-16.5 -74zM92 950zM225 1122q2 6 17 25l163 229q6 9 13 13q12 6 18 8q12 4 25 4q4 0 17 1 t21.5 1t19.5 -1t15 -1q6 0 25 -6l16 -9l11 -10l165 -229q10 -12 15 -25q4 -10 0 -18q-4 -6 -21 -10q-10 -2 -41 -2h-32q-2 0 -21 6q-6 2 -12 8l-4 4l-4 4t-4 6l-132 180l-129 -180q-4 -6 -12 -14q-4 -4 -14 -8q-18 -6 -21 -6h-32q-31 0 -41 2q-12 2 -21 10q-4 4 0 18z" />
<glyph unicode="&#xe3;" horiz-adv-x="980" d="M92 256q0 76 31 131t90 92q58 37 141 56q92 20 189 20h125v70q0 52 -13 92q-12 41 -34 65q-27 29 -64 41q-41 12 -96 13q-63 0 -109 -15q-55 -16 -86 -33q-8 -4 -21.5 -10t-22.5 -11t-17 -9q-23 -14 -35 -15q-6 0 -14.5 4.5t-10.5 12.5q0 2 -3 9t-5 11q-2 8 -2 26.5 t4 39.5q4 14 17 28q10 10 47 31q18 10 76 31q43 16 94 25q57 10 102 10q94 0 166 -23q66 -20 111 -65q41 -41 59 -105q20 -72 20 -147v-606q0 -12 -8 -18.5t-22 -8.5q-20 -4 -41 -4t-41 4q-18 4 -23 8q-8 8 -8 19v90q-59 -66 -131 -99q-76 -35 -154 -34q-68 0 -127 18 q-57 18 -98 53q-43 37 -63 86q-23 56 -23 117zM260 262q0 -66 45 -110q41 -41 125 -41q68 0 121 32q57 35 117 101v190h-142q-78 0 -118 -10q-45 -10 -82 -35q-33 -20 -49.5 -53t-16.5 -74zM31 950zM160 1139q0 98 49 157.5t144 59.5q55 0 94 -21q41 -23 69 -45l60 -47 q27 -20 59 -20q37 0 55 26q18 29 19 78q0 16 10 23q8 6 45 6q33 0 49 -8q12 -6 13 -33q0 -106 -54 -164q-52 -55 -141 -55q-35 0 -65.5 10t-53.5 24q-27 16 -43 31l-39 33q-14 12 -39 25q-20 10 -41 10q-41 0 -57 -31q-14 -27 -14 -76q0 -8 -2 -12t-10.5 -8t-18.5 -4 q-4 0 -14 -1t-16.5 -1t-14.5 1t-12 1q-6 0 -19 6q-8 4 -10 12q-2 7 -2 23z" />
<glyph unicode="&#xe4;" horiz-adv-x="980" d="M92 256q0 76 31 131t90 92q58 37 141 56q92 20 189 20h125v70q0 52 -13 92q-12 41 -34 65q-27 29 -64 41q-41 12 -96 13q-63 0 -109 -15q-55 -16 -86 -33q-8 -4 -21.5 -10t-22.5 -11t-17 -9q-23 -14 -35 -15q-6 0 -14.5 4.5t-10.5 12.5q0 2 -3 9t-5 11q-2 8 -2 26.5 t4 39.5q4 14 17 28q10 10 47 31q18 10 76 31q43 16 94 25q57 10 102 10q94 0 166 -23q66 -20 111 -65q41 -41 59 -105q20 -72 20 -147v-606q0 -12 -8 -18.5t-22 -8.5q-20 -4 -41 -4t-41 4q-18 4 -23 8q-8 8 -8 19v90q-59 -66 -131 -99q-76 -35 -154 -34q-68 0 -127 18 q-57 18 -98 53q-43 37 -63 86q-23 56 -23 117zM260 262q0 -66 45 -110q41 -41 125 -41q68 0 121 32q57 35 117 101v190h-142q-78 0 -118 -10q-45 -10 -82 -35q-33 -20 -49.5 -53t-16.5 -74zM92 950zM223 1214q0 51 21 76q18 20 73.5 20.5t73.5 -20.5q18 -22 18 -73 q0 -55 -18 -74q-20 -20 -76 -21q-53 0 -71 19q-21 20 -21 73zM577 1214q0 51 21 76q18 20 73.5 20.5t73.5 -20.5q18 -22 19 -73q0 -53 -20.5 -74t-74 -21t-71.5 19q-21 20 -21 73z" />
<glyph unicode="&#xe5;" horiz-adv-x="980" d="M92 256q0 76 31 131t90 92q58 37 141 56q92 20 189 20h125v70q0 52 -13 92q-12 41 -34 65q-27 29 -64 41q-41 12 -96 13q-63 0 -109 -15q-55 -16 -86 -33q-8 -4 -21.5 -10t-22.5 -11t-17 -9q-23 -14 -35 -15q-6 0 -14.5 4.5t-10.5 12.5q0 2 -3 9t-5 11q-2 8 -2 26.5 t4 39.5q4 14 17 28q10 10 47 31q18 10 76 31q43 16 94 25q57 10 102 10q94 0 166 -23q66 -20 111 -65q41 -41 59 -105q20 -72 20 -147v-606q0 -12 -8 -18.5t-22 -8.5q-20 -4 -41 -4t-41 4q-18 4 -23 8q-8 8 -8 19v90q-59 -66 -131 -99q-76 -35 -154 -34q-68 0 -127 18 q-57 18 -98 53q-43 37 -63 86q-23 56 -23 117zM260 262q0 -66 45 -110q41 -41 125 -41q68 0 121 32q57 35 117 101v190h-142q-78 0 -118 -10q-45 -10 -82 -35q-33 -20 -49.5 -53t-16.5 -74zM690 1257q0 -47 -12 -73q-16 -33 -41 -60q-25 -23 -63 -37q-43 -14 -84 -14 q-49 0 -86 12q-33 12 -60 37q-23 23 -35 56q-12 34 -12 73q0 35 14 74q12 33 39 59q25 25 62 37.5t86 12.5q92 0 143 -48q49 -47 49 -129zM586 1251q0 41 -22.5 70t-69.5 29q-45 0 -67.5 -27t-22.5 -66q0 -45 20 -71q23 -29 72 -29q47 0 67 27q23 28 23 67zM166 950z" />
<glyph unicode="&#xe6;" horiz-adv-x="1581" d="M92 254q0 78 31 133t90 92q58 37 141 56q92 20 189 20h125v70q0 52 -13 92q-12 41 -34 65q-27 29 -64 41q-41 12 -96 13q-63 0 -109 -15q-55 -16 -86 -33q-8 -4 -21.5 -10t-22.5 -11t-17 -9q-23 -14 -37 -15q-6 0 -14.5 4.5t-10.5 12.5q-4 12 -6 20t-2 26.5t4 39.5 q4 14 17 28q10 10 47 31q18 10 76 31q43 16 94 25q57 10 102 10q66 0 115 -13q55 -14 84 -30q41 -25 63 -49q27 -31 41 -62q49 74 129 113q86 41 187 41q102 0 178 -35t121 -92q49 -61 69 -135q23 -80 23 -164v-31q0 -40 -19 -55q-20 -16 -45 -17h-590q0 -78 15 -135 q14 -55 51 -102q37 -45 92 -68q57 -23 137 -22q57 0 113 10q29 6 86 25q12 4 61 22q27 10 35.5 10t12.5 -2t8 -10t4 -20q0 -4 1 -14.5t1 -16.5v-23q0 -4 -2 -9t-2 -7q0 -6 -4 -14l-10 -11q-8 -8 -31 -18q-27 -12 -72 -25q-51 -14 -98 -22q-49 -8 -119 -8q-78 0 -125 10 q-63 14 -100 33q-47 25 -80 53q-35 31 -60 72q-29 -33 -71 -70q-47 -39 -80 -55q-37 -18 -90 -33q-39 -10 -101 -10q-68 0 -127 18q-57 18 -98 53q-43 37 -63 86q-23 56 -23 115zM260 262q0 -66 45 -110q41 -41 125 -41q66 0 127 36q63 37 129 119q-8 25 -16 80q-4 31 -4 88 h-140q-78 0 -118 -10q-45 -10 -82 -35q-33 -20 -49.5 -53t-16.5 -74zM831 563h490q0 68 -14.5 117t-44.5 86q-33 39 -74 55q-51 20 -104.5 20.5t-106.5 -24.5q-47 -23 -78 -59q-33 -41 -49 -90q-16 -50 -19 -105z" />
<glyph unicode="&#xe7;" horiz-adv-x="864" d="M90 465q0 135 33 227q35 98 88 158q51 57 133 90q72 29 166 29q49 0 84 -8q47 -10 74 -21q34 -12 61 -31q31 -20 39 -28q14 -14 16 -18.5t6.5 -16.5t4.5 -23q0 -4 1 -13t1 -15q0 -39 -11 -56q-8 -14 -20 -14q-14 0 -35 16q-2 2 -49 35q-31 22 -74 37q-45 16 -100 16 q-119 0 -182.5 -90t-63.5 -266q0 -84 17 -154q14 -59 49 -108q31 -43 78 -66q43 -20 106 -20q61 0 100 16.5t74 40.5q43 31 53 39q18 16 33 17q4 0 12 -5q4 -2 9 -12q6 -18 6 -24q0 -4 1 -15.5t1 -19.5q0 -6 -1 -15.5t-1 -13.5q0 -10 -4 -22q-2 -6 -6.5 -14.5t-14.5 -18.5 q-14 -14 -45 -33q-29 -16 -78 -37q-45 -18 -106 -24l26 -58q23 -47 31 -76q8 -27 8 -55q0 -43 -12 -67.5t-41 -49.5q-23 -20 -61 -32q-31 -10 -82 -11q-25 0 -66 5q-27 2 -53 10q-8 2 -18.5 4t-12.5 4q-8 2 -12 10q-6 12 -6 15v24q0 31 6 41t20 10h125q29 0 49 15 q18 12 19 41q0 14 -6 32q-4 12 -17 41l-47 105q-102 18 -170 80q-66 59 -100.5 159.5t-34.5 233.5z" />
<glyph unicode="&#xe8;" horiz-adv-x="1017" d="M92 471q0 117 31 209q31 90 86 156q57 66 137 100q82 35 178 35q104 0 181 -35q74 -34 122 -92q51 -59 72 -135q23 -80 23 -164v-31q0 -39 -20.5 -55.5t-45.5 -16.5h-590q0 -70 17 -135q14 -59 49 -102q37 -45 92 -68q57 -23 135 -22q59 0 115 10q29 6 86 25q12 4 61 22 q27 10 35 10t12 -2t8.5 -10t4.5 -20q0 -4 1 -14.5t1 -16.5v-23q0 -4 -2 -9t-2 -7q0 -6 -5 -14q-2 -4 -8 -10.5t-32 -18.5q-29 -12 -70 -25q-49 -14 -100 -22q-49 -8 -121 -8q-113 0 -195 30q-80 29 -139 92q-59 61 -86 152q-31 102 -31 215zM266 563h490v13q0 123 -58 192 q-61 74 -180 74q-53 0 -106 -25q-47 -23 -78 -59q-25 -29 -47 -90q-17 -46 -21 -105zM135 950zM266 1374q0 8 6 15q8 8 25 10q25 4 47 4q29 0 39 -2q20 -4 28 -6l19 -13q8 -6 16 -16l144 -231l10 -21q2 -6 -4 -12q-4 -4 -19 -8q-8 -2 -34 -2h-33q-4 0 -23 6q-8 4 -16 10 q-2 2 -5 4t-5 5t-4 5l-181 234q-10 10 -10 18z" />
<glyph unicode="&#xe9;" horiz-adv-x="1017" d="M92 471q0 117 31 209q31 90 86 156q57 66 137 100q82 35 178 35q104 0 181 -35q74 -34 122 -92q51 -59 72 -135q23 -80 23 -164v-31q0 -39 -20.5 -55.5t-45.5 -16.5h-590q0 -70 17 -135q14 -59 49 -102q37 -45 92 -68q57 -23 135 -22q59 0 115 10q29 6 86 25q12 4 61 22 q27 10 35 10t12 -2t8.5 -10t4.5 -20q0 -4 1 -14.5t1 -16.5v-23q0 -4 -2 -9t-2 -7q0 -6 -5 -14q-2 -4 -8 -10.5t-32 -18.5q-29 -12 -70 -25q-49 -14 -100 -22q-49 -8 -121 -8q-113 0 -195 30q-80 29 -139 92q-59 61 -86 152q-31 102 -31 215zM266 563h490v13q0 123 -58 192 q-61 74 -180 74q-53 0 -106 -25q-47 -23 -78 -59q-25 -29 -47 -90q-17 -46 -21 -105zM307 950zM440 1114q0 4 8 21l146 231q6 12 12 16q16 12 20 13q16 4 28.5 6t41.5 2q20 0 45 -4q16 -2 25 -10q6 -6 6 -15q0 -10 -8 -18l-183 -234l-14 -14q-8 -8 -14 -10q-18 -6 -23 -6 h-33q-27 0 -34 2q-14 4 -18.5 8t-4.5 12z" />
<glyph unicode="&#xea;" horiz-adv-x="1017" d="M92 471q0 117 31 209q31 90 86 156q57 66 137 100q82 35 178 35q104 0 181 -35q74 -34 122 -92q51 -59 72 -135q23 -80 23 -164v-31q0 -39 -20.5 -55.5t-45.5 -16.5h-590q0 -70 17 -135q14 -59 49 -102q37 -45 92 -68q57 -23 135 -22q59 0 115 10q29 6 86 25q12 4 61 22 q27 10 35 10t12 -2t8.5 -10t4.5 -20q0 -4 1 -14.5t1 -16.5v-23q0 -4 -2 -9t-2 -7q0 -6 -5 -14q-2 -4 -8 -10.5t-32 -18.5q-29 -12 -70 -25q-49 -14 -100 -22q-49 -8 -121 -8q-113 0 -195 30q-80 29 -139 92q-59 61 -86 152q-31 102 -31 215zM266 563h490v13q0 123 -58 192 q-61 74 -180 74q-53 0 -106 -25q-47 -23 -78 -59q-25 -29 -47 -90q-17 -46 -21 -105zM113 950zM246 1122q2 6 17 25l163 229q6 9 13 13q12 6 18 8q12 4 25 4q4 0 17 1t21.5 1t19.5 -1t15 -1q6 0 25 -6l16 -9l11 -10l165 -229q10 -12 15 -25q4 -10 0 -18q-4 -6 -21 -10 q-10 -2 -41 -2h-32q-2 0 -21 6q-6 2 -12 8l-4 4l-4 4t-4 6l-132 180l-129 -180q-4 -6 -12 -14q-4 -4 -14 -8q-18 -6 -21 -6h-32q-31 0 -41 2q-12 2 -21 10q-4 4 0 18z" />
<glyph unicode="&#xeb;" horiz-adv-x="1017" d="M92 471q0 117 31 209q31 90 86 156q57 66 137 100q82 35 178 35q104 0 181 -35q74 -34 122 -92q51 -59 72 -135q23 -80 23 -164v-31q0 -39 -20.5 -55.5t-45.5 -16.5h-590q0 -70 17 -135q14 -59 49 -102q37 -45 92 -68q57 -23 135 -22q59 0 115 10q29 6 86 25q12 4 61 22 q27 10 35 10t12 -2t8.5 -10t4.5 -20q0 -4 1 -14.5t1 -16.5v-23q0 -4 -2 -9t-2 -7q0 -6 -5 -14q-2 -4 -8 -10.5t-32 -18.5q-29 -12 -70 -25q-49 -14 -100 -22q-49 -8 -121 -8q-113 0 -195 30q-80 29 -139 92q-59 61 -86 152q-31 102 -31 215zM266 563h490v13q0 123 -58 192 q-61 74 -180 74q-53 0 -106 -25q-47 -23 -78 -59q-25 -29 -47 -90q-17 -46 -21 -105zM115 950zM246 1214q0 51 21 76q18 20 73.5 20.5t73.5 -20.5q18 -22 18 -73q0 -55 -18 -74q-20 -20 -76 -21q-53 0 -71 19q-21 20 -21 73zM600 1214q0 51 21 76q18 20 73.5 20.5 t73.5 -20.5q18 -22 19 -73q0 -53 -20.5 -74t-74 -21t-71.5 19q-21 20 -21 73z" />
<glyph unicode="&#xec;" horiz-adv-x="468" d="M317 25q0 -4 -4 -12.5t-12 -10.5q-9 -3 -25 -6q-10 -2 -40.5 -2t-40.5 2q-15 3 -25 6q-10 4 -14 10q-2 4 -2 13v901q0 8 2 12q4 6 14 10q18 6 25 6q4 0 18 1t22.5 1t22.5 -1t18 -1q6 0 25 -6q8 -2 12 -10t4 -12v-901zM-145 950zM-14 1374q0 8 6 15q8 8 25 10q25 4 47 4 q29 0 39 -2q20 -4 28 -6l19 -13q8 -6 16 -16l144 -231l10 -21q2 -6 -4 -12q-4 -4 -19 -8q-8 -2 -34 -2h-33q-4 0 -23 6q-8 4 -16 10q-2 2 -5 4t-5 5t-4 5l-181 234q-10 10 -10 18z" />
<glyph unicode="&#xed;" horiz-adv-x="468" d="M317 25q0 -4 -4 -12.5t-12 -10.5q-9 -3 -25 -6q-10 -2 -40.5 -2t-40.5 2q-15 3 -25 6q-10 4 -14 10q-2 4 -2 13v901q0 8 2 12q4 6 14 10q18 6 25 6q4 0 18 1t22.5 1t22.5 -1t18 -1q6 0 25 -6q8 -2 12 -10t4 -12v-901zM14 950zM147 1114q0 4 8 21l146 231q6 12 12 16 q16 12 20 13q16 4 28.5 6t41.5 2q20 0 45 -4q16 -2 25 -10q6 -6 6 -15q0 -10 -8 -18l-183 -234l-14 -14q-8 -8 -14 -10q-18 -6 -23 -6h-33q-27 0 -34 2q-14 4 -18.5 8t-4.5 12z" />
<glyph unicode="&#xee;" horiz-adv-x="468" d="M317 25q0 -4 -4 -12.5t-12 -10.5q-9 -3 -25 -6q-10 -2 -40.5 -2t-40.5 2q-15 3 -25 6q-10 4 -14 10q-2 4 -2 13v901q0 8 2 12q4 6 14 10q18 6 25 6q4 0 18 1t22.5 1t22.5 -1t18 -1q6 0 25 -6q8 -2 12 -10t4 -12v-901zM-166 950zM-33 1122q2 6 17 25l163 229q6 9 13 13 q12 6 18 8q12 4 25 4q4 0 17 1t21.5 1t19.5 -1t15 -1q6 0 25 -6l16 -9l11 -10l165 -229q10 -12 15 -25q4 -10 0 -18q-4 -6 -21 -10q-10 -2 -41 -2h-32q-2 0 -21 6q-6 2 -12 8l-4 4l-4 4t-4 6l-132 180l-129 -180q-4 -6 -12 -14q-4 -4 -14 -8q-18 -6 -21 -6h-32q-31 0 -41 2 q-12 2 -21 10q-4 4 0 18z" />
<glyph unicode="&#xef;" horiz-adv-x="468" d="M317 25q0 -4 -4 -12.5t-12 -10.5q-9 -3 -25 -6q-10 -2 -40.5 -2t-40.5 2q-15 3 -25 6q-10 4 -14 10q-2 4 -2 13v901q0 8 2 12q4 6 14 10q18 6 25 6q4 0 18 1t22.5 1t22.5 -1t18 -1q6 0 25 -6q8 -2 12 -10t4 -12v-901zM172 1217q0 -55 -18 -74q-20 -20 -74 -21 q-51 0 -69 19q-20 20 -21 73q0 51 21 76q18 20 71 20.5t72 -20.5q18 -21 18 -73zM484 1217q0 -53 -20.5 -74t-72 -21t-69.5 19q-20 20 -21 73q0 51 21 76q18 20 69 21q55 0 74 -21t19 -73zM-141 950z" />
<glyph unicode="&#xf0;" horiz-adv-x="1075" d="M96 465q0 119 29 217q27 94 76 158q47 61 123 98q68 33 159 33q27 0 68 -8q31 -6 63 -23q41 -20 62 -35q27 -18 59 -51q-2 6 -9 25.5l-11 31.5q-8 20 -33 70q-14 29 -47 76q-35 49 -66 86l-272 -72h-18q-8 0 -11 6l-8 17q-2 8 -2 30q0 20 2 28.5t8 21.5q4 6 11 10 q12 6 18 8l188 47q-20 25 -24 29l-29 30q-6 8 -14 15.5t-15 15.5l-26 29q-8 8 -8 12q0 6 6 10q10 4 28 9q12 2 54 2q39 0 53 -2q6 0 17.5 -1.5t17.5 -3.5q10 -2 22 -10q2 -2 8.5 -6t8.5 -6l47 -53l12 -12.5t9 -10.5l3 -4l252 64q6 2 19 2q8 0 10 -7l8 -16q2 -8 2 -31 q0 -20 -2 -28q-2 -4 -5 -11.5t-3 -9.5q-2 -8 -10 -12q-6 -3 -19 -6l-172 -43q49 -61 94 -140q37 -61 64 -143q20 -61 35 -153q12 -80 12 -177q0 -143 -27 -249q-29 -111 -82 -187q-53 -74 -141 -115q-84 -39 -201 -38q-113 0 -186 36q-72 37 -121 105q-43 59 -65 153 q-21 85 -21 189zM266 481q0 -71 13 -135q14 -74 36 -115q29 -51 70 -79.5t111 -28.5q66 0 118 24q51 25 86 78q33 49 52 133q18 80 18 193q0 12 -1 32.5t-1 28.5q0 33 -2 45q-39 43 -76 76t-67 53q-35 23 -64 31q-35 10 -61 10q-59 0 -101 -26q-45 -29 -73.5 -76t-42.5 -109 q-15 -59 -15 -135z" />
<glyph unicode="&#xf1;" horiz-adv-x="1075" d="M154 25v901q0 8 2 12q4 8 12 10q18 6 22.5 6t16.5 1t20.5 1t20.5 -1t16 -1t23 -6q8 -2 12 -10q2 -4 2 -12v-119q74 82 151.5 123t153.5 41q90 0 152 -31q63 -31 98 -82q41 -59 55 -119q16 -72 17 -166v-548q0 -4 -4 -12.5t-13 -10.5q-9 -3 -24 -6q-10 -2 -41 -2t-41 2 q-15 3 -25 6q-8 2 -12 10t-4 13v528q0 77 -12 123q-12 47 -35 82q-20 31 -60 51q-37 18 -86 18q-59 0 -122 -45q-66 -47 -132 -129v-628q0 -4 -4 -12.5t-12 -10.5q-9 -3 -25 -6q-10 -2 -40.5 -2t-40.5 2q-15 3 -25 6q-10 4 -14 10q-2 5 -2 13zM78 950zM207 1139 q0 98 49 157.5t144 59.5q55 0 94 -21q41 -23 69 -45l60 -47q27 -20 59 -20q37 0 55 26q18 29 19 78q0 16 10 23q8 6 45 6q33 0 49 -8q12 -6 13 -33q0 -106 -54 -164q-52 -55 -141 -55q-35 0 -65.5 10t-53.5 24q-27 16 -43 31l-39 33q-14 12 -39 25q-20 10 -41 10 q-41 0 -57 -31q-14 -27 -14 -76q0 -8 -2 -12t-10.5 -8t-18.5 -4q-4 0 -14 -1t-16.5 -1t-14.5 1t-12 1q-6 0 -19 6q-8 4 -10 12q-2 7 -2 23z" />
<glyph unicode="&#xf2;" horiz-adv-x="1079" d="M90 467q0 106 29 203q28 92 86 159q59 68 143 105q86 37 201 37t194 -33q84 -35 138 -96q53 -63 82 -154q27 -86 26 -203q0 -106 -28 -202q-28 -92 -87 -160t-143 -105q-86 -37 -200.5 -36.5t-194.5 32.5q-84 35 -137 97q-55 63 -82 151q-27 86 -27 205zM262 477 q0 -61 14 -137q12 -61 46 -115q29 -47 84 -75q53 -29 133 -29q72 0 125 24q49 23 86 74q37 49 51 113q14 59 14 141q0 76 -12 139q-10 57 -45 113q-31 49 -84 77.5t-131 28.5q-76 0 -127 -24q-49 -23 -86 -74q-37 -49 -51 -112q-17 -70 -17 -144zM152 950zM283 1374 q0 8 6 15q8 8 25 10q25 4 47 4q29 0 39 -2q20 -4 28 -6l19 -13q8 -6 16 -16l144 -231l10 -21q2 -6 -4 -12q-4 -4 -19 -8q-8 -2 -34 -2h-33q-4 0 -23 6q-8 4 -16 10q-2 2 -5 4t-5 5t-4 5l-181 234q-10 10 -10 18z" />
<glyph unicode="&#xf3;" horiz-adv-x="1079" d="M90 467q0 106 29 203q28 92 86 159q59 68 143 105q86 37 201 37t194 -33q84 -35 138 -96q53 -63 82 -154q27 -86 26 -203q0 -106 -28 -202q-28 -92 -87 -160t-143 -105q-86 -37 -200.5 -36.5t-194.5 32.5q-84 35 -137 97q-55 63 -82 151q-27 86 -27 205zM262 477 q0 -61 14 -137q12 -61 46 -115q29 -47 84 -75q53 -29 133 -29q72 0 125 24q49 23 86 74q37 49 51 113q14 59 14 141q0 76 -12 139q-10 57 -45 113q-31 49 -84 77.5t-131 28.5q-76 0 -127 -24q-49 -23 -86 -74q-37 -49 -51 -112q-17 -70 -17 -144zM336 950zM469 1114 q0 4 8 21l146 231q6 12 12 16q16 12 20 13q16 4 28.5 6t41.5 2q20 0 45 -4q16 -2 25 -10q6 -6 6 -15q0 -10 -8 -18l-183 -234l-14 -14q-8 -8 -14 -10q-18 -6 -23 -6h-33q-27 0 -34 2q-14 4 -18.5 8t-4.5 12z" />
<glyph unicode="&#xf4;" horiz-adv-x="1079" d="M90 467q0 106 29 203q28 92 86 159q59 68 143 105q86 37 201 37t194 -33q84 -35 138 -96q53 -63 82 -154q27 -86 26 -203q0 -106 -28 -202q-28 -92 -87 -160t-143 -105q-86 -37 -200.5 -36.5t-194.5 32.5q-84 35 -137 97q-55 63 -82 151q-27 86 -27 205zM262 477 q0 -61 14 -137q12 -61 46 -115q29 -47 84 -75q53 -29 133 -29q72 0 125 24q49 23 86 74q37 49 51 113q14 59 14 141q0 76 -12 139q-10 57 -45 113q-31 49 -84 77.5t-131 28.5q-76 0 -127 -24q-49 -23 -86 -74q-37 -49 -51 -112q-17 -70 -17 -144zM135 950zM268 1122 q2 6 17 25l163 229q6 9 13 13q12 6 18 8q12 4 25 4q4 0 17 1t21.5 1t19.5 -1t15 -1q6 0 25 -6l16 -9l11 -10l165 -229q10 -12 15 -25q4 -10 0 -18q-4 -6 -21 -10q-10 -2 -41 -2h-32q-2 0 -21 6q-6 2 -12 8l-4 4l-4 4t-4 6l-132 180l-129 -180q-4 -6 -12 -14q-4 -4 -14 -8 q-18 -6 -21 -6h-32q-31 0 -41 2q-12 2 -21 10q-4 4 0 18z" />
<glyph unicode="&#xf5;" horiz-adv-x="1079" d="M90 467q0 106 29 203q28 92 86 159q59 68 143 105q86 37 201 37t194 -33q84 -35 138 -96q53 -63 82 -154q27 -86 26 -203q0 -106 -28 -202q-28 -92 -87 -160t-143 -105q-86 -37 -200.5 -36.5t-194.5 32.5q-84 35 -137 97q-55 63 -82 151q-27 86 -27 205zM262 477 q0 -61 14 -137q12 -61 46 -115q29 -47 84 -75q53 -29 133 -29q72 0 125 24q49 23 86 74q37 49 51 113q14 59 14 141q0 76 -12 139q-10 57 -45 113q-31 49 -84 77.5t-131 28.5q-76 0 -127 -24q-49 -23 -86 -74q-37 -49 -51 -112q-17 -70 -17 -144zM80 950zM209 1139 q0 98 49 157.5t144 59.5q55 0 94 -21q41 -23 69 -45l60 -47q27 -20 59 -20q37 0 55 26q18 29 19 78q0 16 10 23q8 6 45 6q33 0 49 -8q12 -6 13 -33q0 -106 -54 -164q-52 -55 -141 -55q-35 0 -65.5 10t-53.5 24q-27 16 -43 31l-39 33q-14 12 -39 25q-20 10 -41 10 q-41 0 -57 -31q-14 -27 -14 -76q0 -8 -2 -12t-10.5 -8t-18.5 -4q-4 0 -14 -1t-16.5 -1t-14.5 1t-12 1q-6 0 -19 6q-8 4 -10 12q-2 7 -2 23z" />
<glyph unicode="&#xf6;" horiz-adv-x="1079" d="M90 467q0 106 29 203q28 92 86 159q59 68 143 105q86 37 201 37t194 -33q84 -35 138 -96q53 -63 82 -154q27 -86 26 -203q0 -106 -28 -202q-28 -92 -87 -160t-143 -105q-86 -37 -200.5 -36.5t-194.5 32.5q-84 35 -137 97q-55 63 -82 151q-27 86 -27 205zM262 477 q0 -61 14 -137q12 -61 46 -115q29 -47 84 -75q53 -29 133 -29q72 0 125 24q49 23 86 74q37 49 51 113q14 59 14 141q0 76 -12 139q-10 57 -45 113q-31 49 -84 77.5t-131 28.5q-76 0 -127 -24q-49 -23 -86 -74q-37 -49 -51 -112q-17 -70 -17 -144zM139 950zM270 1214 q0 51 21 76q18 20 73.5 20.5t73.5 -20.5q18 -22 18 -73q0 -55 -18 -74q-20 -20 -76 -21q-53 0 -71 19q-21 20 -21 73zM624 1214q0 51 21 76q18 20 73.5 20.5t73.5 -20.5q18 -22 19 -73q0 -53 -20.5 -74t-74 -21t-71.5 19q-21 20 -21 73z" />
<glyph unicode="&#xf7;" d="M43 578q0 23 2 30q4 16 6 22.5t10.5 10.5t14.5 4h850q6 0 14 -4t10 -10q0 -2 3 -10.5t5 -12.5q2 -8 3 -30q0 -25 -3 -33q-2 -4 -5 -12.5t-3 -10.5q-2 -8 -10 -12t-14 -4h-850q-6 0 -14.5 4t-10.5 12q-2 6 -6 23q-2 8 -2 33zM385 205q0 33 6 57q6 23 19 39q10 12 36 21 q22 6 56 6t55 -6q27 -8 37 -21q12 -16 18 -39q6 -25 6 -57q0 -34 -6 -55.5t-18 -36.5q-10 -12 -37 -21q-22 -6 -55.5 -6t-55.5 6q-27 8 -36 21q-12 15 -18.5 36.5t-6.5 55.5zM385 944q0 33 6 57q4 20 19 37q10 12 36 21q29 8 55.5 8t55.5 -8q27 -8 37 -21q14 -16 18 -37 q6 -25 6 -57q0 -35 -6 -57t-18 -37q-10 -12 -37 -21q-22 -6 -55.5 -6t-55.5 6q-27 8 -36 21q-12 15 -19 37q-6 22 -6 57z" />
<glyph unicode="&#xf8;" horiz-adv-x="1083" d="M90 467q0 106 29 203q28 92 86 159q57 68 145 105q86 37 203 37q37 0 74 -6q49 -8 71 -15l66 137q8 14 26.5 20.5t53.5 6.5q45 0 55 -10t-2 -33l-80 -172q41 -25 78 -72q35 -45 55 -96q25 -63 33 -117q10 -68 10 -129q0 -106 -28 -202q-28 -92 -86 -160 q-57 -68 -146 -105q-86 -37 -201 -36q-57 0 -81 4q-33 6 -66 16l-68 -141q-6 -14 -26 -21q-18 -6 -53 -6q-45 0 -56 10q-12 12 0 33l84 174q-43 29 -80 76q-34 43 -55 98q-23 57 -31 115q-10 68 -10 127zM254 475q0 -82 18 -156q18 -72 68 -120l301 624q-41 12 -45 13 q-33 4 -55 4q-74 0 -127.5 -27t-89.5 -76q-35 -45 -54 -114q-16 -60 -16 -148zM444 129q20 -8 48 -12q33 -4 51 -4q70 0 129 26q49 23 88 74q35 45 53 115q16 59 16 147q0 27 -4 80q-2 27 -14 76q-8 29 -27 67q-12 25 -41 54z" />
<glyph unicode="&#xf9;" horiz-adv-x="1075" d="M147 379v547q0 4 5 12q4 6 14 10q18 6 24 6q4 0 18.5 1t23 1t21.5 -1t17 -1q8 0 27 -6q8 -2 12 -10t4 -12v-525q0 -82 13 -127q14 -53 34 -81q25 -33 60 -52q37 -18 84 -18q59 0 123 45q66 47 131 129v629q0 4 4 12t12 10q18 6 27 6q4 0 18.5 1t22.5 1t21.5 -1t17.5 -1 q6 0 24 -6q10 -4 15 -10q4 -8 4 -12v-901q0 -4 -4.5 -12.5t-12.5 -10.5q-12 -4 -22.5 -6t-34.5 -2q-29 0 -39 2t-23 6q-8 2 -12 10q-2 4 -2 13v118q-70 -80 -151 -123q-72 -39 -154 -38q-92 0 -150 28q-66 33 -100 82q-41 57 -55 121q-17 72 -17 166zM141 950zM272 1374 q0 8 6 15q8 8 25 10q25 4 47 4q29 0 39 -2q20 -4 28 -6l19 -13q8 -6 16 -16l144 -231l10 -21q2 -6 -4 -12q-4 -4 -19 -8q-8 -2 -34 -2h-33q-4 0 -23 6q-8 4 -16 10q-2 2 -5 4t-5 5t-4 5l-181 234q-10 10 -10 18z" />
<glyph unicode="&#xfa;" horiz-adv-x="1075" d="M147 379v547q0 4 5 12q4 6 14 10q18 6 24 6q4 0 18.5 1t23 1t21.5 -1t17 -1q8 0 27 -6q8 -2 12 -10t4 -12v-525q0 -82 13 -127q14 -53 34 -81q25 -33 60 -52q37 -18 84 -18q59 0 123 45q66 47 131 129v629q0 4 4 12t12 10q18 6 27 6q4 0 18.5 1t22.5 1t21.5 -1t17.5 -1 q6 0 24 -6q10 -4 15 -10q4 -8 4 -12v-901q0 -4 -4.5 -12.5t-12.5 -10.5q-12 -4 -22.5 -6t-34.5 -2q-29 0 -39 2t-23 6q-8 2 -12 10q-2 4 -2 13v118q-70 -80 -151 -123q-72 -39 -154 -38q-92 0 -150 28q-66 33 -100 82q-41 57 -55 121q-17 72 -17 166zM334 950zM467 1114 q0 4 8 21l146 231q6 12 12 16q16 12 20 13q16 4 28.5 6t41.5 2q20 0 45 -4q16 -2 25 -10q6 -6 6 -15q0 -10 -8 -18l-183 -234l-14 -14q-8 -8 -14 -10q-18 -6 -23 -6h-33q-27 0 -34 2q-14 4 -18.5 8t-4.5 12z" />
<glyph unicode="&#xfb;" horiz-adv-x="1075" d="M147 379v547q0 4 5 12q4 6 14 10q18 6 24 6q4 0 18.5 1t23 1t21.5 -1t17 -1q8 0 27 -6q8 -2 12 -10t4 -12v-525q0 -82 13 -127q14 -53 34 -81q25 -33 60 -52q37 -18 84 -18q59 0 123 45q66 47 131 129v629q0 4 4 12t12 10q18 6 27 6q4 0 18.5 1t22.5 1t21.5 -1t17.5 -1 q6 0 24 -6q10 -4 15 -10q4 -8 4 -12v-901q0 -4 -4.5 -12.5t-12.5 -10.5q-12 -4 -22.5 -6t-34.5 -2q-29 0 -39 2t-23 6q-8 2 -12 10q-2 4 -2 13v118q-70 -80 -151 -123q-72 -39 -154 -38q-92 0 -150 28q-66 33 -100 82q-41 57 -55 121q-17 72 -17 166zM133 950zM266 1122 q2 6 17 25l163 229q6 9 13 13q12 6 18 8q12 4 25 4q4 0 17 1t21.5 1t19.5 -1t15 -1q6 0 25 -6l16 -9l11 -10l165 -229q10 -12 15 -25q4 -10 0 -18q-4 -6 -21 -10q-10 -2 -41 -2h-32q-2 0 -21 6q-6 2 -12 8l-4 4l-4 4t-4 6l-132 180l-129 -180q-4 -6 -12 -14q-4 -4 -14 -8 q-18 -6 -21 -6h-32q-31 0 -41 2q-12 2 -21 10q-4 4 0 18z" />
<glyph unicode="&#xfc;" horiz-adv-x="1075" d="M147 379v547q0 4 5 12q4 6 14 10q18 6 24 6q4 0 18.5 1t23 1t21.5 -1t17 -1q8 0 27 -6q8 -2 12 -10t4 -12v-525q0 -82 13 -127q14 -53 34 -81q25 -33 60 -52q37 -18 84 -18q59 0 123 45q66 47 131 129v629q0 4 4 12t12 10q18 6 27 6q4 0 18.5 1t22.5 1t21.5 -1t17.5 -1 q6 0 24 -6q10 -4 15 -10q4 -8 4 -12v-901q0 -4 -4.5 -12.5t-12.5 -10.5q-12 -4 -22.5 -6t-34.5 -2q-29 0 -39 2t-23 6q-8 2 -12 10q-2 4 -2 13v118q-70 -80 -151 -123q-72 -39 -154 -38q-92 0 -150 28q-66 33 -100 82q-41 57 -55 121q-17 72 -17 166zM137 950zM268 1214 q0 51 21 76q18 20 73.5 20.5t73.5 -20.5q18 -22 18 -73q0 -55 -18 -74q-20 -20 -76 -21q-53 0 -71 19q-21 20 -21 73zM622 1214q0 51 21 76q18 20 73.5 20.5t73.5 -20.5q18 -22 19 -73q0 -53 -20.5 -74t-74 -21t-71.5 19q-21 20 -21 73z" />
<glyph unicode="&#xfd;" horiz-adv-x="925" d="M35 926q0 12 8 18q12 8 24.5 10t49.5 2q10 0 26.5 -1t20.5 -1q8 0 26 -6q10 -4 15 -10q0 -2 3 -9t5 -11l258 -723h2l250 727q6 18 14 24t25 8q12 2 49 2q33 0 45 -2q14 -2 27 -10q10 -6 10 -18.5t-6 -30.5l-324 -895l-121 -332q-6 -15 -30 -24q-23 -8 -74 -9q-31 0 -41 3 q-12 2 -25 10q-10 6 -10 14q0 14 4 25l125 313q-6 2 -16 12q-8 8 -13 21l-319 860q-8 19 -8 33zM266 950zM399 1114q0 4 8 21l146 231q6 12 12 16q16 12 20 13q16 4 28.5 6t41.5 2q20 0 45 -4q16 -2 25 -10q6 -6 6 -15q0 -10 -8 -18l-183 -234l-14 -14q-8 -8 -14 -10 q-18 -6 -23 -6h-33q-27 0 -34 2q-14 4 -18.5 8t-4.5 12z" />
<glyph unicode="&#xfe;" horiz-adv-x="1075" d="M154 -332v1694q0 8 2 12q4 6 14 10q9 3 25 7q10 2 40.5 2t40.5 -2q15 -3 25 -7q8 -2 12 -10t4 -12v-541q41 41 74 66q45 35 72 47q33 16 74 26.5t79 10.5q98 0 168 -39t113 -105q41 -61 64 -153q20 -84 20 -187q0 -119 -24.5 -211t-75.5 -159q-53 -70 -121 -101 q-76 -35 -166 -34q-45 0 -76 8q-45 12 -67 24q-37 20 -66 43q-4 4 -68 62v-451q0 -6 -4 -14t-12 -10q-9 -3 -25 -6q-10 -2 -40.5 -2.5t-40.5 2.5q-15 3 -25 6q-10 4 -14 10q-2 4 -2 14zM317 295q68 -82 131.5 -127t129.5 -45q61 0 104 31q45 33 72 79q29 51 41 111 q12 61 12 125q0 61 -10 133q-8 57 -37 115q-23 47 -70 80q-43 31 -106 30q-37 0 -64 -8q-31 -9 -61 -31q-47 -33 -68 -53q-29 -29 -74 -84v-356z" />
<glyph unicode="&#xff;" horiz-adv-x="925" d="M35 926q0 12 8 18q12 8 24.5 10t49.5 2q10 0 26.5 -1t20.5 -1q8 0 26 -6q10 -4 15 -10q0 -2 3 -9t5 -11l258 -723h2l250 727q6 18 14 24t25 8q12 2 49 2q33 0 45 -2q14 -2 27 -10q10 -6 10 -18.5t-6 -30.5l-324 -895l-121 -332q-6 -15 -30 -24q-23 -8 -74 -9q-31 0 -41 3 q-12 2 -25 10q-10 6 -10 14q0 14 4 25l125 313q-6 2 -16 12q-8 8 -13 21l-319 860q-8 19 -8 33zM63 950zM194 1214q0 51 21 76q18 20 73.5 20.5t73.5 -20.5q18 -22 18 -73q0 -55 -18 -74q-20 -20 -76 -21q-53 0 -71 19q-21 20 -21 73zM548 1214q0 51 21 76q18 20 73.5 20.5 t73.5 -20.5q18 -22 19 -73q0 -53 -20.5 -74t-74 -21t-71.5 19q-21 20 -21 73z" />
<glyph unicode="&#x131;" horiz-adv-x="468" d="M317 25q0 -4 -4 -12.5t-12 -10.5q-9 -3 -25 -6q-10 -2 -40.5 -2t-40.5 2q-15 3 -25 6q-10 4 -14 10q-2 4 -2 13v901q0 8 2 12q4 6 14 10q18 6 25 6q4 0 18 1t22.5 1t22.5 -1t18 -1q6 0 25 -6q8 -2 12 -10t4 -12v-901z" />
<glyph unicode="&#x152;" horiz-adv-x="1773" d="M98 639q0 152 37 279q37 123 113 212q78 90 184 136q113 47 258 47q82 0 146 -17q74 -18 122 -45q6 23 22.5 33t35.5 10h608q6 0 14.5 -4t10.5 -12q2 -6 6 -22.5t4 -34.5q0 -14 -4 -30.5t-6 -23.5q-2 -8 -10.5 -12t-14.5 -4h-506v-408h434q6 0 14.5 -4t10.5 -12 q2 -6 6 -22q2 -8 2 -33t-2 -33t-6 -21q-4 -10 -10 -14q-8 -4 -15 -4h-434v-457h514q4 0 13 -4q6 -3 12 -12q0 -2 6 -23q2 -8 2 -32.5t-2 -32.5q-6 -20 -6 -23q-6 -9 -12 -12q-8 -4 -13 -4h-616q-14 0 -34.5 10t-23.5 37q-49 -29 -133 -49q-66 -16 -159 -16q-145 0 -254 43 q-106 43 -176 125q-68 80 -103 206.5t-35 282.5zM281 651q0 -114 18 -209q18 -92 66 -166q45 -70 120.5 -108.5t188.5 -38.5q76 0 153 25q66 20 119 61v870q-57 39 -121 60q-61 20 -143 20q-115 0 -188 -41q-82 -45 -125 -112q-47 -72 -68 -162q-20 -88 -20 -199z" />
<glyph unicode="&#x153;" horiz-adv-x="1738" d="M90 469q0 104 29 201q28 92 86 159q59 68 143 105q86 37 201 37q131 0 217 -49q82 -47 139 -146q53 96 142 146q86 49 200 49q104 0 180 -35q70 -33 121 -92.5t72 -134.5q23 -80 22 -164v-31q0 -39 -20 -55.5t-43 -16.5h-592q0 -70 17 -135q14 -55 51 -102t90 -68 q57 -23 137 -22q57 0 113 10q33 6 88 25q14 4 37 13l22 9q27 10 35 10t12 -2q6 -4 10 -10q4 -8 5 -20q0 -4 1 -14.5t1 -16.5q0 -4 -1 -12.5t-1 -10.5q0 -4 -1 -9t-1 -7q0 -6 -5 -14l-10 -11q-6 -6 -32.5 -18t-71.5 -25q-51 -14 -99 -22q-49 -8 -120 -8q-129 0 -224 47 q-92 46 -147 147q-57 -98 -143 -145q-90 -49 -220 -49q-113 0 -192 32q-88 35 -139 97q-55 63 -82 151q-27 86 -27 207zM262 477q0 -61 14 -137q12 -61 46 -115q31 -49 84 -78q51 -27 133 -26q72 0 125 24q49 23 85.5 74t51 110.5t14.5 141.5q0 78 -12 141q-10 57 -45 113 q-31 49 -84 77.5t-131 28.5q-76 0 -127 -24q-49 -23 -86 -74q-37 -49 -51 -112q-17 -70 -17 -144zM987 563h490q4 133 -58 205q-61 74 -180 74q-53 0 -106 -25q-47 -23 -78 -59.5t-47 -89.5q-19 -58 -21 -105z" />
<glyph unicode="&#x178;" horiz-adv-x="997" d="M32 1276q0 7 5 12q6 6 26 10q12 2 54 2q37 0 49 -2t29 -6q8 -2 16 -10q2 -2 5 -8t5 -8l180 -371l50 -113l51 -116h2l47 114l49 111l180 375q4 12 8 16q6 8 17 10q10 4 26 6q12 2 43 2q41 0 56 -2q16 -2 28 -10q7 -5 7 -14v-6q-4 -16 -15 -35l-364 -729v-477q0 -6 -4 -15 q-4 -6 -14.5 -10t-26.5 -6q-12 -2 -41 -2q-33 0 -43 2q-20 4 -27 6q-10 4 -14 10q-4 8 -4 15v477l-367 729q-13 23 -13 43zM392 1530q0 -57 -20.5 -77.5t-78.5 -20.5q-55 0 -75.5 20.5t-20.5 75.5t20.5 75.5t77.5 20.5q55 0 76 -20.5t21 -73.5zM805 1530q0 -57 -20.5 -77.5 t-77.5 -20.5q-55 0 -75.5 20.5t-20.5 75.5t20.5 75.5t75.5 20.5q57 0 77.5 -20.5t20.5 -73.5zM66 1294z" />
<glyph unicode="&#x2c6;" horiz-adv-x="808" d="M0 950zM133 1122q2 6 17 25l163 229q6 9 13 13q12 6 18 8q12 4 25 4q4 0 17 1t21.5 1t19.5 -1t15 -1q6 0 25 -6l16 -9l11 -10l165 -229q10 -12 15 -25q4 -10 0 -18q-4 -6 -21 -10q-10 -2 -41 -2h-32q-2 0 -21 6q-6 2 -12 8l-4 4l-4 4t-4 6l-132 180l-129 -180 q-4 -6 -12 -14q-4 -4 -14 -8q-18 -6 -21 -6h-32q-31 0 -41 2q-12 2 -21 10q-4 4 0 18z" />
<glyph unicode="&#x2da;" horiz-adv-x="655" d="M524 1257q0 -47 -12 -73q-16 -33 -41 -60q-25 -23 -63 -37q-43 -14 -84 -14q-49 0 -86 12q-33 12 -60 37q-23 23 -35 56q-12 34 -12 73q0 35 14 74q12 33 39 59q25 25 62 37.5t86 12.5q92 0 143 -48q49 -47 49 -129zM420 1251q0 41 -22.5 70t-69.5 29q-45 0 -67.5 -27 t-22.5 -66q0 -45 20 -71q23 -29 72 -29q47 0 67 27q23 28 23 67zM0 950z" />
<glyph unicode="&#x2dc;" horiz-adv-x="921" d="M0 950zM129 1139q0 98 49 157.5t144 59.5q55 0 94 -21q41 -23 69 -45l60 -47q27 -20 59 -20q37 0 55 26q18 29 19 78q0 16 10 23q8 6 45 6q33 0 49 -8q12 -6 13 -33q0 -106 -54 -164q-52 -55 -141 -55q-35 0 -65.5 10t-53.5 24q-27 16 -43 31l-39 33q-14 12 -39 25 q-20 10 -41 10q-41 0 -57 -31q-14 -27 -14 -76q0 -8 -2 -12t-10.5 -8t-18.5 -4q-4 0 -14 -1t-16.5 -1t-14.5 1t-12 1q-6 0 -19 6q-8 4 -10 12q-2 7 -2 23z" />
<glyph unicode="&#x3bc;" horiz-adv-x="1124" d="M1104 76q0 -27 -4 -47q-2 -16 -10.5 -22.5t-16.5 -10.5q-6 -2 -26 -6q-6 -2 -16.5 -4t-16.5 -2q-10 -2 -37 -2q-84 0 -133 36q-53 39 -68 123q-76 -86 -143.5 -120.5t-143.5 -34.5q-61 0 -104 14q-47 16 -78 55q4 -29 4 -47q0 -14 4 -51q2 -18 2 -53v-47v-189 q0 -6 -4 -14t-12 -10q-9 -3 -25 -6q-10 -2 -40.5 -2.5t-40.5 2.5q-15 3 -25 6q-10 4 -14 10q-2 4 -2 14v1258q0 8 2 12q4 6 14 10q18 6 25 6q4 0 18 1t22.5 1t22.5 -1t18 -1q6 0 25 -6q8 -2 12 -10t4 -12v-568q0 -111 49.5 -172t143.5 -61q61 0 123 43q66 47 131 129v629 q0 4 4 12t12 10q18 6 25 6q4 0 18.5 1t22.5 1t22.5 -1t18.5 -1q6 0 24 -6q8 -2 12.5 -10t4.5 -12v-656q0 -33 4 -69q2 -27 12 -45q6 -14 25 -25q14 -8 41 -8q18 0 26 2q4 0 10.5 1t10.5 3q2 0 8 1t8 3q4 2 12 2q6 0 9 -2q4 -4 6 -8q4 -8 4 -19v-30z" />
<glyph unicode="&#x2000;" horiz-adv-x="866" />
<glyph unicode="&#x2001;" horiz-adv-x="1732" />
<glyph unicode="&#x2002;" horiz-adv-x="866" />
<glyph unicode="&#x2003;" horiz-adv-x="1732" />
<glyph unicode="&#x2004;" horiz-adv-x="577" />
<glyph unicode="&#x2005;" horiz-adv-x="432" />
<glyph unicode="&#x2006;" horiz-adv-x="288" />
<glyph unicode="&#x2007;" horiz-adv-x="288" />
<glyph unicode="&#x2008;" horiz-adv-x="215" />
<glyph unicode="&#x2009;" horiz-adv-x="344" />
<glyph unicode="&#x200a;" horiz-adv-x="94" />
<glyph unicode="&#x2011;" horiz-adv-x="626" d="M70 506q0 37 8 51q10 16 26 16h418q6 0 15 -4q10 -6 12 -10q2 -6 6 -22q2 -8 2 -31q0 -41 -8 -55.5t-27 -14.5h-418q-18 0 -26 14.5t-8 55.5z" />
<glyph unicode="&#x2013;" d="M-10 565q0 35 10 56q8 18 27 18h960q4 0 17 -6q10 -4 12 -12q0 -2 3 -10.5t5 -12.5q2 -8 2 -33q0 -35 -10 -55q-8 -16 -29 -16h-960q-18 0 -27 16q-10 20 -10 55z" />
<glyph unicode="&#x2014;" horiz-adv-x="1853" d="M150 565q0 35 10 56q8 18 28 18h1479q18 0 27 -16q12 -25 12 -58q0 -40 -12 -55q-12 -16 -27 -16h-1479q-14 0 -26 16q-12 15 -12 55z" />
<glyph unicode="&#x2018;" horiz-adv-x="509" d="M139 967q0 25 4 57q2 20 11 47q8 31 18 47q20 37 29 47l137 205q8 12 10 14q4 4 14 9q6 2 23 6q8 2 31 2q6 0 16 -1t14.5 -1t16.5 -6q6 -4 6 -9q0 -2 -4 -14l-133 -276v-127q0 -28 -6.5 -43.5t-18.5 -24.5q-10 -6 -28 -10q-25 -4 -43.5 -4t-42.5 4q-23 4 -31 10 q-10 6 -17 25q-6 15 -6 43z" />
<glyph unicode="&#x2019;" horiz-adv-x="509" d="M43 901q0 8 2 14l133 277v127q0 25 6 41q6 15 19 24q12 10 28 13q25 4 45 4q18 0 43 -4q16 -2 29 -13q10 -6 17 -24q6 -16 6 -41q0 -41 -2 -57.5t-11 -49.5q-6 -23 -18 -45q-20 -37 -29 -47l-137 -207l-12 -12q-8 -8 -15 -10q-12 -4 -22 -4q-4 0 -15.5 -1t-17.5 -1t-15 1 t-14 1q-8 0 -16 4q-4 2 -4 10z" />
<glyph unicode="&#x201a;" horiz-adv-x="509" d="M43 -274q0 8 2 14l133 274v129q0 28 6 43.5t19 24.5q10 6 28 10q12 2 45 2q31 0 43 -2q18 -4 28.5 -10t17.5 -25q6 -15 6 -43q0 -41 -2 -57q-2 -25 -10.5 -49.5t-18.5 -44.5q-20 -37 -29 -47l-137 -207l-12 -12q-6 -4 -15 -9q-18 -6 -22 -6t-15.5 -1t-17.5 -1t-15 1 t-13.5 1t-16.5 6q-4 3 -4 9z" />
<glyph unicode="&#x201c;" horiz-adv-x="856" d="M135 969q0 23 4 55q2 25 11 49q10 33 16 45q8 14 29 47l135 205q8 12 10 14q4 4 14 9q6 2 23 6q8 2 31 2q6 0 15 -1t11 -1t15 -6q6 -4 6 -9q0 -2 -4 -14l-132 -274v-127q0 -31 -4 -41q-8 -18 -18 -27q-10 -6 -29 -10q-25 -4 -41 -4t-41 4q-18 4 -28 10q-8 6 -17 27 q-6 14 -6 41zM494 969q0 23 4 55q4 37 8 49q8 25 18 45q8 14 29 47l133 205q4 6 12 14q6 4 15 9q6 2 22 6q8 2 31 2q6 0 14 -1t12.5 -1t16.5 -6q4 -2 4 -9q0 -8 -4 -14l-131 -274v-127q0 -27 -6 -41q-8 -20 -17 -27q-10 -6 -28 -10q-25 -4 -41.5 -4t-40.5 4q-18 4 -29 10 q-8 6 -16 27q-6 14 -6 41z" />
<glyph unicode="&#x201d;" horiz-adv-x="856" d="M43 903q0 4 4 17l131 272v127q0 29 6 43q6 18 16.5 24.5t28.5 10.5q25 4 43 4q16 0 41 -4q18 -4 28.5 -10.5t16.5 -24.5q4 -10 4 -43q0 -41 -2 -57q-2 -20 -10 -47t-18 -46q-2 -2 -11.5 -19l-15.5 -28l-135 -204q-2 -4 -12 -15q-6 -6 -15 -8q-12 -4 -20 -6t-31 -2 q-6 0 -14 1t-12.5 1t-16.5 6q-6 2 -6 8zM401 903q0 4 5 17l131 272v127q0 29 6 43q6 18 16 24.5t29 10.5q25 4 43 4q14 0 39 -4q18 -4 28.5 -10.5t16.5 -24.5q6 -14 6 -43q0 -41 -2 -57q-2 -20 -10.5 -47t-18.5 -46q-2 -2 -11 -19l-15 -28l-138 -204q-2 -6 -10 -15 q-4 -6 -14 -8q-6 -2 -23 -6q-8 -2 -28 -2q-6 0 -15.5 1t-11.5 1q-4 0 -16 6q-7 2 -7 8z" />
<glyph unicode="&#x201e;" horiz-adv-x="856" d="M43 -272q0 2 4 14l131 272v127q0 27 6 43q6 18 16.5 24.5t28.5 10.5q25 4 43 4q16 0 41 -4q18 -4 28.5 -10t16.5 -25q4 -10 4 -43q0 -39 -2 -55q-2 -25 -10 -49.5t-18 -44.5q-2 -2 -11.5 -19.5t-15.5 -27.5l-135 -205l-12 -12q-6 -6 -15 -9q-12 -4 -20 -6t-31 -2 q-6 0 -14 1t-12 1q-8 0 -17 4q-6 5 -6 11zM401 -272q0 2 5 14l131 272v127q0 27 6 43q6 18 16 24.5t29 10.5q25 4 43 4q14 0 39 -4q18 -4 28.5 -10t16.5 -25q6 -16 6 -43q0 -39 -2 -55q-2 -25 -10.5 -49.5t-18.5 -44.5q-2 -2 -11 -19.5t-15 -27.5l-138 -205q-2 -2 -10 -12 q-4 -6 -14 -9q-6 -2 -23 -6q-8 -2 -28 -2q-6 0 -15.5 1t-11.5 1q-8 0 -16 4q-7 5 -7 11z" />
<glyph unicode="&#x2022;" d="M193 641q0 68 24 125q25 59 68 102t102 68q58 25 123 25t123 -25q59 -25 102 -68t68 -100q25 -59 24 -125q0 -65 -24 -123q-25 -59 -68 -102t-102 -68q-58 -25 -123 -24q-68 0 -125 24.5t-100 67.5t-68 100q-24 58 -24 123z" />
<glyph unicode="&#x2026;" horiz-adv-x="1413" d="M150 104q0 70 24 95q23 23 82 22.5t81.5 -23t22.5 -89.5q0 -72 -22.5 -94.5t-83.5 -22.5q-59 0 -81.5 22t-22.5 90zM602 104q0 72 22.5 94.5t84.5 22.5q57 0 79.5 -22.5t22.5 -90t-23 -94.5q-20 -23 -81 -22q-59 0 -82 22t-23 90zM1053 104q0 70 24 95q23 23 82.5 22.5 t82 -23t22.5 -89.5q0 -72 -22.5 -94.5t-84.5 -22.5q-59 0 -81.5 22t-22.5 90z" />
<glyph unicode="&#x202f;" horiz-adv-x="344" />
<glyph unicode="&#x2039;" horiz-adv-x="692" d="M117 522q0 23 14 43l215 346q4 6 12 15q6 4 15 8q12 4 22 4h35q31 0 41 -2q16 -2 23 -10q6 -6 6 -15q0 -6 -6 -18l-213 -373l215 -373q4 -6 4 -18q0 -10 -6.5 -16.5t-20.5 -8.5q-20 -4 -41 -4q-8 0 -19.5 1t-15.5 1q-10 0 -22 4q-10 4 -15 9q-6 6 -10 12l-221 352 q-12 16 -12 43z" />
<glyph unicode="&#x203a;" horiz-adv-x="692" d="M193 911q0 8 6 15q8 8 20 10q10 2 41 2h37q10 0 22 -4q8 -4 15 -8q2 -2 10 -15l219 -352q14 -20 15 -43q0 -20 -17 -43l-215 -346q-4 -6 -10 -12q-4 -4 -14 -9q-12 -4 -23 -4q-4 0 -16.5 -1t-20.5 -1q-20 0 -41 4q-16 2 -20 9q-8 8 -8 14t8 18l211 373l-213 375 q-6 9 -6 18z" />
<glyph unicode="&#x2044;" horiz-adv-x="688" d="M-35 -8q-6 -10 -10 -12l-18 -9q-18 -6 -22.5 -6t-16 -1t-19.5 -1q-18 0 -35 4q-10 2 -20 13q-4 4 -4 14q0 8 10 22l899 1289q4 6 12 14q4 4 19 8q12 4 24 4q4 0 14.5 1t18.5 1q18 0 35 -4q14 -4 20 -10q4 -4 5 -16q0 -8 -11 -23z" />
<glyph unicode="&#x205f;" horiz-adv-x="432" />
<glyph unicode="&#x2081;" horiz-adv-x="503" d="M373 -184q0 -6 -4 -11q-6 -6 -13 -8q-12 -4 -22 -4q-4 0 -15.5 -1t-19.5 -1t-18.5 1t-14.5 1q-8 0 -20 4q-4 2 -10 8q-4 4 -5 11v628l-149 -79q-20 -8 -23 -9q-10 0 -14 4q-6 6 -8 17q-2 8 -2 26q0 6 1 14.5t1 10.5q0 12 2 16q2 2 4 6.5t4 6.5l10 10l187 111q4 0 8 2 q8 4 14 4h19q4 0 12 1t14 1q8 0 18.5 -1t14.5 -1q10 0 18 -4l9 -5q2 -2 2 -10v-749z" />
<glyph unicode="&#x2082;" horiz-adv-x="686" d="M614 -143.5q0 -27.5 -6 -42.5q-6 -16 -18 -17h-471q-12 0 -19 2q-10 4 -14 8.5t-8 18.5q-2 8 -2 27v26q0 2 6 21q2 6 10 18q2 4 8 10t9 11l153 149q59 59 80 86q18 25 47 72q14 25 23 59q6 27 6 51q0 43 -33 76q-31 31 -90 31q-33 0 -68 -10q-33 -10 -51 -21 q-8 -4 -20.5 -11t-18.5 -9q-16 -10 -24 -11q-6 0 -9 2q-6 6 -8 11q-4 8 -4 20q0 4 -1 12.5t-1 14.5q0 18 4 35q4 14 12 22q14 14 29 23q27 14 51 22q55 16 66 19q37 6 76 6q61 0 110 -17q47 -16 78 -43q33 -29 47 -67q16 -43 17 -84q0 -37 -7 -70q-4 -23 -30 -76 q-20 -43 -66 -96q-39 -47 -117 -119l-106 -102h334q14 0 20 -14q6 -16 6 -43.5z" />
<glyph unicode="&#x2083;" horiz-adv-x="684" d="M600 20q0 -59 -20 -100q-22 -43 -62 -74q-39 -31 -96 -45q-61 -16 -127 -16q-49 0 -86 6q-45 8 -66 14q-35 12 -43 17l-20 12q-2 2 -6 10l-6 13q0 2 -1 8t-1 10v31q0 25 4 35q6 14 16 14q8 0 23 -8q23 -14 41 -21q23 -8 59 -18q31 -8 74 -8q77 0 116 30q41 31 41 84 q0 29 -12 53.5t-35 38.5q-25 15 -61 25q-33 8 -84 8h-72q-8 0 -12 2q-6 4 -10 11q0 2 -1 5l-2 6t-1 7q-2 8 -2.5 26.5t2.5 24.5q0 2 1 8.5t3 8.5q2 4 10 8t10 4h70q86 0 127 33q45 35 45 92q0 43 -31 71q-29 27 -90 27q-41 0 -68 -8q-41 -12 -57 -21q-20 -10 -41 -22 q-14 -8 -23 -8q-12 0 -14 12q-6 25 -6 41q0 4 1 11t1 9q0 4 1 9.5t1 7.5q0 6 4 10l3 4q3 4 5 6q4 4 29 19q18 10 51 20q55 16 66 19q37 6 74 6q66 0 108 -15q49 -16 78 -38.5t45 -61.5q14 -35 14 -80q0 -74 -39 -121q-41 -51 -116 -65v-2q43 -4 75 -19q37 -16 60 -39 q25 -25 41 -57q12 -25 12 -70z" />
<glyph unicode="&#x20ac;" horiz-adv-x="1036" d="M43 489v31q2 8 6 21q2 6 10.5 10t14.5 4h106v39q0 8 -1 20.5t-1 20.5t1 24.5t1 24.5v45h-106q-14 0 -25 16q-6 10 -6 52q0 20 2 28q4 16 6 21q4 6 10 10q8 4 15 4h121q18 104 55 186t96.5 141.5t138.5 90.5q86 33 187 33q51 0 92 -8q57 -12 84 -21q39 -12 63 -27 q27 -14 37 -22q14 -10 17 -19q0 -2 4 -8t4 -10q4 -12 4 -22q0 -4 1 -15.5t1 -17.5t-1 -16.5t-1 -14.5q0 -2 -6 -20q-4 -10 -8 -13q-8 -4 -13 -4q-16 0 -37 14q-6 6 -53 33q-18 10 -78 31q-43 14 -108 14q-70 0 -117 -20q-53 -23 -86 -60q-33 -35 -59 -96q-25 -53 -37 -129 h305q6 0 14 -4q6 -4 11 -10q6 -12 8 -20.5t2 -28.5q0 -37 -8 -52q-10 -16 -27 -16h-320q-4 -29 -4 -41v-47v-43q0 -14 4 -43h320q6 0 14.5 -4t10.5 -10q0 -2 3 -9.5t5 -11.5q2 -8 2 -31q0 -35 -8 -49q-10 -16 -27 -16h-307q14 -84 33 -125q25 -57 63 -92q45 -41 90 -57 q52 -18 123 -19q61 0 111 16q41 14 79 35q18 10 54 35q23 16 35 16q6 0 10 -4q6 -6 8 -12q4 -12 4 -24q0 -4 1 -16.5t1 -20.5q0 -35 -6 -54q-6 -16 -18 -28q-10 -10 -37 -27q-16 -10 -66 -31q-27 -10 -88 -22q-55 -10 -106 -10q-100 0 -183 28q-80 27 -141 86 q-61 57 -96 138q-37 84 -56 188h-114q-14 0 -25 16q-8 14 -8 49z" />
<glyph unicode="&#x2122;" horiz-adv-x="1443" d="M63 1239v25q0 6 7 18l8 8q4 4 8 4h403q6 0 10.5 -4t6.5 -8q4 -8 4 -18q0 -2 1 -10.5t1 -14.5q0 -4 -1 -12t-1 -10q0 -6 -4 -14.5t-6 -10.5t-11 -2h-141v-455q0 -6 -2 -8t-10 -6t-19 -4q-4 0 -13 -1t-15 -1t-16.5 1t-14.5 1q-10 0 -18.5 4t-10.5 6q-4 4 -4 8v455h-139 q-6 0 -8 2q-6 6 -8 10q-6 12 -7 15v22zM616 735v512q0 23 12.5 35t33.5 12h75q12 0 33 -4q18 -4 25 -10q14 -14 18 -23q12 -23 14 -32l125 -344l133 344q10 29 33 51q18 18 53 18h74q20 0 32.5 -12t12.5 -35v-512q0 -6 -2 -8q-4 -4 -8 -6q-8 -4 -18 -4q-4 0 -12.5 -1 t-14.5 -1t-16.5 1t-12.5 1q-10 0 -18 4q-4 2 -8 6q-2 2 -2 8v447h-2l-166 -451q-3 -9 -19 -12q-20 -4 -43 -4q-16 0 -37 4q-12 2 -16 12l-164 451h-2v-447q0 -6 -2 -8t-10 -6t-17 -4q-2 0 -11 -1t-15 -1t-15.5 1t-13.5 1q-10 0 -18 4q-4 2 -9 6q-2 2 -2 8z" />
<glyph unicode="&#xfb01;" horiz-adv-x="1083" d="M37 883q0 23 2 30q4 16 6 23q2 8 10 12q4 2 15 2h127v99q0 100 16 159q18 66 55 109t88 63q49 20 119 21q31 0 45.5 -2t38.5 -6l33 -9q10 -2 18 -10q6 -6 8 -10l5 -12q4 -12 4 -21v-28q0 -37 -4 -48q-6 -14 -19 -14q-4 0 -16 4q-2 0 -9.5 3t-11.5 5q-8 2 -32.5 6.5 t-45.5 4.5q-72 0 -98 -52q-29 -53 -29 -161v-101h519q27 0 39 -12t12 -39v-874q0 -4 -4 -12.5t-13 -10.5q-6 -2 -26 -6q-10 -2 -39 -2q-31 0 -41 2q-15 3 -25 6q-10 4 -14 10q-4 8 -4 13v788h-404v-788q0 -4 -4 -13q-4 -6 -14 -10q-9 -3 -25 -6q-10 -2 -40 -2q-29 0 -39 2 q-20 4 -27 6q-8 2 -12 10t-4 13v788h-127q-14 0 -25 16q-8 15 -8 54zM750 1229q0 33 4 45q8 20 16 31q16 16 31 18q25 4 49 4t49 -4q14 -2 31 -18q14 -14 16 -31q4 -25 4 -45q0 -23 -4 -47q-2 -16 -16 -31q-8 -8 -31 -16q-18 -6 -49 -6.5t-49 6.5q-23 8 -31 16t-16 31 q-4 12 -4 47z" />
<glyph unicode="&#xfb02;" horiz-adv-x="1083" d="M37 883q0 23 2 30q4 16 6 23q2 8 10 12q4 2 15 2h127v97q0 96 20 159q23 70 64 111t110 63q63 20 162 21q35 0 53 -2l56 -6q25 -2 45 -7q6 0 11 -2t11 -4t8 -2q14 -4 19 -8q10 -10 10 -12q0 6 4 14q3 6 12 12q2 2 25 7q10 2 43 2q29 0 39 -2q20 -4 26 -7q8 -2 12.5 -10 t4.5 -12v-1337q0 -4 -4 -12.5t-13 -10.5q-6 -2 -26 -6q-10 -2 -39 -2q-31 0 -41 2q-15 3 -25 6q-10 4 -14 10q-4 8 -4 13v1220q-4 -4 -6 -4l-4 -1q-4 -1 -6 -1q-10 0 -35 6q-33 8 -51.5 10t-51.5 7q-16 2 -45 2q-63 0 -102 -13q-41 -12 -64 -39q-20 -23 -30 -67 q-8 -35 -9 -96v-99h185q10 0 14 -2q8 -4 10 -12q2 -6 7 -23q2 -8 2 -30q0 -39 -9 -54q-10 -16 -24 -16h-185v-788q0 -4 -4 -13q-4 -6 -14 -10q-9 -3 -25 -6q-10 -2 -40 -2q-29 0 -39 2q-20 4 -27 6q-8 2 -12 10t-4 13v788h-127q-14 0 -25 16q-8 15 -8 54z" />
<glyph unicode="&#xfb03;" horiz-adv-x="1652" d="M37 883q0 23 2 30q4 16 6 23q2 8 10 12q4 2 15 2h127v86q0 100 16 160q18 66 55 109q35 41 90 63q49 20 123 21q43 0 78 -7q25 -4 49 -14q14 -6 21 -12q6 -8 10 -17q6 -18 6 -22v-33q0 -37 -4 -47q-6 -14 -18 -14q-6 0 -19 4q-6 2 -26 10q-18 8 -37 10q-29 4 -45 4 q-74 0 -105 -51q-29 -49 -29 -162v-88h404v99q0 92 18 159q16 61 54 109q31 41 88 63q49 20 121 21q29 0 43 -2q29 -4 40 -6q8 -2 18.5 -5.5t12.5 -3.5q10 -2 19 -10q6 -6 8 -10l6 -12q2 -6 2 -21q0 -4 1 -13t1 -15q0 -37 -4 -48q-6 -14 -18 -14q-4 0 -17 4q-2 0 -10 3 t-12 5q-12 3 -31 7q-25 4 -45 4q-70 0 -100 -52q-29 -49 -29 -161v-101h518q29 0 41 -12t12 -39v-874q0 -4 -4 -13q-4 -6 -14 -10q-9 -3 -25 -6q-10 -2 -41 -2q-29 0 -39 2q-20 4 -26 6q-8 2 -12.5 10t-4.5 13v788h-405v-788q0 -4 -4 -12.5t-13 -10.5q-6 -2 -26 -6 q-10 -2 -39 -2q-31 0 -41 2q-15 3 -25 6q-10 4 -14 10q-4 8 -4 13v788h-404v-788q0 -4 -4 -13q-4 -6 -14 -10q-9 -3 -25 -6q-10 -2 -40 -2q-29 0 -39 2q-20 4 -27 6q-8 2 -12 10t-4 13v788h-127q-14 0 -25 16q-8 15 -8 54zM1319 1229q0 33 4 45q6 18 18 31q16 16 31 18 q25 4 47 4q27 0 51 -4q14 -2 31 -18q10 -10 15 -31q6 -37 6 -45q0 -10 -6 -47q-4 -20 -15 -31q-10 -8 -31 -16q-18 -6 -51 -7q-29 0 -47 7q-20 8 -31 16q-12 12 -18 31q-4 12 -4 47z" />
<glyph unicode="&#xfb04;" horiz-adv-x="1652" d="M37 883q0 23 2 30q4 16 6 23q2 8 10 12q4 2 15 2h127v86q0 100 16 160q18 66 55 109q35 41 90 63q49 20 123 21q43 0 78 -7q25 -4 49 -14q14 -6 21 -12q6 -8 10 -17q6 -18 6 -22v-33q0 -37 -4 -47q-6 -14 -18 -14q-6 0 -19 4q-6 2 -26.5 10t-34.5 10q-29 4 -47 4 q-74 0 -105 -51q-29 -49 -29 -162v-88h404v99q0 96 20.5 159.5t65.5 108.5q41 41 111 63q63 20 159 21q35 0 54 -2l55 -6q18 -2 47 -7q14 -2 31 -6q8 -2 16 -10l5 -4q5 -4 7 -8q0 6 4 14q3 6 13 12q2 2 24 7q10 2 41 2t41 -2q15 -3 25 -7t14 -10q4 -8 4 -12v-1337 q0 -4 -4 -13q-4 -6 -14 -10q-9 -3 -25 -6q-10 -2 -41 -2q-29 0 -39 2q-20 4 -26 6q-8 2 -12.5 10t-4.5 13v1222q-4 -4 -8 -4l-4 -1q-4 -1 -6 -1q-10 0 -35 6q-18 4 -51 8l-49 7q-16 2 -45 2q-61 0 -103 -13q-43 -14 -63 -39q-25 -31 -33 -67q-8 -35 -8 -94v-101h186 q8 0 12 -2q8 -4 11 -12q0 -2 3 -10l5 -13q2 -8 2 -30q0 -37 -10.5 -53.5t-22.5 -16.5h-186v-788q0 -4 -4 -12.5t-13 -10.5q-6 -2 -26 -6q-10 -2 -39 -2q-31 0 -41 2q-15 3 -25 6q-10 4 -14 10q-4 8 -4 13v788h-404v-788q0 -4 -4 -13q-4 -6 -14 -10q-9 -3 -25 -6 q-10 -2 -40 -2q-29 0 -39 2q-20 4 -27 6q-8 2 -12 10t-4 13v788h-127q-14 0 -25 16q-8 15 -8 54z" />
<glyph horiz-adv-x="659" d="M516 1438q10 -14 12 -19q2 -8 -4 -14q-4 -4 -18 -8q-8 -2 -37 -2q-8 0 -19.5 1t-15.5 1q-8 0 -24 4l-19 10q-12 8 -18 14l-228 213q-8 6 -12 19q-2 10 4 16q10 10 25 13q25 4 47 4q8 0 22.5 -1t20.5 -1t31 -7q4 -2 22 -10q4 -2 23 -20zM0 1294z" />
<glyph horiz-adv-x="659" d="M334 1651l8 8q8 10 12 12q10 6 25 10q25 6 31 6.5t20 1.5t23 1q23 0 47 -4q12 -2 22 -13q8 -8 6 -16q-3 -9 -12 -19l-227 -213q-6 -6 -19 -14q-14 -8 -18 -10q-16 -4 -27 -4q-4 0 -15 -1t-20 -1q-29 0 -36 2q-14 4 -18.5 8t-2.5 14q2 8 10 19zM0 1294z" />
<glyph horiz-adv-x="915" d="M465 1690q8 0 19.5 -1t15.5 -1q12 0 24 -5q16 -4 19 -8q2 -2 7 -6t9 -8l213 -227q6 -6 12 -19q4 -8 -4 -12q-6 -4 -20 -6q-10 -2 -35 -2q-12 0 -28.5 1t-20.5 1q-12 0 -29 4q-12 3 -18 6l-11 10l-153 172l-160 -168q-4 -4 -16 -12q-8 -4 -21 -8q-16 -4 -28 -4 q-6 0 -20.5 -1t-24.5 -1q-31 0 -39 2q-4 0 -19 8q-8 4 -4 10q8 16 10 19l226 227q10 10 16 14q8 6 18 8q16 4 27 5q4 0 15.5 1t19.5 1zM0 1294z" />
<glyph horiz-adv-x="935" d="M686 1614q0 16 14 18q20 4 50 4q31 0 47 -8q10 -6 10 -33q0 -94 -51 -145q-53 -53 -146 -53q-57 0 -92 16q-27 12 -72 41l-61 39q-25 16 -59 16q-41 0 -60 -24q-16 -23 -16 -68q0 -4 -6 -10t-12.5 -8t-18.5 -2h-27q-37 0 -47 8t-10 31q0 51 14 86q16 39 39 61 q27 27 64 39q43 14 80 14q52 0 92 -18q47 -23 71 -39l60 -39q28 -18 61 -18q35 0 55.5 20.5t20.5 71.5zM0 1294z" />
<glyph horiz-adv-x="755" d="M313 1217q0 -55 -18 -74q-20 -20 -74 -21q-51 0 -69 19q-20 20 -21 73q0 51 21 76q18 20 71 20.5t72 -20.5q18 -21 18 -73zM625 1217q0 -53 -20.5 -74t-72 -21t-69.5 19q-20 20 -21 73q0 51 21 76q18 20 69 21q55 0 74 -21t19 -73zM0 950z" />
<glyph horiz-adv-x="870" d="M326 1530q0 -57 -20.5 -77.5t-78.5 -20.5q-55 0 -75.5 20.5t-20.5 75.5t20.5 75.5t77.5 20.5q55 0 76 -20.5t21 -73.5zM739 1530q0 -57 -20.5 -77.5t-77.5 -20.5q-55 0 -75.5 20.5t-20.5 75.5t20.5 75.5t75.5 20.5q57 0 77.5 -20.5t20.5 -73.5zM0 1294z" />
<glyph horiz-adv-x="671" d="M541 1550q0 -45 -15 -75q-18 -39 -43 -62q-27 -25 -65 -39q-37 -14 -86 -14q-45 0 -88 14q-39 14 -64 37q-25 25 -37 57q-12 35 -12 76q0 39 14 78q12 35 41 59q27 25 66 39q37 14 88 15q94 0 147.5 -49.5t53.5 -135.5zM428 1544q0 43 -22.5 72t-69.5 29q-45 0 -70 -25 q-23 -23 -22 -70q0 -45 20 -71q23 -29 74 -29q47 0 68 27q22 28 22 67zM0 1294z" />
<glyph d="M924 366.5q0 -79.5 -31 -145.5q-33 -68 -86 -112q-57 -49 -137 -76q-76 -27 -183 -33l-20 -217q0 -4 -4 -12q-2 -4 -10 -9q-6 -3 -19 -6q-8 -2 -33 -2q-20 0 -36.5 4t-22.5 6q-8 2 -10 8.5t0 14.5l22 217q-37 4 -88 16q-53 12 -73 21q-45 18 -54 22q-25 14 -33 23 q-14 14 -16 27q-4 25 -4 47q0 27 2 37q3 15 6 24q2 8 12 12q8 4 15 5q14 0 37 -15q20 -12 63 -33q37 -16 96 -32q55 -14 138 -15q141 0 214.5 55.5t73.5 151.5q0 59 -26 99q-29 43 -72 69q-39 27 -100 49l-115 41q-78 29 -115 47q-63 33 -102 68q-41 39 -70 98 q-27 55 -26 142q0 63 22 124q20 53 69.5 100.5t115.5 72.5q68 27 163 32l21 203q0 8 2 12t10 9q12 6 19 6q4 0 14 1t18 1q27 0 37 -2q16 -4 23 -6q2 -2 8 -13q2 -4 2 -12l-20 -201l61 -10q14 -2 61 -18q37 -12 52 -21q6 -2 13 -6l12 -7t7 -5q4 -4 11 -17q4 -8 6 -14 q4 -12 4 -23q0 -4 1 -12t1 -14t-1 -17.5t-1 -15.5q0 -10 -4 -23q-4 -10 -8 -12q-8 -4 -13 -4q-6 0 -35 14q-12 6 -61 27q-47 18 -84 29q-49 12 -106 12q-70 0 -115 -12q-47 -12 -78 -37q-33 -27 -43 -55q-12 -33 -12 -72q0 -61 26.5 -100t71.5 -68q41 -27 102 -49l117 -41 q39 -14 117 -47q51 -20 100 -68q47 -43 72 -96q29 -62 29 -141.5z" />
<glyph d="M940 70q0 -25 -2 -33q-4 -12 -8 -21q-6 -9 -12 -12q-8 -4 -13 -4h-794q-6 0 -15 4q-2 2 -10 12q-4 8 -8 21q-4 16 -4 33q0 23 2 30q4 16 8 23q6 9 12 12q8 4 15 4h122v455h-122q-10 0 -15 2q-2 2 -10 12q-4 8 -8 21q-4 16 -4 33q0 20 2 28q4 16 8 23q6 9 12 12q4 2 15 2 h122v121q0 125 27 211q27 88 80 143q55 59 125 82q80 27 164 27q29 0 82 -8q33 -6 75 -21q34 -12 62 -31q37 -25 41 -28q10 -10 18 -23q6 -8 8 -16q4 -12 5 -23v-31q0 -20 -2 -28q-4 -16 -7 -23q-4 -10 -8 -12q-8 -4 -12 -4q-18 0 -35 16q-8 8 -49 37q-23 16 -72 37 q-39 16 -102 16q-61 0 -103 -20q-47 -23 -71 -59q-27 -39 -43 -101q-14 -55 -15 -135v-127h328q12 0 16 -2q8 -4 11 -12q2 -6 6 -22.5t4 -28.5q0 -16 -4 -33q-4 -12 -8 -21q-8 -10 -11 -12q-4 -2 -14 -2h-328v-455h504q6 0 15 -4q6 -3 12 -12q0 -2 6 -23q2 -7 2 -30z" />
<glyph horiz-adv-x="1036" d="M956 420q0 -86 -24 -166q-25 -76 -80 -139q-53 -59 -137 -97q-83 -37 -197 -36q-90 0 -143 18q-66 23 -109 57q-45 35 -76 93q-31 55 -49 122q-16 61 -26 152q-8 74 -9 174q0 74 11 170q8 82 30 164q18 68 64 147q37 66 98 121q55 49 144 82q84 31 192 31q2 0 76 -6 q31 -2 70 -11q29 -6 53 -16q20 -10 28 -16l11 -11q2 -2 4 -7t2 -7q4 -8 4 -18v-23v-31q0 -8 -4 -20q-2 -8 -10.5 -12.5t-14.5 -4.5q-10 0 -28 7l-48 16q-25 8 -65 14q-53 8 -88 9q-90 0 -162 -39q-63 -35 -108 -103q-43 -63 -64 -147q-18 -78 -22 -176q14 10 57 28 q45 20 72 29q41 12 81 18q57 8 93 9q102 0 176 -29q72 -29 117 -80t63 -118.5t18 -147.5zM782 403q0 66 -10 105q-14 51 -38.5 82t-71.5 49q-46 18 -111 18q-39 0 -76 -6q-35 -6 -69 -18q-53 -18 -68 -27q-41 -20 -57 -33q0 -125 16 -217q14 -80 49 -139q31 -51 78 -74 q49 -23 111 -22q68 0 110 22q47 25 78 66q29 37 45 90q14 45 14 104z" />
<glyph horiz-adv-x="1036" d="M954 332q0 -86 -30 -150q-31 -65 -86 -110t-140 -68q-86 -23 -190 -22q-102 0 -178 20q-80 22 -135 61q-55 41 -84 103q-29 63 -29 135q0 63 20 113q23 53 58 94q37 43 92 80t125 71q-53 27 -107 66q-45 33 -77 76q-37 47 -50 86q-16 49 -16 100q0 70 25 127 q27 63 73 105q53 45 127 69q77 25 178 25q104 0 170 -23q70 -25 117 -65q49 -43 70 -95q20 -53 20 -118q0 -49 -16 -99q-14 -41 -47 -88q-23 -33 -80 -77q-55 -43 -107 -70q70 -33 127 -72q55 -37 93 -80q41 -47 57 -90q20 -51 20 -104zM737 995q0 45 -14 76q-18 39 -41 59 q-29 25 -70 37q-43 12 -96 13q-106 0 -161.5 -49.5t-55.5 -135.5q0 -37 12 -71q10 -27 43 -64q29 -31 72 -59q57 -37 102 -60q102 53 155.5 114.5t53.5 139.5zM780 313q0 51 -16 84t-53 70q-31 31 -86 63q-47 27 -119 64q-65 -31 -111 -62q-51 -35 -78 -63q-29 -33 -45 -70 q-16 -39 -16 -82q0 -98 66 -149q70 -53 198.5 -53t194 53t65.5 145z" />
<glyph horiz-adv-x="667" d="M612 328q0 -84 -16 -142q-18 -66 -51 -106q-35 -43 -90 -70q-53 -25 -125 -24q-70 0 -125 22q-47 20 -84 66q-33 43 -49 106q-16 66 -17 144q0 70 17 135q14 55 51 106q35 47 88 72q51 25 127 25q80 0 131 -27q59 -31 86 -72q35 -51 45 -106q12 -61 12 -129zM473 322 q0 61 -8 100q-10 45 -25 72q-15 28 -43 43q-29 16 -63 16q-39 0 -62 -14q-29 -18 -43 -43q-16 -29 -24 -70q-8 -39 -8 -96q0 -63 10 -115q8 -45 26 -72q18 -29 43 -37q31 -10 62 -10q43 0 65 15q27 16 41 45q16 35 23 71q6 44 6 95z" />
<glyph horiz-adv-x="499" d="M387 16q0 -6 -4 -10q-3 -3 -12 -6q-12 -4 -23 -4q-4 0 -15 -1t-20 -1q-6 0 -17 1t-15 1q-8 0 -21 4q-9 3 -12 6q-4 4 -4 10v504l-150 -78q-20 -8 -22 -8q-6 0 -15 4q-2 0 -6 15q-2 6 -2 26v23q0 6 4 18q2 4 5 8t3 7q2 4 11 8l186 110l4 1l4 1l4 1q4 1 6 1h19h27h32 q12 0 21 -4q2 0 5 -1t5 -3t2 -8v-625z" />
<glyph horiz-adv-x="593" d="M539 53q0 -29 -6.5 -41t-18.5 -12h-412q-16 0 -20 2q-8 4 -12 8q-2 2 -7 17q-4 16 -4 30q0 6 1 14.5t1 10.5q0 8 4.5 20.5t8.5 16.5l16 16l133 121l62 61q20 20 41 50q12 18 20 45q6 23 6 47q0 39 -26 63q-31 27 -72 27q-37 0 -61.5 -8.5t-45.5 -18.5l-32 -16 q-10 -8 -21 -8q-6 0 -8 2t-6 10t-4 18q0 4 -1 12.5t-1 14.5q0 25 2 31t10 18q4 8 27 19q20 10 45 18q23 8 59 14q34 6 68 7q55 0 98 -13q39 -10 70 -39q29 -25 41 -59q14 -39 14 -76q0 -29 -10 -63q-12 -39 -29 -66q-20 -31 -57 -72q-35 -39 -90 -84l-97 -79h287 q14 0 20 -15q7 -15 7 -43z" />
<glyph horiz-adv-x="583" d="M528 184q0 -47 -20 -82q-23 -41 -55 -61q-41 -27 -88 -41q-49 -14 -113 -14q-25 0 -66 4q-27 2 -57 10q-25 6 -45.5 16.5t-24.5 16.5q-12 16 -12 20q-2 8 -2 39q0 23 4 35q4 10 14 10q2 0 23 -8l16.5 -8t18.5 -8q20 -8 49 -15q41 -8 74 -8q37 0 59 8q25 10 39 21 q14 12 23 31q8 20 8 32q0 25 -8 41q-8 18 -29 31q-23 14 -51 20q-31 6 -74 7h-68q-8 0 -12 2q-2 2 -6 8q-2 4 -6 16q-2 6 -2 24.5t2 24.5t6 15q2 4 6 8q2 2 10 2h66q72 0 108.5 24.5t36.5 69.5q0 33 -26 60q-23 23 -82 22q-39 0 -56 -6q-33 -12 -47 -19q-6 -4 -18 -9l-17 -7 l-20 -8q-6 0 -8 2q-4 4 -6 8q-6 12 -6 14v25v18q0 2 1 7.5t1 7.5q0 4 4 8l3 4q3 4 5 6q6 6 22 15q20 10 45 18q23 8 60 14q35 6 72 7q57 0 98 -13q43 -12 67 -33q29 -23 41 -53q14 -35 15 -67q0 -27 -11 -54q-10 -25 -26 -45q-14 -16 -43 -35q-18 -12 -55 -22q29 -2 69 -18 q31 -12 51 -33q18 -18 30.5 -47t12.5 -58z" />
<glyph horiz-adv-x="585" d="M573 184q0 -25 -6 -41q-6 -14 -16 -14h-76v-113q0 -6 -4 -10t-10 -6q-12 -4 -23 -4q-4 0 -14 -1t-18 -1q-6 0 -17.5 1t-15.5 1q-8 0 -21 4q-9 3 -12 6q-2 2 -2 10v113h-287q-10 0 -14 2q-8 4 -10 8q0 2 -1 5t-2 6.5t-1 7.5q-2 8 -3 30v27q0 14 3 21l6 18q0 2 10 16 l235 363q6 6 11 8q6 3 18 6q16 4 29 4q6 0 19.5 1t21.5 1q10 0 25.5 -1t21.5 -1q16 0 33 -4l16 -8q6 -4 6 -8v-398h76q10 0 16 -10q6 -12 6 -39zM338 537h-2l-201 -304h203v304z" />
</font>
</defs>
</svg>
